<svg width="347" height="393" viewBox="0 0 347 393" fill="none" xmlns="http://www.w3.org/2000/svg">
    <path d="M148.418 108.754C210.114 151.038 267.488 202.014 304.828 265.974C328.375 306.31 343.349 350.722 364.751 392.153" stroke="#88B89F" stroke-opacity="0.5" stroke-width="3.2" stroke-miterlimit="10" stroke-linejoin="round"/>
    <path d="M147.297 151.26C131.991 150.921 116.459 153.386 103.018 160.243C100.722 161.415 98.429 162.766 96.9201 164.822C95.4114 166.877 94.8554 169.8 96.1959 172.028C97.6552 174.454 100.751 175.332 103.551 175.899C120.212 179.281 137.277 179.355 154.067 178.04C162.54 177.377 170.969 176.356 179.376 175.224C185.953 174.34 220.051 171.659 219.1 164.457C218.451 159.534 192.085 155.27 184.582 153.946C176.255 152.474 155.739 151.448 147.297 151.26Z" fill="#849858" fill-opacity="0.4"/>
    <path d="M103.567 175.821L103.567 175.821C120.218 179.2 137.275 179.275 154.061 177.96C162.531 177.297 170.959 176.276 179.366 175.145L179.376 175.224L179.366 175.145C180.213 175.031 181.514 174.888 183.137 174.709C187.825 174.192 195.193 173.38 202.046 172.131C206.659 171.291 211.031 170.254 214.189 168.979C215.769 168.342 217.038 167.647 217.883 166.892C218.726 166.137 219.135 165.331 219.021 164.467L219.1 164.457L219.021 164.467C218.944 163.885 218.484 163.297 217.691 162.711C216.901 162.126 215.795 161.553 214.457 160.998C211.783 159.888 208.196 158.853 204.392 157.93C197.724 156.311 190.399 155.039 186.164 154.303C185.567 154.199 185.032 154.106 184.568 154.024C176.248 152.554 155.738 151.528 147.295 151.34C131.998 151.001 116.48 153.465 103.055 160.314C100.759 161.486 98.4814 162.83 96.9846 164.869C95.4886 166.907 94.9455 169.795 96.2645 171.987C96.983 173.182 98.1065 173.998 99.4038 174.588C100.702 175.178 102.168 175.538 103.567 175.821Z" stroke="#88B89F" stroke-opacity="0.5" stroke-width="0.16"/>
    <path d="M95.3604 170.38C136 162.959 177.435 161.113 218.493 164.895L95.3604 170.38Z" fill="#849858" fill-opacity="0.4"/>
    <path d="M95.3604 170.38C136 162.959 177.435 161.113 218.493 164.895" stroke="#88B89F" stroke-opacity="0.5" stroke-width="2.4" stroke-miterlimit="10" stroke-linejoin="round"/>
    <path d="M129.792 122.517C116.09 120.742 101.905 121.451 89.1553 126.283C86.9778 127.108 84.7841 128.094 83.2243 129.785C81.6643 131.475 80.8732 134.031 81.8527 136.149C82.9199 138.454 85.6105 139.535 88.066 140.311C102.68 144.93 117.988 146.636 133.187 147.074C140.856 147.297 148.523 147.194 156.182 146.992C162.173 146.833 193.043 147.715 192.911 141.193C192.82 136.737 169.586 130.397 162.985 128.494C155.659 126.381 137.35 123.494 129.792 122.517Z" fill="#849858" fill-opacity="0.4"/>
    <path d="M89.1836 126.358L89.1836 126.358C87.0069 127.182 84.8292 128.164 83.2831 129.839L83.2831 129.839C81.7375 131.514 80.9636 134.036 81.9253 136.116C82.4498 137.249 83.3748 138.084 84.4793 138.735C85.5842 139.385 86.8636 139.847 88.0901 140.235C102.695 144.851 117.994 146.556 133.189 146.994L133.187 147.074L133.189 146.994C140.856 147.217 148.522 147.114 156.18 146.912C156.954 146.891 158.141 146.888 159.622 146.884C163.881 146.873 170.568 146.855 176.837 146.399C181.061 146.092 185.088 145.586 188.049 144.751C189.53 144.334 190.738 143.836 191.57 143.243C192.402 142.651 192.847 141.974 192.831 141.195C192.821 140.672 192.468 140.105 191.816 139.505C191.166 138.908 190.231 138.291 189.087 137.667C186.798 136.419 183.684 135.151 180.362 133.961C174.539 131.876 168.09 130.035 164.364 128.972C163.84 128.822 163.369 128.688 162.962 128.571C155.644 126.46 137.34 123.574 129.782 122.596C116.089 120.822 101.917 121.531 89.1836 126.358Z" stroke="#88B89F" stroke-opacity="0.5" stroke-width="0.16"/>
    <path d="M81.2686 134.598C118.483 131.876 155.855 134.207 192.322 141.528L81.2686 134.598Z" fill="#849858" fill-opacity="0.4"/>
    <path d="M81.2686 134.598C118.483 131.876 155.855 134.207 192.322 141.528" stroke="#88B89F" stroke-opacity="0.5" stroke-width="2.4" stroke-miterlimit="10" stroke-linejoin="round"/>
    <path d="M121.001 79.2309C109.324 71.7915 96.1004 66.3545 82.3442 65.1961C79.9945 64.9977 77.5582 64.9377 75.3854 65.7732C73.212 66.6085 71.3517 68.543 71.2985 70.8463C71.2401 73.3528 73.206 75.4648 75.0942 77.2057C86.3315 87.5647 99.4996 95.6288 113.134 102.522C120.013 106 127.036 109.189 134.095 112.285C139.617 114.707 167.313 128.697 170.102 122.842C172.009 118.839 153.695 103.262 148.538 98.746C142.814 93.734 127.442 83.3332 121.001 79.2309Z" fill="#849858" fill-opacity="0.4"/>
    <path d="M82.3375 65.2759L82.3374 65.2759C79.9886 65.0775 77.5685 65.0194 75.4141 65.8479L75.4141 65.8479C73.2594 66.676 71.4307 68.5881 71.3784 70.8481L71.3784 70.8482C71.3498 72.0791 71.818 73.2174 72.5325 74.2681C73.2474 75.3191 74.2053 76.2773 75.1485 77.1469C86.3783 87.499 99.5392 95.5592 113.17 102.451C120.048 105.928 127.069 109.116 134.127 112.211C134.841 112.524 135.921 113.029 137.269 113.658C141.15 115.47 147.244 118.316 153.152 120.593C157.132 122.127 161.022 123.4 164.089 123.924C165.623 124.187 166.945 124.261 167.967 124.09C168.989 123.919 169.697 123.507 170.03 122.808C170.253 122.339 170.186 121.685 169.86 120.872C169.535 120.063 168.96 119.115 168.197 118.07C166.672 115.982 164.404 113.522 161.912 111.043C157.546 106.699 152.501 102.306 149.585 99.7655C149.173 99.407 148.804 99.0855 148.485 98.8062C142.766 93.7987 127.4 83.4009 120.958 79.2984C109.289 71.8638 96.0773 66.4328 82.3375 65.2759Z" stroke="#88B89F" stroke-opacity="0.5" stroke-width="0.16"/>
    <path d="M71.4596 69.2155C106.536 82.7147 139.501 100.775 169.419 122.884L71.4596 69.2155Z" fill="#849858" fill-opacity="0.4"/>
    <path d="M71.4596 69.2155C106.536 82.7147 139.501 100.775 169.419 122.884" stroke="#88B89F" stroke-opacity="0.5" stroke-width="2.4" stroke-miterlimit="10" stroke-linejoin="round"/>
    <path d="M188.18 77.0565C184.877 63.8792 179.017 51.0542 169.725 40.874C168.138 39.1344 166.39 37.4325 164.199 36.5394C162.007 35.6464 159.266 35.7386 157.591 37.3195C155.768 39.0407 155.713 41.8628 155.866 44.3709C156.772 59.2991 160.726 73.9309 165.856 88.0559C168.445 95.1849 171.343 102.207 174.334 109.189C176.674 114.65 187.102 143.337 193.311 141.123C197.554 139.611 195.152 116.198 194.568 109.514C193.92 102.096 190.002 84.324 188.18 77.0565Z" fill="#849858" fill-opacity="0.4"/>
    <path d="M193.284 141.048L193.311 141.123L193.284 141.048C193.783 140.87 194.197 140.365 194.534 139.573C194.869 138.785 195.12 137.728 195.301 136.475C195.662 133.969 195.741 130.697 195.67 127.26C195.544 121.236 194.956 114.715 194.615 110.944C194.567 110.412 194.524 109.934 194.488 109.521L194.568 109.514L194.488 109.521C193.841 102.111 189.924 84.344 188.103 77.076C184.802 63.9079 178.946 51.0959 169.665 40.928L169.725 40.874L169.665 40.928C168.079 39.1891 166.342 37.4992 164.168 36.6135C161.995 35.7276 159.29 35.8258 157.646 37.3777C156.751 38.2228 156.287 39.3407 156.066 40.5643C155.846 41.7887 155.87 43.1134 155.946 44.3661C156.852 59.2837 160.802 73.9074 165.931 88.0286C168.519 95.1556 171.417 102.176 174.408 109.157C174.71 109.863 175.147 110.954 175.691 112.315C177.257 116.23 179.717 122.377 182.444 127.999C184.281 131.787 186.237 135.33 188.119 137.787C189.061 139.015 189.98 139.968 190.853 140.544C191.726 141.12 192.541 141.313 193.284 141.048Z" stroke="#88B89F" stroke-opacity="0.5" stroke-width="0.16"/>
    <path d="M158.867 36.284C175.071 69.6526 186.482 104.786 192.778 140.689L158.867 36.284Z" fill="#849858" fill-opacity="0.4"/>
    <path d="M158.867 36.284C175.071 69.6526 186.482 104.786 192.778 140.689" stroke="#88B89F" stroke-opacity="0.5" stroke-width="2.4" stroke-miterlimit="10" stroke-linejoin="round"/>
    <path d="M228.45 98.76C227.881 84.7291 224.619 70.5335 217.283 58.3126C216.028 56.2257 214.604 54.1443 212.552 52.7911C210.499 51.4375 207.675 50.9695 205.623 52.2293C203.39 53.5999 202.733 56.4496 202.353 59.0225C200.096 74.3383 201.02 89.975 203.256 105.341C204.384 113.096 205.854 120.805 207.424 128.493C208.653 134.508 213.205 165.715 220.033 164.743C224.699 164.077 227.235 139.857 228.061 132.964C228.982 125.313 228.764 106.499 228.45 98.76Z" fill="#849858" fill-opacity="0.4"/>
    <path d="M227.89 134.416C227.954 133.873 228.011 133.386 228.061 132.964L217.283 58.3126C216.028 56.2257 214.604 54.1443 212.552 52.7911C210.499 51.4375 207.675 50.9695 205.623 52.2293C203.39 53.5999 202.733 56.4496 202.353 59.0225C200.096 74.3383 201.02 89.975 203.256 105.341C204.384 113.096 205.854 120.805 207.424 128.493C207.582 129.267 207.795 130.458 208.061 131.943C209.862 142.004 214.083 165.59 220.033 164.743C224.414 164.118 226.916 142.735 227.89 134.416ZM217.638 163.654C218.408 164.417 219.203 164.78 220.022 164.664C220.572 164.585 221.105 164.157 221.618 163.423C222.13 162.692 222.612 161.672 223.065 160.438C223.969 157.973 224.748 154.673 225.408 151.174C226.567 145.034 227.355 138.295 227.811 134.407C227.874 133.864 227.931 133.377 227.982 132.954L227.982 132.954C228.901 125.311 228.684 106.503 228.37 98.7632C227.802 84.742 224.542 70.5603 217.214 58.3538C215.96 56.2678 214.543 54.2004 212.508 52.8579C210.471 51.5147 207.681 51.0594 205.665 52.2974C204.567 52.9711 203.854 54.0098 203.367 55.2052C202.88 56.4013 202.622 57.7491 202.433 59.0342C200.177 74.3394 201.1 89.9676 203.335 105.33C204.463 113.082 205.932 120.789 207.502 128.477C207.661 129.253 207.874 130.446 208.141 131.933C208.908 136.221 210.114 142.959 211.707 149.218C212.779 153.433 214.025 157.424 215.427 160.3C216.129 161.738 216.867 162.891 217.638 163.654Z" stroke="#88B89F" stroke-opacity="0.5" stroke-width="0.16"/>
    <path d="M207.15 51.4395C216.614 88.5744 220.796 126.517 219.58 164.192L207.15 51.4395Z" fill="#849858" fill-opacity="0.4"/>
    <path d="M207.15 51.4395C216.614 88.5744 220.796 126.517 219.58 164.192" stroke="#88B89F" stroke-opacity="0.5" stroke-width="2.4" stroke-miterlimit="10" stroke-linejoin="round"/>
    <path d="M263.41 118.713C265.078 104.159 264.102 89.048 258.762 75.3931C257.852 73.0596 256.767 70.7072 254.947 69.0173C253.125 67.3266 250.395 66.4398 248.158 67.4444C245.722 68.5388 244.615 71.3839 243.829 73.9829C239.148 89.4558 237.577 105.717 237.351 121.886C237.236 130.047 237.466 138.208 237.803 146.363C238.065 152.744 237.614 185.584 244.548 185.56C249.285 185.545 255.659 160.927 257.578 153.935C259.708 146.175 262.489 126.739 263.41 118.713Z" fill="#849858" fill-opacity="0.4"/>
    <path d="M258.688 75.4222L258.688 75.4221C257.778 73.0895 256.699 70.7524 254.892 69.0759C253.085 67.3988 250.389 66.5304 248.191 67.5174C246.993 68.0554 246.118 69.0254 245.444 70.1895C244.769 71.3541 244.298 72.7078 243.905 74.0061C239.228 89.4691 237.657 105.723 237.431 121.887L237.351 121.886L237.431 121.887C237.316 130.046 237.546 138.206 237.883 146.36L237.803 146.363L237.883 146.36C237.917 147.183 237.939 148.444 237.966 150.016C238.045 154.55 238.169 161.672 238.753 168.357C239.146 172.858 239.748 177.153 240.682 180.32C241.15 181.905 241.699 183.2 242.343 184.098C242.987 184.995 243.717 185.483 244.547 185.48L244.547 185.48C245.105 185.478 245.703 185.113 246.33 184.429C246.955 183.748 247.596 182.765 248.242 181.558C249.533 179.144 250.832 175.852 252.044 172.338C254.169 166.179 256.023 159.351 257.095 155.403C257.247 154.846 257.382 154.346 257.501 153.914C259.629 146.16 262.409 126.73 263.331 118.704C264.998 104.159 264.021 89.0618 258.688 75.4222Z" stroke="#88B89F" stroke-opacity="0.5" stroke-width="0.16"/>
    <path d="M249.799 66.8479C253.282 106.507 251.392 146.242 244.185 184.926L249.799 66.8479Z" fill="#849858" fill-opacity="0.4"/>
    <path d="M249.799 66.8479C253.282 106.507 251.392 146.242 244.185 184.926" stroke="#88B89F" stroke-opacity="0.5" stroke-width="2.4" stroke-miterlimit="10" stroke-linejoin="round"/>
    <path d="M294.389 140.997C297.812 125.333 298.651 108.865 294.941 93.6498C294.308 91.0509 293.505 88.42 291.882 86.4492C290.259 84.4785 287.628 83.3129 285.266 84.2366C282.693 85.2414 281.242 88.2456 280.142 91.0076C273.589 107.446 270.056 124.972 267.884 142.499C266.788 151.343 266.038 160.217 265.392 169.09C264.89 176.03 260.487 211.629 267.439 212.119C272.19 212.455 281.541 186.221 284.307 178.779C287.375 170.518 292.501 149.637 294.389 140.997Z" fill="#849858" fill-opacity="0.4"/>
    <path d="M280.216 91.0372L280.142 91.0076L280.216 91.0373C273.666 107.467 270.135 124.986 267.964 142.509L267.884 142.499L267.964 142.509C266.867 151.351 266.117 160.223 265.472 169.096C265.407 169.994 265.277 171.369 265.115 173.085C264.649 178.01 263.918 185.738 263.7 193.026C263.553 197.939 263.639 202.645 264.194 206.152C264.473 207.906 264.867 209.354 265.405 210.377C265.943 211.399 266.616 211.981 267.445 212.039L267.445 212.039C268.002 212.078 268.646 211.727 269.359 211.031C270.068 210.338 270.83 209.317 271.622 208.055C273.207 205.532 274.906 202.056 276.544 198.333C279.413 191.815 282.091 184.552 283.642 180.347C283.862 179.75 284.06 179.214 284.232 178.751C287.298 170.497 292.423 149.62 294.311 140.979C297.732 125.324 298.569 108.869 294.863 93.6688L294.941 93.6498L294.863 93.6688C294.231 91.0701 293.431 88.4554 291.821 86.5001C290.211 84.5457 287.614 83.4043 285.295 84.3111L285.266 84.2366L285.295 84.3112C284.029 84.8054 283.035 85.7934 282.218 87.0078C281.401 88.2223 280.766 89.6573 280.216 91.0372Z" stroke="#88B89F" stroke-opacity="0.5" stroke-width="0.16"/>
    <path d="M286.982 83.7128C285.703 127.003 279.03 169.971 267.153 211.405L286.982 83.7128Z" fill="#849858" fill-opacity="0.4"/>
    <path d="M286.982 83.7128C285.703 127.003 279.03 169.971 267.153 211.405" stroke="#88B89F" stroke-opacity="0.5" stroke-width="2.4" stroke-miterlimit="10" stroke-linejoin="round"/>
    <path d="M167.652 181.498C152.512 183.355 137.57 188.029 125.346 196.762C123.258 198.254 121.199 199.926 120.02 202.182C118.84 204.439 118.728 207.42 120.384 209.439C122.184 211.64 125.368 212.066 128.212 212.229C145.143 213.195 161.976 210.823 178.328 207.111C186.582 205.238 194.739 203.015 202.858 200.687C209.208 198.865 242.42 191.315 240.407 184.301C239.03 179.508 212.402 179.056 204.808 178.816C196.378 178.55 176.002 180.473 167.652 181.498Z" fill="#849858" fill-opacity="0.4"/>
    <path d="M120.091 202.219L120.091 202.219C118.921 204.457 118.816 207.402 120.445 209.389L120.446 209.389C121.332 210.472 122.562 211.122 123.929 211.521C125.296 211.921 126.796 212.068 128.216 212.149C145.137 213.115 161.962 210.744 178.311 207.033C186.562 205.16 194.717 202.937 202.836 200.61C203.656 200.374 204.923 200.044 206.502 199.632C211.046 198.446 218.181 196.585 224.743 194.365C229.164 192.869 233.319 191.213 236.242 189.495C237.703 188.635 238.851 187.764 239.57 186.893C240.289 186.023 240.571 185.165 240.33 184.323C240.167 183.756 239.625 183.238 238.755 182.769C237.889 182.302 236.713 181.893 235.312 181.533C232.509 180.815 228.819 180.302 224.931 179.931C218.118 179.281 210.709 179.068 206.424 178.944C205.818 178.927 205.275 178.911 204.805 178.896C196.382 178.63 176.012 180.552 167.662 181.577C152.531 183.433 137.603 188.104 125.392 196.828C123.305 198.319 121.26 199.981 120.091 202.219Z" stroke="#88B89F" stroke-opacity="0.5" stroke-width="0.16"/>
    <path d="M119.313 207.923C158.265 194.729 198.835 186.955 239.873 184.823L119.313 207.923Z" fill="#849858" fill-opacity="0.4"/>
    <path d="M119.313 207.923C158.265 194.729 198.835 186.955 239.873 184.823" stroke="#88B89F" stroke-opacity="0.5" stroke-width="2.4" stroke-miterlimit="10" stroke-linejoin="round"/>
    <path d="M191.621 209.535C176.575 211.937 161.831 217.149 149.955 226.325C147.925 227.892 145.932 229.638 144.84 231.937C143.746 234.237 143.747 237.222 145.475 239.184C147.356 241.318 150.55 241.631 153.396 241.691C170.336 242.048 187.055 239.069 203.244 234.767C211.413 232.596 219.474 230.08 227.492 227.458C233.766 225.409 266.643 216.662 264.369 209.718C262.815 204.974 236.21 205.479 228.618 205.513C220.194 205.552 199.919 208.208 191.621 209.535Z" fill="#849858" fill-opacity="0.4"/>
    <path d="M150.003 226.389L150.003 226.389C147.975 227.955 145.996 229.691 144.912 231.971C143.828 234.252 143.834 237.2 145.535 239.131C146.462 240.182 147.714 240.788 149.094 241.138C150.474 241.488 151.976 241.581 153.398 241.611L153.398 241.611C170.328 241.968 187.038 238.991 203.223 234.689C211.391 232.519 219.45 230.003 227.468 227.382L227.492 227.458L227.468 227.382C228.275 227.118 229.521 226.744 231.075 226.277C235.567 224.929 242.631 222.808 249.108 220.349C253.466 218.694 257.552 216.888 260.406 215.064C261.833 214.151 262.946 213.238 263.631 212.341C264.316 211.445 264.566 210.576 264.293 209.742C264.109 209.181 263.548 208.683 262.663 208.245C261.78 207.809 260.591 207.442 259.178 207.133C256.352 206.515 252.649 206.135 248.753 205.904C241.922 205.498 234.511 205.552 230.229 205.583C229.627 205.587 229.087 205.591 228.618 205.593C220.201 205.632 199.932 208.287 191.633 209.614L191.621 209.535L191.633 209.614C176.596 212.014 161.866 217.223 150.003 226.389Z" stroke="#88B89F" stroke-opacity="0.5" stroke-width="0.16"/>
    <path d="M144.351 237.704C182.747 223.104 222.962 213.869 263.857 210.257L144.351 237.704Z" fill="#849858" fill-opacity="0.4"/>
    <path d="M144.351 237.704C182.747 223.104 222.962 213.869 263.857 210.257" stroke="#88B89F" stroke-opacity="0.5" stroke-width="2.4" stroke-miterlimit="10" stroke-linejoin="round"/>
    <path d="M323.045 179.233C326.467 163.569 327.305 147.1 323.597 131.886C322.963 129.286 322.159 126.655 320.536 124.685C318.914 122.714 316.284 121.549 313.921 122.473C311.348 123.477 309.896 126.481 308.796 129.243C302.243 145.681 298.712 163.209 296.539 180.735C295.443 189.579 294.692 198.452 294.048 207.326C293.544 214.266 289.142 249.865 296.095 250.355C300.846 250.691 310.197 224.457 312.961 217.014C316.029 208.754 321.155 187.872 323.045 179.233Z" fill="#849858" fill-opacity="0.4"/>
    <path d="M313.95 122.547L313.921 122.473L313.95 122.547C312.685 123.041 311.69 124.029 310.873 125.244C310.055 126.458 309.42 127.893 308.87 129.273L308.796 129.243L308.87 129.273C302.32 145.702 298.791 163.222 296.618 180.744C295.523 189.587 294.771 198.459 294.128 207.332C294.063 208.227 293.933 209.596 293.772 211.303C293.306 216.227 292.574 223.965 292.355 231.261C292.208 236.174 292.294 240.881 292.85 244.388C293.128 246.142 293.523 247.59 294.061 248.613C294.599 249.635 295.271 250.217 296.1 250.275L296.1 250.275C296.658 250.315 297.302 249.963 298.014 249.267C298.724 248.574 299.485 247.553 300.278 246.291C301.863 243.768 303.562 240.292 305.2 236.569C308.073 230.039 310.756 222.761 312.305 218.559C312.522 217.971 312.716 217.443 312.886 216.986C315.952 208.732 321.077 187.855 322.967 179.215C326.387 163.56 327.223 147.104 323.519 131.905C322.885 129.306 322.085 126.691 320.475 124.735C318.865 122.781 316.27 121.64 313.95 122.547Z" stroke="#88B89F" stroke-opacity="0.5" stroke-width="0.16"/>
    <path d="M315.638 121.948C314.358 165.237 307.686 208.206 295.809 249.641L315.638 121.948Z" fill="#849858" fill-opacity="0.4"/>
    <path d="M315.638 121.948C314.358 165.237 307.686 208.206 295.809 249.641" stroke="#88B89F" stroke-opacity="0.5" stroke-width="2.4" stroke-miterlimit="10" stroke-linejoin="round"/>
    <path d="M341.482 226.795C344.962 213.947 346.251 200.304 343.599 187.48C343.145 185.288 342.548 183.062 341.225 181.344C339.902 179.628 337.687 178.528 335.63 179.18C333.389 179.888 332.039 182.312 330.999 184.554C324.812 197.89 321.175 212.28 318.705 226.736C317.459 234.031 316.507 241.367 315.647 248.709C314.974 254.452 309.966 283.814 315.91 284.566C319.972 285.078 328.898 263.74 331.528 257.692C334.446 250.979 339.565 233.881 341.482 226.795Z" fill="#849858" fill-opacity="0.4"/>
    <path d="M335.654 179.256L335.654 179.256C334.555 179.603 333.669 180.373 332.928 181.34C332.186 182.308 331.591 183.468 331.072 184.588C324.888 197.914 321.254 212.298 318.784 226.75C317.538 234.043 316.586 241.377 315.726 248.718C315.639 249.46 315.48 250.592 315.283 252.004C314.712 256.073 313.817 262.464 313.377 268.515C313.08 272.59 312.991 276.504 313.346 279.444C313.523 280.915 313.811 282.136 314.236 283.01C314.661 283.884 315.215 284.397 315.92 284.486C316.392 284.546 316.953 284.288 317.587 283.745C318.218 283.205 318.906 282.396 319.629 281.387C321.075 279.369 322.651 276.565 324.185 273.553C326.869 268.281 329.416 262.381 330.892 258.963C331.102 258.475 331.291 258.038 331.455 257.66C334.37 250.954 339.488 233.86 341.405 226.774C344.882 213.934 346.169 200.305 343.521 187.496C343.067 185.305 342.472 183.095 341.162 181.393C339.852 179.693 337.668 178.618 335.654 179.256Z" stroke="#88B89F" stroke-opacity="0.5" stroke-width="0.16"/>
    <path d="M337.119 178.831C334.521 214.737 327.309 250.115 315.688 283.958L337.119 178.831Z" fill="#849858" fill-opacity="0.4"/>
    <path d="M337.119 178.831C334.521 214.737 327.309 250.115 315.688 283.958" stroke="#88B89F" stroke-opacity="0.5" stroke-width="2.4" stroke-miterlimit="10" stroke-linejoin="round"/>
    <path d="M219.875 242.566C204.683 244.032 189.611 248.316 177.15 256.729C175.021 258.165 172.917 259.78 171.677 262.005C170.435 264.229 170.244 267.205 171.846 269.265C173.587 271.509 176.761 272.017 179.6 272.253C196.51 273.654 213.411 271.717 229.87 268.429C238.174 266.769 246.393 264.759 254.577 262.641C260.978 260.986 294.402 254.297 292.576 247.239C291.328 242.414 264.705 241.277 257.114 240.843C248.691 240.361 228.256 241.757 219.875 242.566Z" fill="#849858" fill-opacity="0.4"/>
    <path d="M177.194 256.795L177.194 256.795C175.066 258.231 172.977 259.837 171.747 262.044L171.746 262.044C170.515 264.249 170.333 267.188 171.909 269.216L171.909 269.216C172.766 270.321 173.979 271.002 175.335 271.436C176.692 271.87 178.188 272.055 179.607 272.173C196.507 273.573 213.4 271.638 229.854 268.351C238.156 266.691 246.374 264.681 254.557 262.564C255.382 262.35 256.654 262.054 258.24 261.684C262.817 260.617 270.009 258.94 276.638 256.89C281.101 255.509 285.301 253.962 288.27 252.32C289.756 251.499 290.927 250.658 291.67 249.806C292.412 248.956 292.718 248.106 292.499 247.259C292.351 246.688 291.823 246.157 290.966 245.666C290.112 245.177 288.947 244.737 287.554 244.342C284.77 243.552 281.093 242.945 277.214 242.474C270.413 241.649 263.003 241.245 258.721 241.012C258.118 240.979 257.578 240.949 257.109 240.923C248.693 240.441 228.264 241.837 219.882 242.646C204.7 244.111 189.642 248.392 177.194 256.795Z" stroke="#88B89F" stroke-opacity="0.5" stroke-width="0.16"/>
    <path d="M170.815 267.722C210.131 255.544 250.92 248.82 292.028 247.745L170.815 267.722Z" fill="#849858" fill-opacity="0.4"/>
    <path d="M170.815 267.722C210.131 255.544 250.92 248.82 292.028 247.745" stroke="#88B89F" stroke-opacity="0.5" stroke-width="2.4" stroke-miterlimit="10" stroke-linejoin="round"/>
    <path d="M252.703 272.207C239.47 272.136 226.084 274.493 214.574 280.621C212.607 281.667 210.647 282.87 209.374 284.669C208.101 286.47 207.666 289.004 208.858 290.914C210.155 292.99 212.845 293.704 215.272 294.154C229.722 296.835 244.472 296.651 258.96 295.269C266.272 294.57 273.542 293.565 280.791 292.463C286.46 291.603 315.888 288.788 314.956 282.571C314.32 278.323 291.471 275.019 284.966 273.983C277.746 272.833 260.002 272.244 252.703 272.207Z" fill="#849858" fill-opacity="0.4"/>
    <path d="M208.925 290.871C209.563 291.891 210.544 292.58 211.673 293.07C212.802 293.561 214.074 293.851 215.287 294.075L215.287 294.075C229.727 296.755 244.468 296.571 258.953 295.189C266.263 294.491 273.53 293.486 280.779 292.384L280.791 292.463L280.779 292.384C281.51 292.273 282.634 292.13 284.036 291.951C288.079 291.436 294.432 290.626 300.333 289.447C304.306 288.653 308.068 287.693 310.777 286.544C312.132 285.97 313.217 285.351 313.934 284.687C314.65 284.023 314.988 283.323 314.877 282.582C314.802 282.085 314.399 281.585 313.705 281.09C313.014 280.596 312.051 280.117 310.887 279.657C308.56 278.736 305.445 277.893 302.144 277.151C296.356 275.848 290.004 274.854 286.334 274.28C285.818 274.199 285.354 274.126 284.953 274.063C277.74 272.913 260.002 272.324 252.702 272.287L252.703 272.207L252.702 272.287C239.478 272.216 226.107 274.572 214.611 280.692L214.611 280.692C212.645 281.738 210.701 282.932 209.44 284.715C208.179 286.498 207.756 288.997 208.925 290.871ZM208.925 290.871L208.858 290.914M208.925 290.871L208.858 290.914M208.858 290.914C207.666 289.004 208.101 286.47 209.374 284.669L215.272 294.154C212.845 293.704 210.155 292.99 208.858 290.914Z" stroke="#88B89F" stroke-opacity="0.5" stroke-width="0.16"/>
    <path d="M208.11 289.499C243.119 282.487 278.898 280.285 314.439 282.957L208.11 289.499Z" fill="#849858" fill-opacity="0.4"/>
    <path d="M208.11 289.499C243.119 282.487 278.898 280.285 314.439 282.957" stroke="#88B89F" stroke-opacity="0.5" stroke-width="2.4" stroke-miterlimit="10" stroke-linejoin="round"/>
</svg>
