<svg width="22" height="21" viewBox="0 0 22 21" fill="none" xmlns="http://www.w3.org/2000/svg">
    <path d="M19.83 6.51002L13.28 1.27002C12 0.250018 9.99996 0.240018 8.72996 1.26002L2.17996 6.51002C1.23996 7.26002 0.669963 8.76002 0.869963 9.94002L2.12996 17.48C2.41996 19.17 3.98996 20.5 5.69996 20.5H16.3C17.99 20.5 19.59 19.14 19.88 17.47L21.14 9.93002C21.32 8.76002 20.75 7.26002 19.83 6.51002ZM11.75 16.5C11.75 16.91 11.41 17.25 11 17.25C10.59 17.25 10.25 16.91 10.25 16.5V13.5C10.25 13.09 10.59 12.75 11 12.75C11.41 12.75 11.75 13.09 11.75 13.5V16.5Z" fill="#388D4D"/>
</svg>
