<svg width="22" height="23" viewBox="0 0 22 23" fill="none" xmlns="http://www.w3.org/2000/svg">
    <path d="M16 9.5H18C20 9.5 21 8.5 21 6.5V4.5C21 2.5 20 1.5 18 1.5H16C14 1.5 13 2.5 13 4.5V6.5C13 8.5 14 9.5 16 9.5Z" stroke="#929292" stroke-width="1.5" stroke-miterlimit="10" stroke-linecap="round" stroke-linejoin="round"/>
    <path d="M4 21.5H6C8 21.5 9 20.5 9 18.5V16.5C9 14.5 8 13.5 6 13.5H4C2 13.5 1 14.5 1 16.5V18.5C1 20.5 2 21.5 4 21.5Z" stroke="#929292" stroke-width="1.5" stroke-miterlimit="10" stroke-linecap="round" stroke-linejoin="round"/>
    <path d="M5 9.5C7.20914 9.5 9 7.70914 9 5.5C9 3.29086 7.20914 1.5 5 1.5C2.79086 1.5 1 3.29086 1 5.5C1 7.70914 2.79086 9.5 5 9.5Z" stroke="#929292" stroke-width="1.5" stroke-miterlimit="10" stroke-linecap="round" stroke-linejoin="round"/>
    <path d="M17 21.5C19.2091 21.5 21 19.7091 21 17.5C21 15.2909 19.2091 13.5 17 13.5C14.7909 13.5 13 15.2909 13 17.5C13 19.7091 14.7909 21.5 17 21.5Z" stroke="#929292" stroke-width="1.5" stroke-miterlimit="10" stroke-linecap="round" stroke-linejoin="round"/>
</svg>
