<svg width="20" height="21" viewBox="0 0 20 21" fill="none" xmlns="http://www.w3.org/2000/svg">
    <path d="M14.7695 1.25H16.6695C17.6337 1.25 18.2467 1.50289 18.6216 1.87783C18.9966 2.25277 19.2495 2.8658 19.2495 3.83V5.73C19.2495 6.6942 18.9966 7.30723 18.6216 7.68217C18.2467 8.05711 17.6337 8.31 16.6695 8.31H14.7695C13.8053 8.31 13.1922 8.05711 12.8173 7.68217C12.4423 7.30723 12.1895 6.6942 12.1895 5.73V3.83C12.1895 2.8658 12.4423 2.25277 12.8173 1.87783C13.1922 1.50289 13.8053 1.25 14.7695 1.25Z" fill="#388D4D" stroke="#388D4D" stroke-width="1.5"/>
    <path d="M7.81001 15.2668H7.81V15.2702V17.1702C7.81 18.1344 7.55711 18.7474 7.18217 19.1223C6.80723 19.4973 6.1942 19.7502 5.23 19.7502H3.33C2.36581 19.7502 1.7532 19.4973 1.37842 19.1217C1.00336 18.7458 0.75 18.1303 0.75 17.1602V15.2602C0.75 14.296 1.00287 13.6834 1.37849 13.3086C1.75438 12.9335 2.36992 12.6802 3.34 12.6802H5.24C6.20446 12.6802 6.8165 12.9332 7.18974 13.3081C7.56295 13.6829 7.81444 14.2973 7.81001 15.2668Z" fill="#388D4D" stroke="#388D4D" stroke-width="1.5"/>
    <path d="M7.83 4.79C7.83 6.74509 6.24509 8.33 4.29 8.33C2.33491 8.33 0.75 6.74509 0.75 4.79C0.75 2.83491 2.33491 1.25 4.29 1.25C6.24509 1.25 7.83 2.83491 7.83 4.79Z" fill="#388D4D" stroke="#388D4D" stroke-width="1.5"/>
    <path d="M19.2499 16.2099C19.2499 18.165 17.665 19.7499 15.7099 19.7499C13.7548 19.7499 12.1699 18.165 12.1699 16.2099C12.1699 14.2548 13.7548 12.6699 15.7099 12.6699C17.665 12.6699 19.2499 14.2548 19.2499 16.2099Z" fill="#388D4D" stroke="#388D4D" stroke-width="1.5"/>
</svg>
