<svg width="18" height="22" viewBox="0 0 18 22" fill="none" xmlns="http://www.w3.org/2000/svg">
    <path d="M5.75 3V1.5C5.75 1.09 5.41 0.75 5 0.75C4.59 0.75 4.25 1.09 4.25 1.5V3.06C4.5 3.03 4.73 3 5 3H5.75Z" fill="#388D4D"/>
    <path d="M13.75 3.06V1.5C13.75 1.09 13.41 0.75 13 0.75C12.59 0.75 12.25 1.09 12.25 1.5V3H13C13.27 3 13.5 3.03 13.75 3.06Z" fill="#388D4D"/>
    <path d="M13.75 3.06V4.5C13.75 4.91 13.41 5.25 13 5.25C12.59 5.25 12.25 4.91 12.25 4.5V3H5.75V4.5C5.75 4.91 5.41 5.25 5 5.25C4.59 5.25 4.25 4.91 4.25 4.5V3.06C1.3 3.33 0 5.23 0 8V16.5C0 19.5 1.5 21.5 5 21.5H13C16.5 21.5 18 19.5 18 16.5V8C18 5.23 16.7 3.33 13.75 3.06ZM9 16.25H5C4.59 16.25 4.25 15.91 4.25 15.5C4.25 15.09 4.59 14.75 5 14.75H9C9.41 14.75 9.75 15.09 9.75 15.5C9.75 15.91 9.41 16.25 9 16.25ZM13 11.25H5C4.59 11.25 4.25 10.91 4.25 10.5C4.25 10.09 4.59 9.75 5 9.75H13C13.41 9.75 13.75 10.09 13.75 10.5C13.75 10.91 13.41 11.25 13 11.25Z" fill="#388D4D"/>
</svg>
