<svg width="20" height="17" viewBox="0 0 20 17" fill="none" xmlns="http://www.w3.org/2000/svg">
    <path d="M15.6276 8.61791L15.6277 8.61791L15.6268 8.60909C15.5894 8.21638 15.7381 7.8466 16.0041 7.58688L16.0109 7.58023L16.0176 7.57341C16.2454 7.33942 16.5612 7.2002 16.9202 7.2002H18.983C19.1446 7.21062 19.2502 7.33703 19.2502 7.4702V9.5302C19.2502 9.66336 19.1446 9.78977 18.983 9.8002H17.0402C16.2911 9.8002 15.6805 9.2529 15.6276 8.61791Z" fill="#388D4D" stroke="#388D4D" stroke-width="1.5"/>
    <path d="M12.6328 8.86466L12.6329 8.86568C12.8286 11.0923 14.771 12.8 17.04 12.8H18.1892C18.0385 13.831 17.5922 14.6535 16.9451 15.2322C16.2379 15.8645 15.2409 16.25 14 16.25H5C2.65421 16.25 0.75 14.3458 0.75 12V5C0.75 3.79287 1.11197 2.81761 1.70955 2.11651C2.30559 1.41721 3.17606 0.943122 4.28339 0.804163L4.29373 0.802865L4.30404 0.801279C4.52398 0.767443 4.75575 0.75 5 0.75H14C14.2445 0.75 14.4468 0.759811 14.6267 0.789795L14.6447 0.792788L14.6627 0.794905C16.6004 1.02192 17.9077 2.28017 18.1891 4.2H16.92C15.7692 4.2 14.6855 4.64343 13.8991 5.45015C12.9819 6.34769 12.5238 7.60563 12.6328 8.86466ZM5 7H11C11.8242 7 12.5 6.32421 12.5 5.5C12.5 4.67579 11.8242 4 11 4H5C4.17579 4 3.5 4.67579 3.5 5.5C3.5 6.32421 4.17579 7 5 7Z" fill="#388D4D" stroke="#388D4D" stroke-width="1.5"/>
</svg>
