<svg width="24" height="24" viewBox="0 0 24 24" fill="none" xmlns="http://www.w3.org/2000/svg">
    <mask id="path-1-inside-1_2136_4207" fill="white">
        <path d="M13 9.75H7C6.59 9.75 6.25 9.41 6.25 9C6.25 8.59 6.59 8.25 7 8.25H13C13.41 8.25 13.75 8.59 13.75 9C13.75 9.41 13.41 9.75 13 9.75Z"/>
    </mask>
    <path d="M13 9.75H7C6.59 9.75 6.25 9.41 6.25 9C6.25 8.59 6.59 8.25 7 8.25H13C13.41 8.25 13.75 8.59 13.75 9C13.75 9.41 13.41 9.75 13 9.75Z" fill="#929292"/>
    <path d="M13 8.25H7V11.25H13V8.25ZM7 8.25C7.41843 8.25 7.75 8.58157 7.75 9H4.75C4.75 10.2384 5.76157 11.25 7 11.25V8.25ZM7.75 9C7.75 9.41843 7.41843 9.75 7 9.75V6.75C5.76157 6.75 4.75 7.76157 4.75 9H7.75ZM7 9.75H13V6.75H7V9.75ZM13 9.75C12.5816 9.75 12.25 9.41843 12.25 9H15.25C15.25 7.76157 14.2384 6.75 13 6.75V9.75ZM12.25 9C12.25 8.58157 12.5816 8.25 13 8.25V11.25C14.2384 11.25 15.25 10.2384 15.25 9H12.25Z" fill="#929292" mask="url(#path-1-inside-1_2136_4207)"/>
    <path d="M21.8118 13.6217C21.9305 13.4548 21.9999 13.2506 21.9999 13.0302C21.9999 13.2429 21.9315 13.4502 21.8118 13.6217ZM21.8118 13.6217C21.635 13.8749 21.3461 14.0502 20.9999 14.0502H21.0167C21.3475 14.0367 21.6346 13.8706 21.8118 13.6217ZM16.8773 12.1779L16.8774 12.1779L16.8765 12.1682C16.8186 11.5679 17.0338 10.9796 17.4758 10.545L17.4833 10.5376L17.4905 10.53C17.8405 10.1661 18.351 9.9502 18.9099 9.9502H18.9199C18.3861 9.9502 17.8698 10.149 17.4887 10.5406C17.0486 10.9714 16.8221 11.5676 16.8829 12.1778C16.9734 13.2884 18.0003 14.0502 19.0399 14.0502C17.8881 14.0502 16.9624 13.1982 16.8773 12.1779ZM21.0561 9.95489C21.3328 9.98196 21.5687 10.1057 21.7355 10.2877C21.5542 10.0946 21.3026 9.97986 21.0561 9.95489Z" fill="#929292" stroke="#929292" stroke-width="1.5"/>
    <path d="M3.13925 5.1306C3.55516 4.64321 4.08133 4.24702 4.70661 3.96902C4.09029 4.24582 3.5561 4.64316 3.12708 5.15098C2.38197 6.03296 2 7.19334 2 8.5C2 7.11648 2.42487 5.96775 3.13925 5.1306ZM19.8583 5.12851C19.2534 4.41869 18.4425 3.92723 17.4897 3.68233C18.4658 3.92601 19.2631 4.42462 19.8473 5.10487C20.5682 5.94436 21 7.10236 21 8.5C21 7.1825 20.6125 6.01346 19.8583 5.12851ZM21 14.05H20.25H19.04C17.8882 14.05 16.9624 13.1981 16.8774 12.1777L16.8775 12.1777L16.8765 12.1672C16.8216 11.6052 17.0142 11.0406 17.407 10.6243C17.015 11.0487 16.8388 11.604 16.8822 12.1578C16.9675 13.2738 17.9974 14.04 19.04 14.04H21V14.05ZM7 20.5C5.45181 20.5 4.21411 19.9834 3.36533 19.1347C2.51655 18.2859 2 17.0482 2 15.5C2 16.9548 2.47413 18.2198 3.37717 19.1228C4.28021 20.0259 5.54516 20.5 7 20.5Z" fill="#929292" stroke="#929292" stroke-width="1.5"/>
</svg>
