<svg width="380" height="200" viewBox="0 0 380 200" fill="none" xmlns="http://www.w3.org/2000/svg">
    <g clip-path="url(#clip0_2193_5470)">
        <rect width="380" height="200" rx="8" fill="url(#paint0_linear_2193_5470)"/>
        <g opacity="0.4" clip-path="url(#clip1_2193_5470)">
            <path d="M284.828 23.221L288.49 15.597L280.792 21.427L278.475 15L277.892 22.305L269.49 21.915L275.485 25.986L269 30.694L277.728 29.723L279.297 37.346L282.557 29.98L288.581 34.577L284.799 26.871L291.833 25.699L284.828 23.221Z" stroke="white" stroke-miterlimit="10" stroke-linecap="round" stroke-linejoin="round"/>
            <path d="M34.828 23.221L38.49 15.597L30.792 21.427L28.475 15L27.892 22.305L19.49 21.915L25.485 25.986L19 30.694L27.728 29.723L29.297 37.346L32.557 29.98L38.581 34.577L34.799 26.871L41.833 25.699L34.828 23.221Z" stroke="white" stroke-miterlimit="10" stroke-linecap="round" stroke-linejoin="round"/>
            <path d="M120.828 48.221L124.49 40.597L116.792 46.427L114.475 40L113.892 47.305L105.49 46.915L111.485 50.986L105 55.694L113.728 54.723L115.297 62.346L118.557 54.98L124.581 59.577L120.799 51.871L127.833 50.699L120.828 48.221Z" stroke="white" stroke-miterlimit="10" stroke-linecap="round" stroke-linejoin="round"/>
            <path d="M188.708 159.121L195.748 159.232L188.842 155.556L194.627 152.356L187.751 153.029L188.165 145L184.388 152.431L179.52 147.972L181.249 154.972L174 156.542L181.324 159.083L177.812 166.033L185.061 160.503L188.723 167.603L188.708 159.121Z" fill="white"/>
            <path d="M138.708 14.121L145.748 14.232L138.842 10.556L144.627 7.356L137.751 8.02901L138.165 0L134.388 7.431L129.52 2.972L131.249 9.972L124 11.542L131.324 14.083L127.812 21.033L135.061 15.503L138.723 22.603L138.708 14.121Z" fill="white"/>
            <path d="M31.708 134.121L38.748 134.232L31.842 130.556L37.627 127.356L30.751 128.029L31.165 120L27.388 127.431L22.52 122.972L24.249 129.972L17 131.542L24.324 134.083L20.812 141.033L28.061 135.503L31.723 142.603L31.708 134.121Z" fill="white"/>
            <path d="M141.708 124.121L148.748 124.232L141.842 120.556L147.627 117.356L140.751 118.029L141.165 110L137.388 117.431L132.52 112.972L134.249 119.972L127 121.542L134.324 124.083L130.812 131.033L138.061 125.503L141.723 132.603L141.708 124.121Z" fill="white"/>
            <path d="M292.708 84.121L299.748 84.232L292.842 80.556L298.627 77.356L291.751 78.029L292.165 70L288.388 77.431L283.52 72.972L285.249 79.972L278 81.542L285.324 84.083L281.812 91.033L289.061 85.503L292.723 92.603L292.708 84.121Z" fill="white"/>
            <path d="M257.261 193.275C254.511 195.102 251.761 196.929 249.011 198.756C248.607 195.757 248.203 192.757 247.799 189.758C247.748 189.381 247.324 189.194 247.01 189.407C243.935 191.49 240.713 193.335 237.369 194.948C237.598 192.449 237.668 189.94 237.561 187.432C237.544 187.029 237.069 186.899 236.772 187.081C233.588 189.029 230.404 190.976 227.22 192.923C226.67 193.26 227.258 194.069 227.804 193.735C230.732 191.944 233.659 190.154 236.587 188.363C236.654 190.817 236.564 193.269 236.299 195.712C236.261 196.061 236.614 196.422 236.973 196.254C240.42 194.637 243.739 192.763 246.912 190.661C247.316 193.664 247.721 196.666 248.126 199.669C248.177 200.049 248.6 200.23 248.915 200.02C251.892 198.042 254.868 196.064 257.845 194.086C258.382 193.73 257.796 192.919 257.261 193.275Z" fill="white"/>
            <path d="M77.058 94.1214C75.68 95.4424 74.176 96.6304 72.573 97.6664C71.759 98.1924 70.92 98.6814 70.057 99.1234C69.644 99.3344 69.229 99.5484 68.801 99.7284C68.172 99.9924 67.981 99.4974 67.731 99.0064C67.29 98.1384 66.903 97.2424 66.567 96.3284C66.28 95.5464 66.134 94.6444 65.72 93.9174C64.662 92.0594 62.791 94.2434 61.804 95.0544C60.189 96.3804 58.575 97.7064 56.96 99.0324C56.763 96.9394 56.017 94.9344 54.798 93.2064C54.645 92.9894 54.315 92.9304 54.1 93.0924C51.8 94.8204 49.5 96.5494 47.2 98.2774C46.685 98.6644 47.268 99.4764 47.783 99.0894C49.943 97.4664 52.104 95.8424 54.264 94.2194C55.391 95.9824 55.99 97.9934 56.018 100.098C56.023 100.467 56.532 100.675 56.807 100.449L61.819 96.3324C62.619 95.6754 63.398 94.9074 64.258 94.3314C64.545 94.1394 64.646 94.0994 64.829 94.3654C64.922 94.5014 64.977 94.6754 65.029 94.8304C65.189 95.3054 65.317 95.7894 65.481 96.2624C65.8 97.1824 66.173 98.0834 66.597 98.9604C66.916 99.6194 67.258 100.579 68.042 100.803C68.809 101.022 69.663 100.436 70.317 100.104C71.161 99.6764 71.987 99.2124 72.789 98.7104C74.606 97.5724 76.282 96.2384 77.829 94.7554C78.295 94.3114 77.517 93.6814 77.058 94.1214Z" fill="white"/>
            <path d="M247.138 68.8455C244.566 70.8295 241.871 72.6425 239.072 74.2905C238.332 72.1335 237.593 69.9765 236.853 67.8185C236.753 67.5275 236.34 67.3905 236.094 67.5915C233.574 69.6535 230.969 71.6075 228.3 73.4705C227.824 71.3445 227.13 69.2795 226.186 67.3115C226.035 66.9965 225.723 66.9195 225.427 67.0845C221.981 69.0085 218.858 71.4435 216.133 74.2985C215.688 74.7655 216.464 75.3965 216.906 74.9335C219.43 72.2885 222.33 70.0425 225.492 68.2115C226.389 70.1835 227.069 72.2395 227.485 74.3695C227.556 74.7345 227.947 74.9465 228.274 74.7205C230.974 72.8605 233.593 70.8875 236.141 68.8245C236.871 70.9545 237.602 73.0845 238.332 75.2145C238.445 75.5445 238.825 75.5945 239.09 75.4415C242.093 73.7075 244.975 71.7755 247.72 69.6575C248.231 69.2655 247.648 68.4525 247.138 68.8455Z" fill="white"/>
            <path d="M373.138 68.8455C370.566 70.8295 367.871 72.6425 365.072 74.2905C364.332 72.1335 363.593 69.9765 362.853 67.8185C362.753 67.5275 362.34 67.3905 362.094 67.5915C359.574 69.6535 356.969 71.6075 354.3 73.4705C353.824 71.3445 353.13 69.2795 352.186 67.3115C352.035 66.9965 351.723 66.9195 351.427 67.0845C347.981 69.0085 344.858 71.4435 342.133 74.2985C341.688 74.7655 342.464 75.3965 342.906 74.9335C345.43 72.2885 348.33 70.0425 351.492 68.2115C352.389 70.1835 353.069 72.2395 353.485 74.3695C353.556 74.7345 353.947 74.9465 354.274 74.7205C356.974 72.8605 359.593 70.8875 362.141 68.8245C362.871 70.9545 363.602 73.0845 364.332 75.2145C364.445 75.5445 364.825 75.5945 365.09 75.4415C368.093 73.7075 370.975 71.7755 373.72 69.6575C374.231 69.2655 373.648 68.4525 373.138 68.8455Z" fill="white"/>
            <path d="M263.138 128.846C260.566 130.83 257.871 132.643 255.072 134.291C254.332 132.134 253.593 129.977 252.853 127.819C252.753 127.528 252.34 127.391 252.094 127.592C249.574 129.654 246.969 131.608 244.3 133.471C243.824 131.345 243.13 129.28 242.186 127.312C242.035 126.997 241.723 126.92 241.427 127.085C237.981 129.009 234.858 131.444 232.133 134.299C231.688 134.766 232.464 135.397 232.906 134.934C235.43 132.289 238.33 130.043 241.492 128.212C242.389 130.184 243.069 132.24 243.485 134.37C243.556 134.735 243.947 134.947 244.274 134.721C246.974 132.861 249.593 130.888 252.141 128.825C252.871 130.955 253.602 133.085 254.332 135.215C254.445 135.545 254.825 135.595 255.09 135.442C258.093 133.708 260.975 131.776 263.72 129.658C264.231 129.266 263.648 128.453 263.138 128.846Z" fill="white"/>
            <path d="M114.916 151.113C111.825 153.685 108.735 156.257 105.644 158.828C104.663 157.755 104.262 156.301 103.857 154.927C103.633 154.166 103.408 153.401 103.09 152.673C102.817 152.049 102.394 151.287 101.582 151.474C101.198 151.563 100.878 151.86 100.572 152.09C100.143 152.413 99.7127 152.736 99.2837 153.058C98.4247 153.704 97.5667 154.349 96.7077 154.995C95.1517 156.164 93.5967 157.334 92.0407 158.503C91.5017 156.357 90.9467 154.215 90.3627 152.08C90.2747 151.758 89.8477 151.687 89.6047 151.853C86.5497 153.936 83.7177 156.32 81.1357 158.966C80.6857 159.427 81.4617 160.058 81.9087 159.601C84.2617 157.19 86.8427 155.021 89.5997 153.088C90.1807 155.229 90.7457 157.375 91.2817 159.528C91.3597 159.843 91.8067 159.93 92.0407 159.755C93.6257 158.563 95.2117 157.371 96.7967 156.18C97.5897 155.584 98.3817 154.988 99.1747 154.392C99.5707 154.094 99.9677 153.796 100.364 153.498C100.744 153.213 101.131 152.819 101.553 152.604C101.807 152.475 101.805 152.45 102.007 152.702C102.11 152.831 102.167 153.048 102.229 153.197C102.369 153.534 102.49 153.879 102.603 154.227C102.831 154.927 103.019 155.639 103.242 156.34C103.666 157.674 104.24 158.936 105.291 159.893C105.444 160.032 105.738 160.048 105.9 159.913C109.1 157.25 112.3 154.588 115.5 151.925C115.992 151.515 115.411 150.701 114.916 151.113Z" fill="white"/>
            <path d="M368.715 163.662C369.045 163.336 369.369 162.913 369.768 162.672C370.348 162.322 370.707 163.078 370.982 163.482C371.542 164.302 372.07 165.142 372.576 165.995C372.789 165.713 372.998 165.427 373.215 165.148C372.839 164.518 372.46 163.89 372.052 163.279C371.625 162.64 371.163 161.735 370.334 161.572C369.47 161.402 368.845 162.135 368.294 162.677C367.53 163.431 366.766 164.184 366.002 164.937C365.591 165.343 365.179 165.748 364.768 166.154C364.587 166.332 363.807 167.297 363.591 167.263C363.411 167.234 363.081 166.168 362.995 165.975C362.762 165.457 362.53 164.94 362.297 164.422C361.832 163.387 361.367 162.352 360.902 161.316C360.765 161.012 360.425 160.909 360.143 161.089C357.17 162.994 354.198 164.898 351.225 166.803C350.732 164.978 350.159 163.177 349.48 161.412C349.363 161.106 348.986 161.003 348.722 161.185C346.37 162.803 344.175 164.624 342.14 166.625C341.681 167.076 342.458 167.707 342.913 167.26C344.727 165.476 346.689 163.856 348.764 162.387C349.419 164.151 349.996 165.941 350.466 167.763C350.551 168.094 350.982 168.146 351.225 167.99C354.221 166.071 357.216 164.151 360.212 162.232C360.995 164.022 361.724 165.869 362.633 167.591C362.938 168.17 363.531 168.526 364.145 168.127C364.534 167.874 364.864 167.459 365.19 167.137C365.572 166.76 365.954 166.384 366.336 166.007C367.128 165.227 367.921 164.444 368.715 163.662Z" fill="white"/>
        </g>
        <path d="M199.132 130.505C200.34 129.465 201.57 128.41 203.025 127.757C204.479 127.104 206.216 126.897 207.655 127.583C208.839 128.147 209.692 129.24 210.836 129.883C213.338 131.289 216.659 130.136 218.59 128.01C219.864 126.607 220.694 124.858 221.881 123.381C224.154 120.555 227.601 118.903 231.099 117.939C231.285 119.611 231.471 121.283 231.657 122.954C229.982 122.07 227.851 122.652 226.343 123.801C224.836 124.949 223.782 126.574 222.613 128.064C220.947 130.188 218.875 132.162 216.271 132.877C213.618 133.605 210.737 132.914 208.329 131.59C206.29 130.468 203.979 128.848 201.868 129.833C200.69 130.382 199.991 131.624 199.599 132.861C198.895 135.078 199.297 138.068 201.474 138.89C202.776 139.381 204.216 138.904 205.558 138.533C208.112 137.825 211.452 137.819 212.729 140.137C213.804 142.092 212.706 144.533 211.331 146.294C209.387 148.785 206.855 150.816 204 152.175C203.423 151.217 202.847 150.261 202.27 149.304C205.261 148.259 207.882 146.19 209.59 143.525C210.14 142.667 210.567 141.451 209.868 140.71C209.579 140.402 209.154 140.26 208.738 140.181C205.512 139.564 201.998 141.993 199.044 140.561C196.657 139.404 195.99 136.086 197.03 133.647C198.069 131.207 200.341 129.523 202.658 128.229" fill="#2D713E"/>
        <mask id="mask0_2193_5470" style="mask-type:luminance" maskUnits="userSpaceOnUse" x="196" y="117" width="36" height="36">
            <path d="M199.133 130.505C200.341 129.465 201.571 128.41 203.026 127.757C204.481 127.104 206.218 126.897 207.656 127.583C208.84 128.147 209.693 129.24 210.837 129.883C213.339 131.289 216.661 130.136 218.591 128.01C219.866 126.607 220.695 124.858 221.882 123.381C224.155 120.555 227.603 118.903 231.1 117.939C231.286 119.611 231.472 121.283 231.658 122.954C229.984 122.07 227.852 122.652 226.345 123.801C224.837 124.949 223.783 126.574 222.614 128.064C220.948 130.188 218.876 132.162 216.272 132.877C213.619 133.605 210.739 132.914 208.331 131.59C206.291 130.468 203.98 128.848 201.869 129.833C200.691 130.382 199.992 131.624 199.6 132.861C198.896 135.078 199.299 138.068 201.475 138.89C202.777 139.381 204.218 138.904 205.559 138.533C208.114 137.825 211.454 137.819 212.73 140.137C213.805 142.092 212.707 144.533 211.333 146.294C209.388 148.785 206.856 150.816 204.001 152.175C203.425 151.217 202.848 150.261 202.272 149.304C205.262 148.259 207.883 146.19 209.591 143.525C210.141 142.667 210.568 141.451 209.869 140.71C209.58 140.402 209.155 140.26 208.739 140.181C205.513 139.564 201.999 141.993 199.045 140.561C196.659 139.404 195.991 136.086 197.031 133.647C198.07 131.207 200.342 129.523 202.66 128.229" fill="white"/>
        </mask>
        <g mask="url(#mask0_2193_5470)">
            <path d="M194.135 133.79L200.864 133.258L207.642 126.542L204.298 125.351L194.135 133.79Z" fill="#2D713E"/>
        </g>
        <mask id="mask1_2193_5470" style="mask-type:luminance" maskUnits="userSpaceOnUse" x="196" y="117" width="36" height="36">
            <path d="M199.133 130.505C200.341 129.465 201.571 128.41 203.026 127.757C204.481 127.104 206.218 126.897 207.656 127.583C208.84 128.147 209.693 129.24 210.837 129.883C213.339 131.289 216.661 130.136 218.591 128.01C219.866 126.607 220.695 124.858 221.882 123.381C224.155 120.555 227.603 118.903 231.1 117.939C231.286 119.611 231.472 121.283 231.658 122.954C229.984 122.07 227.852 122.652 226.345 123.801C224.837 124.949 223.783 126.574 222.614 128.064C220.948 130.188 218.876 132.162 216.272 132.877C213.619 133.605 210.739 132.914 208.331 131.59C206.291 130.468 203.98 128.848 201.869 129.833C200.691 130.382 199.992 131.624 199.6 132.861C198.896 135.078 199.299 138.068 201.475 138.89C202.777 139.381 204.218 138.904 205.559 138.533C208.114 137.825 211.454 137.819 212.73 140.137C213.805 142.092 212.707 144.533 211.333 146.294C209.388 148.785 206.856 150.816 204.001 152.175C203.425 151.217 202.848 150.261 202.272 149.304C205.262 148.259 207.883 146.19 209.591 143.525C210.141 142.667 210.568 141.451 209.869 140.71C209.58 140.402 209.155 140.26 208.739 140.181C205.513 139.564 201.999 141.993 199.045 140.561C196.659 139.404 195.991 136.086 197.031 133.647C198.07 131.207 200.342 129.523 202.66 128.229" fill="white"/>
        </mask>
        <g mask="url(#mask1_2193_5470)">
            <path d="M194.757 136.736L200.028 134.036L200.813 135.147L195.707 140.31L199.068 142.055L201.635 137.365L203.144 137.647L203.103 142.335L205.599 142.251L206.64 136.726L208.807 136.764L207.107 142.534L213.018 139.035L214.498 141.01L208.42 142.795L207.469 144.268L213.585 145.366L211.716 147.647L206.07 144.787L203.844 146.359L208.856 151.043L206.301 152.737L200.98 146.205L194.173 140.971L194.757 136.736Z" fill="#2D713E"/>
        </g>
        <mask id="mask2_2193_5470" style="mask-type:luminance" maskUnits="userSpaceOnUse" x="196" y="117" width="36" height="36">
            <path d="M199.133 130.505C200.341 129.465 201.571 128.41 203.026 127.757C204.481 127.104 206.218 126.897 207.656 127.583C208.84 128.147 209.693 129.24 210.837 129.883C213.339 131.289 216.661 130.136 218.591 128.01C219.866 126.607 220.695 124.858 221.882 123.381C224.155 120.555 227.603 118.903 231.1 117.939C231.286 119.611 231.472 121.283 231.658 122.954C229.984 122.07 227.852 122.652 226.345 123.801C224.837 124.949 223.783 126.574 222.614 128.064C220.948 130.188 218.876 132.162 216.272 132.877C213.619 133.605 210.739 132.914 208.331 131.59C206.291 130.468 203.98 128.848 201.869 129.833C200.691 130.382 199.992 131.624 199.6 132.861C198.896 135.078 199.299 138.068 201.475 138.89C202.777 139.381 204.218 138.904 205.559 138.533C208.114 137.825 211.454 137.819 212.73 140.137C213.805 142.092 212.707 144.533 211.333 146.294C209.388 148.785 206.856 150.816 204.001 152.175C203.425 151.217 202.848 150.261 202.272 149.304C205.262 148.259 207.883 146.19 209.591 143.525C210.141 142.667 210.568 141.451 209.869 140.71C209.58 140.402 209.155 140.26 208.739 140.181C205.513 139.564 201.999 141.993 199.045 140.561C196.659 139.404 195.991 136.086 197.031 133.647C198.07 131.207 200.342 129.523 202.66 128.229" fill="white"/>
        </mask>
        <g mask="url(#mask2_2193_5470)">
            <path d="M208.616 127.393C208.287 127.515 204.211 131.922 204.211 131.922L205.953 132.585L210.731 127.544L212.197 128.215L210.644 133.37L213.228 134.281L213.693 128.969L215.525 128.104L218.449 133.468L219.951 132.724L216.949 126.641L218.848 124.442L223.418 129.197L224.699 127.601L220.263 122.703L223.553 119.708L226.945 125.834L228.448 125.09L226.878 117.822L219.822 120.25L208.616 127.393Z" fill="#2D713E"/>
        </g>
        <path d="M199.381 130.656C201.419 128.936 204.002 126.774 206.887 127.459C208.259 127.785 209.162 128.951 210.288 129.708C211.078 130.239 211.975 130.575 212.925 130.669C214.958 130.871 217.029 129.974 218.489 128.592C220.405 126.78 221.353 124.203 223.265 122.374C225.499 120.237 228.403 118.957 231.346 118.133C231.155 118.03 230.964 117.928 230.772 117.824C230.958 119.496 231.144 121.168 231.33 122.839C231.459 122.835 231.588 122.83 231.717 122.825C229.717 121.838 227.429 122.466 225.772 123.84C223.595 125.644 222.294 128.271 220.223 130.191C218.132 132.128 215.545 133.249 212.666 132.902C211.194 132.724 209.772 132.21 208.474 131.506C207.528 130.993 206.616 130.414 205.63 129.977C203.751 129.145 201.617 128.964 200.238 130.771C198.956 132.451 198.535 135.06 199.376 137.017C200.206 138.948 202.217 139.553 204.163 139.156C206.391 138.701 208.808 137.699 211.039 138.763C214.048 140.198 212.635 143.981 211.133 145.979C209.2 148.551 206.594 150.598 203.705 151.994C203.906 152.076 204.107 152.159 204.308 152.241C203.865 151.505 203.421 150.769 202.978 150.033C202.687 149.55 202.654 149.467 203.215 149.239C203.609 149.078 203.995 148.901 204.372 148.706C205.746 147.997 207.001 147.067 208.083 145.964C209.481 144.539 212.277 140.98 208.919 140.063C206.547 139.415 204.129 140.537 201.784 140.78C200.289 140.935 198.798 140.638 197.859 139.367C197.102 138.344 196.816 137.009 196.895 135.753C197.111 132.298 200.179 129.973 202.954 128.409C203.115 128.319 202.55 127.943 202.364 128.048C200.085 129.332 197.757 131.003 196.708 133.494C195.868 135.491 196.098 138.078 197.62 139.693C199.134 141.299 201.347 141.388 203.385 141.005C204.573 140.782 205.744 140.451 206.949 140.324C207.577 140.259 208.227 140.244 208.85 140.368C210.181 140.633 210.011 141.901 209.576 142.821C208.881 144.289 207.623 145.598 206.387 146.622C205.074 147.711 203.581 148.547 201.977 149.122C201.929 149.139 201.945 149.207 201.962 149.236C202.539 150.194 203.115 151.15 203.691 152.107C203.785 152.262 204.114 152.443 204.295 152.355C206.698 151.194 208.862 149.595 210.66 147.622C212.158 145.978 213.828 143.725 213.438 141.357C213.134 139.519 211.503 138.396 209.773 138.058C208.834 137.875 207.861 137.884 206.915 138.009C205.77 138.16 204.694 138.568 203.565 138.784C202.135 139.058 200.799 138.774 200.106 137.39C199.578 136.339 199.513 135.066 199.702 133.921C200.092 131.565 201.772 129.188 204.435 129.851C205.601 130.142 206.651 130.804 207.685 131.39C208.669 131.948 209.678 132.446 210.758 132.792C212.978 133.504 215.389 133.618 217.572 132.708C220.408 131.525 222.279 129.063 224.087 126.702C225.725 124.563 228.591 121.598 231.597 123.08C231.647 123.105 232.003 123.237 231.984 123.065C231.798 121.393 231.611 119.721 231.425 118.05C231.405 117.872 231.009 117.698 230.851 117.742C228.308 118.453 225.815 119.478 223.718 121.113C222.733 121.881 221.862 122.781 221.129 123.793C220.318 124.912 219.65 126.131 218.799 127.222C217.38 129.041 215.122 130.454 212.738 130.291C210.175 130.115 208.877 127.456 206.372 127.038C203.418 126.546 200.957 128.531 198.883 130.351C198.746 130.471 199.254 130.763 199.381 130.656Z" fill="#222221"/>
        <path d="M115.493 148.006C171.86 119.519 217.21 86.7118 239.605 63.9939C240.461 63.1253 241.312 62.1428 242.493 61.8341C243.716 61.5144 245.002 61.9505 246.159 62.4598C257.645 67.5152 264.692 81.0365 262.254 93.3419C219.271 115.29 179.534 143.577 144.735 177.001C144.099 177.612 143.437 178.242 142.603 178.528C141.78 178.81 140.88 178.726 140.022 178.59C133.065 177.494 126.827 173.208 122.649 167.546C118.471 161.885 116.247 154.945 115.525 147.946" fill="#FFF8E6"/>
        <mask id="mask3_2193_5470" style="mask-type:luminance" maskUnits="userSpaceOnUse" x="115" y="61" width="148" height="118">
            <path d="M115.491 148.009C171.859 119.522 217.208 86.7147 239.603 63.9968C240.46 63.1282 241.311 62.1457 242.491 61.837C243.715 61.5173 245 61.9534 246.157 62.4627C257.643 67.5181 264.69 81.0395 262.253 93.3448C219.269 115.292 179.532 143.58 144.733 177.004C144.097 177.615 143.435 178.245 142.601 178.531C141.778 178.813 140.878 178.729 140.02 178.593C133.063 177.497 126.825 173.211 122.647 167.549C118.47 161.888 116.246 154.948 115.524 147.949" fill="white"/>
        </mask>
        <g mask="url(#mask3_2193_5470)">
            <path d="M125.719 145.793L129.75 148.435L137.014 145.091C137.014 145.091 136.819 151.039 134.086 152.488C134.086 152.488 140.573 157.049 143.084 162.649L260.303 76.5548L249.832 58.8859C249.832 58.8859 217.043 94.5425 191.788 109.342C166.531 124.142 125.719 145.793 125.719 145.793Z" fill="#F2D2A5"/>
        </g>
        <mask id="mask4_2193_5470" style="mask-type:luminance" maskUnits="userSpaceOnUse" x="115" y="61" width="148" height="118">
            <path d="M115.491 148.009C171.859 119.522 217.208 86.7147 239.603 63.9968C240.46 63.1282 241.311 62.1457 242.491 61.837C243.715 61.5173 245 61.9534 246.157 62.4627C257.643 67.5181 264.69 81.0395 262.253 93.3448C219.269 115.292 179.532 143.58 144.733 177.004C144.097 177.615 143.435 178.245 142.601 178.531C141.778 178.813 140.878 178.729 140.02 178.593C133.063 177.497 126.825 173.211 122.647 167.549C118.47 161.888 116.246 154.948 115.524 147.949" fill="white"/>
        </mask>
        <g mask="url(#mask4_2193_5470)">
            <path d="M144.103 164.231L266.227 77.8428L266.338 85.202L201.039 127.086L142.268 173.4L139.502 165.935L144.103 164.231Z" fill="#FFFCF9"/>
        </g>
        <path d="M115.656 148.262C129.505 141.32 143.092 133.845 156.405 125.925C168.419 118.778 180.211 111.253 191.702 103.292C201.507 96.4976 211.106 89.3895 220.336 81.8314C224.223 78.6478 228.046 75.3834 231.769 72.0081C233.447 70.486 235.105 68.941 236.736 67.3678C237.492 66.6382 238.243 65.9028 238.987 65.1607C240 64.1499 241.042 62.6691 242.433 62.2037C244.095 61.6472 246.045 62.7708 247.479 63.5274C248.755 64.2012 249.969 64.9862 251.112 65.8658C253.49 67.6946 255.552 69.9149 257.234 72.3957C260.529 77.2572 262.411 83.146 262.262 89.0386C262.225 90.4811 262.064 91.9148 261.79 93.3318C261.884 93.2322 261.978 93.1327 262.071 93.0339C250.749 98.8193 239.647 105.034 228.803 111.671C217.993 118.288 207.437 125.32 197.167 132.746C186.866 140.194 176.855 148.039 167.157 156.254C162.323 160.35 157.567 164.539 152.894 168.817C150.558 170.957 148.242 173.119 145.947 175.303C144.856 176.342 143.6 178.037 142.04 178.312C140.704 178.547 139.152 178.095 137.863 177.752C126.214 174.661 118.981 163.702 116.692 152.431C116.384 150.916 116.159 149.387 115.996 147.85C115.948 147.4 115.012 147.568 115.061 148.029C115.805 155.033 118.002 162.005 122.218 167.715C125.67 172.39 130.481 176.137 136.024 177.981C138.537 178.818 141.841 179.867 144.141 178.042C145.466 176.991 146.638 175.708 147.866 174.546C149.176 173.307 150.493 172.076 151.817 170.851C157.076 165.986 162.442 161.236 167.909 156.604C178.964 147.239 190.435 138.364 202.271 130.007C213.977 121.74 226.044 113.982 238.424 106.762C244.706 103.098 251.069 99.5718 257.509 96.191C259.063 95.3753 260.623 94.5713 262.183 93.769C262.799 93.4527 262.774 93.139 262.882 92.4622C263 91.7325 263.085 90.9975 263.138 90.26C263.332 87.5802 263.116 84.874 262.528 82.2545C261.355 77.0289 258.74 72.143 255.052 68.2599C253.225 66.336 251.126 64.674 248.823 63.3537C246.549 62.0505 243.53 60.4251 241.052 62.1352C240.015 62.8505 239.184 63.8697 238.297 64.7561C237.594 65.4592 236.884 66.1558 236.169 66.8472C234.652 68.3142 233.111 69.7574 231.552 71.1799C228.07 74.3582 224.496 77.4373 220.861 80.4407C212.406 87.4264 203.628 94.0204 194.666 100.342C184.165 107.747 173.398 114.775 162.436 121.477C150.263 128.919 137.843 135.95 125.226 142.61C121.941 144.343 118.642 146.05 115.333 147.738C114.854 147.983 115.237 148.472 115.656 148.262Z" fill="#222221"/>
        <path d="M115.314 148.185C119.937 146.736 125.518 147.78 129.325 150.768C131.359 149.578 133.392 148.388 135.426 147.198C134.772 149.195 133.46 150.972 131.744 152.188C136.652 156.856 140.456 162.674 142.761 169.041C144.039 168.39 145.316 167.739 146.594 167.089C145.745 167.991 144.896 168.893 144.047 169.796C143.765 170.095 143.474 170.411 143.369 170.808C143.264 171.202 143.359 171.617 143.442 172.016C143.945 174.407 143.748 177.469 141.544 178.534C140.322 179.124 138.872 178.87 137.564 178.513C131.1 176.747 125.288 172.7 121.395 167.254C117.501 161.809 114.867 154.802 115.291 148.121" fill="#E9AD73"/>
        <mask id="mask5_2193_5470" style="mask-type:luminance" maskUnits="userSpaceOnUse" x="115" y="147" width="32" height="32">
            <path d="M115.317 148.185C119.94 146.736 125.521 147.78 129.328 150.768C131.362 149.578 133.395 148.389 135.429 147.199C134.775 149.196 133.463 150.973 131.747 152.189C136.655 156.856 140.459 162.675 142.764 169.041C144.042 168.391 145.319 167.74 146.597 167.089C145.748 167.991 144.899 168.894 144.05 169.796C143.768 170.095 143.477 170.412 143.371 170.809C143.267 171.203 143.361 171.618 143.445 172.016C143.948 174.407 143.75 177.469 141.547 178.534C140.325 179.125 138.875 178.87 137.567 178.513C131.103 176.747 125.291 172.701 121.397 167.255C117.504 161.809 114.869 154.803 115.294 148.121" fill="white"/>
        </mask>
        <g mask="url(#mask5_2193_5470)">
            <path d="M131.551 170.031C131.551 170.031 128.762 161.197 132.24 165.616L134.396 163.85C134.396 163.85 132.467 159.371 129.292 161.581C127.212 163.028 131.551 170.031 131.551 170.031Z" fill="#C58954"/>
        </g>
        <mask id="mask6_2193_5470" style="mask-type:luminance" maskUnits="userSpaceOnUse" x="115" y="147" width="32" height="32">
            <path d="M115.317 148.185C119.94 146.736 125.521 147.78 129.328 150.768C131.362 149.578 133.395 148.389 135.429 147.199C134.775 149.196 133.463 150.973 131.747 152.189C136.655 156.856 140.459 162.675 142.764 169.041C144.042 168.391 145.319 167.74 146.597 167.089C145.748 167.991 144.899 168.894 144.05 169.796C143.768 170.095 143.477 170.412 143.371 170.809C143.267 171.203 143.361 171.618 143.445 172.016C143.948 174.407 143.75 177.469 141.547 178.534C140.325 179.125 138.875 178.87 137.567 178.513C131.103 176.747 125.291 172.701 121.397 167.255C117.504 161.809 114.869 154.803 115.294 148.121" fill="white"/>
        </mask>
        <g mask="url(#mask6_2193_5470)">
            <path d="M134.922 164.43C134.922 164.43 133.432 160.411 130.451 160.21L129.537 161.274C129.537 161.274 131.154 159.949 134.297 165.097L134.922 164.43Z" fill="#F8E7D7"/>
        </g>
        <mask id="mask7_2193_5470" style="mask-type:luminance" maskUnits="userSpaceOnUse" x="115" y="147" width="32" height="32">
            <path d="M115.317 148.185C119.94 146.736 125.521 147.78 129.328 150.768C131.362 149.578 133.395 148.389 135.429 147.199C134.775 149.196 133.463 150.973 131.747 152.189C136.655 156.856 140.459 162.675 142.764 169.041C144.042 168.391 145.319 167.74 146.597 167.089C145.748 167.991 144.899 168.894 144.05 169.796C143.768 170.095 143.477 170.412 143.371 170.809C143.267 171.203 143.361 171.618 143.445 172.016C143.948 174.407 143.75 177.469 141.547 178.534C140.325 179.125 138.875 178.87 137.567 178.513C131.103 176.747 125.291 172.701 121.397 167.255C117.504 161.809 114.869 154.803 115.294 148.121" fill="white"/>
        </mask>
        <g mask="url(#mask7_2193_5470)">
            <path d="M122.929 162.97C122.929 162.97 118.106 152.568 122.549 150.438C126.992 148.308 136.475 160.563 136.475 160.563C136.475 160.563 142.962 169.902 138.744 172.51C138.744 172.51 140.593 166.971 135.73 160.646C130.867 154.321 125.675 150.247 123.161 151.565C120.645 152.885 122.929 162.97 122.929 162.97Z" fill="#F8E7D7"/>
        </g>
        <mask id="mask8_2193_5470" style="mask-type:luminance" maskUnits="userSpaceOnUse" x="115" y="147" width="32" height="32">
            <path d="M115.317 148.185C119.94 146.736 125.521 147.78 129.328 150.768C131.362 149.578 133.395 148.389 135.429 147.199C134.775 149.196 133.463 150.973 131.747 152.189C136.655 156.856 140.459 162.675 142.764 169.041C144.042 168.391 145.319 167.74 146.597 167.089C145.748 167.991 144.899 168.894 144.05 169.796C143.768 170.095 143.477 170.412 143.371 170.809C143.267 171.203 143.361 171.618 143.445 172.016C143.948 174.407 143.75 177.469 141.547 178.534C140.325 179.125 138.875 178.87 137.567 178.513C131.103 176.747 125.291 172.701 121.397 167.255C117.504 161.809 114.869 154.803 115.294 148.121" fill="white"/>
        </mask>
        <g mask="url(#mask8_2193_5470)">
            <path d="M139.253 170.313L142.563 167.536C142.563 167.536 142.099 171.345 137.984 172.816C137.984 172.816 139.762 172.264 139.253 170.313Z" fill="#F8E7D7"/>
        </g>
        <mask id="mask9_2193_5470" style="mask-type:luminance" maskUnits="userSpaceOnUse" x="115" y="147" width="32" height="32">
            <path d="M115.317 148.185C119.94 146.736 125.521 147.78 129.328 150.768C131.362 149.578 133.395 148.389 135.429 147.199C134.775 149.196 133.463 150.973 131.747 152.189C136.655 156.856 140.459 162.675 142.764 169.041C144.042 168.391 145.319 167.74 146.597 167.089C145.748 167.991 144.899 168.894 144.05 169.796C143.768 170.095 143.477 170.412 143.371 170.809C143.267 171.203 143.361 171.618 143.445 172.016C143.948 174.407 143.75 177.469 141.547 178.534C140.325 179.125 138.875 178.87 137.567 178.513C131.103 176.747 125.291 172.701 121.397 167.255C117.504 161.809 114.869 154.803 115.294 148.121" fill="white"/>
        </mask>
        <g mask="url(#mask9_2193_5470)">
            <path d="M126.914 169.814C126.914 169.814 136.859 178.609 142.435 168.03C148.01 157.45 149.715 170.943 149.715 170.943C149.715 170.943 144.436 179.439 140.261 178.635C136.086 177.831 130.235 173.808 126.914 169.814Z" fill="#C58954"/>
        </g>
        <mask id="mask10_2193_5470" style="mask-type:luminance" maskUnits="userSpaceOnUse" x="115" y="147" width="32" height="32">
            <path d="M115.317 148.185C119.94 146.736 125.521 147.78 129.328 150.768C131.362 149.578 133.395 148.389 135.429 147.199C134.775 149.196 133.463 150.973 131.747 152.189C136.655 156.856 140.459 162.675 142.764 169.041C144.042 168.391 145.319 167.74 146.597 167.089C145.748 167.991 144.899 168.894 144.05 169.796C143.768 170.095 143.477 170.412 143.371 170.809C143.267 171.203 143.361 171.618 143.445 172.016C143.948 174.407 143.75 177.469 141.547 178.534C140.325 179.125 138.875 178.87 137.567 178.513C131.103 176.747 125.291 172.701 121.397 167.255C117.504 161.809 114.869 154.803 115.294 148.121" fill="white"/>
        </mask>
        <g mask="url(#mask10_2193_5470)">
            <path d="M125.075 167.98C125.075 167.98 117.293 162.93 115.317 148.183L118.662 146.75C118.663 146.75 118.667 160.099 125.075 167.98Z" fill="#C58954"/>
        </g>
        <path d="M115.521 148.435C120.117 147.149 125.237 148.007 129.029 150.946C129.196 151.076 129.464 151.142 129.657 151.029C131.694 149.842 133.731 148.655 135.766 147.465C135.505 147.328 135.244 147.192 134.983 147.055C134.316 149.012 133.084 150.697 131.407 151.913C131.218 152.049 131.295 152.235 131.439 152.372C136.294 157.02 140.018 162.759 142.324 169.067C142.428 169.351 142.865 169.436 143.108 169.313C144.385 168.662 145.663 168.011 146.94 167.361C146.689 167.196 146.436 167.032 146.184 166.868C145.426 167.674 144.668 168.479 143.91 169.285C143.334 169.897 142.795 170.455 142.874 171.351C142.944 172.139 143.168 172.896 143.202 173.693C143.235 174.488 143.176 175.293 142.945 176.057C142.375 177.944 140.799 178.764 138.879 178.476C137.06 178.203 135.228 177.49 133.558 176.74C126.639 173.636 121.381 167.957 118.318 161.075C116.517 157.031 115.498 152.615 115.756 148.174C115.779 147.776 114.858 147.588 114.83 148.061C114.36 156.117 117.977 164.509 123.447 170.333C126.034 173.087 129.136 175.357 132.551 176.98C134.264 177.793 136.066 178.478 137.911 178.926C139.576 179.331 141.476 179.446 142.801 178.161C144.051 176.949 144.242 174.98 144.098 173.34C144.002 172.259 143.455 171.163 144.253 170.239C145.127 169.226 146.092 168.278 147.01 167.303C147.344 166.948 146.502 166.683 146.254 166.81C144.976 167.46 143.699 168.111 142.421 168.762C142.682 168.844 142.943 168.925 143.205 169.007C140.848 162.56 137.017 156.741 132.056 151.997C132.066 152.15 132.077 152.304 132.088 152.457C133.859 151.171 135.171 149.408 135.875 147.334C136.002 146.96 135.331 146.785 135.092 146.924C133.06 148.114 131.029 149.307 128.998 150.5C129.208 150.528 129.417 150.555 129.627 150.582C125.634 147.507 119.946 146.328 115.113 147.928C114.664 148.076 115.213 148.52 115.521 148.435Z" fill="#222221"/>
        <path d="M138.777 165.884C138.444 165.016 138.048 164.175 137.605 163.359C137.591 163.264 137.542 163.177 137.468 163.11C136.581 161.528 135.513 160.045 134.347 158.662C132.531 156.507 130.467 154.463 128.257 152.712C126.832 151.583 124.621 150.229 122.764 151.132C120.317 152.322 121.05 156.181 121.39 158.265C121.652 159.874 122.05 161.455 122.571 162.993C120.411 158.39 119.323 152.898 119.442 147.741C119.446 147.549 118.557 147.78 118.555 147.815C117.596 158.85 123.603 169.73 132.924 175.473C135.187 176.867 137.658 178.037 140.216 178.777C140.669 178.907 140.7 178.789 140.265 178.631C134.477 176.538 129.427 173.108 125.71 168.194C125.795 168.176 125.346 167.741 125.287 167.633C123.225 163.804 122.192 159.618 122.247 155.222C122.268 153.49 123.074 151.272 125.24 151.673C127.19 152.035 128.902 154.028 130.272 155.332C131.06 156.082 131.829 156.864 132.564 157.679C132.54 157.688 132.519 157.698 132.502 157.711C131.119 158.742 128.632 161.389 128.681 161.432C128.006 162.773 128.762 165.484 129.061 166.426C129.782 168.705 131.113 171.018 133.15 172.362C134.788 173.442 137.115 173.858 138.744 172.508C140.707 170.88 139.534 167.857 138.777 165.884ZM133.156 158.354C134.445 159.856 135.605 161.469 136.537 163.204C135.774 163.604 134.955 164.02 134.282 164.547C133.785 163.624 133.153 162.787 132.403 162.044C131.86 161.507 131.175 160.885 130.391 160.713C131.303 159.914 132.201 159.107 133.156 158.354ZM137.872 166.235C138.484 168.013 139.347 170.613 137.496 171.944C135.62 173.292 133.547 172.304 132.248 170.695C130.711 168.793 129.813 166.3 129.618 163.875C129.575 163.334 129.558 162.777 129.754 162.259C129.82 162.082 129.89 161.888 130.02 161.745C130.391 161.336 130.735 161.458 131.159 161.692C131.668 161.972 132.108 162.614 132.469 163.068C132.949 163.671 133.357 164.324 133.731 164.996C133.762 165.053 133.85 165.121 133.96 165.183C134.012 165.357 134.189 165.467 134.479 165.37C134.558 165.376 134.615 165.361 134.629 165.313C135.434 165.008 136.228 164.515 136.974 164.058C137.314 164.764 137.616 165.489 137.872 166.235Z" fill="#222221"/>
        <path d="M183.233 108.07C187.435 109.374 194.605 116.99 197.54 132.954C197.987 132.788 199.986 131.251 200.707 130.91C202.351 130.132 201.289 128.882 201.038 127.084C200.432 122.745 199.231 118.453 197.112 114.618C194.992 110.783 191.708 107.372 187.863 105.266C186.958 105.93 184.139 107.406 183.233 108.07Z" fill="#388D4D"/>
        <mask id="mask11_2193_5470" style="mask-type:luminance" maskUnits="userSpaceOnUse" x="183" y="105" width="19" height="28">
            <path d="M183.23 108.072C187.432 109.376 194.602 116.992 197.537 132.956C197.984 132.79 199.982 131.253 200.704 130.912C202.347 130.134 201.285 128.884 201.035 127.086C200.428 122.747 199.227 118.455 197.108 114.62C194.989 110.785 191.705 107.374 187.86 105.268C186.954 105.932 184.136 107.408 183.23 108.072Z" fill="white"/>
        </mask>
        <g mask="url(#mask11_2193_5470)">
            <path d="M184.375 110.489L191.526 107.559L193.092 108.754L185.82 111.356L189.061 114.547L196.004 112.067L197.966 114.331L190.026 116.899L193.035 121.484L199.351 119.331L200.368 121.571L193.407 123.496L195.181 128.539L200.954 125.933L201.521 127.966L194.686 131.245L184.375 110.489Z" fill="#388D4D"/>
        </g>
        <path d="M183.054 108.389C185.357 109.296 187.247 111.103 188.787 112.988C191.417 116.209 193.285 120.014 194.674 123.913C195.745 126.917 196.527 130.015 197.109 133.149C197.154 133.387 197.477 133.393 197.646 133.321C198.316 133.036 198.918 132.519 199.514 132.109C199.852 131.876 200.19 131.635 200.543 131.426C200.895 131.218 201.276 131.066 201.565 130.767C202.091 130.221 202.094 129.539 201.934 128.841C201.678 127.721 201.436 126.633 201.242 125.497C200.313 120.051 198.357 114.649 194.758 110.385C192.906 108.192 190.681 106.315 188.169 104.92C187.994 104.823 187.795 104.856 187.636 104.97C186.169 106.021 184.462 106.706 183.014 107.784C182.55 108.129 182.969 108.693 183.443 108.366C184.928 107.342 186.612 106.624 188.08 105.573C187.902 105.59 187.725 105.607 187.548 105.623C191.766 107.964 195.137 111.649 197.276 115.954C198.46 118.339 199.312 120.882 199.908 123.474C200.199 124.734 200.402 126.004 200.606 127.28C200.735 128.082 201.167 128.925 201.161 129.739C201.155 130.508 199.981 130.893 199.416 131.275C198.778 131.707 198.137 132.292 197.424 132.595C197.603 132.653 197.781 132.71 197.96 132.768C196.99 127.549 195.455 122.396 192.973 117.687C191.376 114.657 189.347 111.694 186.65 109.532C185.686 108.76 184.615 108.059 183.402 107.76C183.049 107.674 182.626 108.221 183.054 108.389Z" fill="#222221"/>
        <path d="M191.303 103.089C198.787 109.111 203.985 118.829 204.504 128.418C203.536 129.312 202.27 130.019 201.273 130.486C200.675 127.542 199.981 123.743 198.88 120.948C195.579 112.569 190.832 107.625 187.605 105.366C189.03 104.112 189.676 103.625 191.148 102.964" fill="#388D4D"/>
        <mask id="mask12_2193_5470" style="mask-type:luminance" maskUnits="userSpaceOnUse" x="187" y="102" width="18" height="29">
            <path d="M191.3 103.091C198.784 109.113 203.982 118.831 204.501 128.42C203.533 129.314 202.267 130.021 201.27 130.488C200.672 127.544 199.978 123.745 198.877 120.95C195.576 112.571 190.829 107.627 187.602 105.368C189.027 104.114 189.673 103.627 191.145 102.966" fill="white"/>
        </mask>
        <g mask="url(#mask12_2193_5470)">
            <path d="M189.172 107.782L192.386 103.321L193.809 104.382L190.665 109.285L192.493 111.692L195.991 105.723L197.298 107.482L194.306 112.795L196.036 116.453L199.396 111.377L201.727 113.877L197.443 118.735L199.008 122.454L203.404 117.648L204.071 120.204L199.376 125.215L199.809 129.166L204.34 124.216L205.708 126.139L199.812 130.94L187.843 108.742L189.172 107.782Z" fill="#388D4D"/>
        </g>
        <path d="M190.974 103.291C194.131 106.141 196.92 109.193 199.105 112.863C201.24 116.451 202.797 120.405 203.572 124.512C203.792 125.673 203.948 126.845 204.033 128.023C204.062 128.417 204.071 128.502 203.769 128.744C203.491 128.967 203.201 129.173 202.902 129.365C202.352 129.717 201.777 130.023 201.188 130.303C201.36 130.296 201.531 130.287 201.703 130.28C201.259 128.088 200.845 125.888 200.266 123.727C199.682 121.546 198.846 119.462 197.853 117.435C196.186 114.037 194.066 110.835 191.434 108.104C190.38 107.01 189.24 105.995 187.998 105.118C187.964 105.218 187.93 105.316 187.896 105.415C188.939 104.5 189.974 103.732 191.227 103.128C191.697 102.901 191.55 102.59 191.07 102.795C189.642 103.406 188.476 104.292 187.315 105.31C187.246 105.371 187.091 105.52 187.213 105.607C189.658 107.33 191.724 109.573 193.479 111.981C195.962 115.388 198.012 119.293 199.189 123.348C199.889 125.758 200.347 128.229 200.844 130.686C200.878 130.854 201.301 130.69 201.359 130.662C202.343 130.195 203.297 129.658 204.164 128.995C204.519 128.723 204.934 128.515 204.929 128.051C204.923 127.512 204.847 126.963 204.785 126.428C204.535 124.263 204.064 122.126 203.399 120.05C202.018 115.741 199.82 111.687 196.981 108.164C195.418 106.225 193.651 104.352 191.632 102.882C191.453 102.753 190.777 103.113 190.974 103.291Z" fill="#222221"/>
        <path d="M86.7505 137.353L80.7794 136.224L86.7114 97.7251C84.1523 90.5133 87.9382 82.5639 95.151 80.005L125.654 69.1832L156.156 58.3613C163.612 55.7157 170.426 57.0765 172.005 61.5253L173.803 66.5922L168.331 68.5333L166.533 63.4663C166.117 62.9324 162.85 62.1487 158.1 63.834L97.0951 85.4767C92.901 86.965 90.6996 91.5878 92.1869 95.7818L86.7505 137.353Z" fill="#BD3D44" stroke="#011A25" stroke-width="2.1375" stroke-miterlimit="10"/>
        <path d="M168.032 57.791C168.627 58.3862 169.086 59.0815 169.368 59.8805L171.167 64.9477L167.519 66.2419L168.332 68.5353L173.804 66.5943L172.007 61.5274C171.391 59.79 169.97 58.5318 168.032 57.791Z" fill="#E8D9D7"/>
        <path d="M163.894 61.8223C163.478 61.2884 160.212 60.5038 155.46 62.1899L94.4556 83.8326C90.2614 85.3209 88.06 89.9437 89.5474 94.1376L83.9454 135.677L86.0363 136.052L92.1847 95.7833C90.6974 91.5894 92.8988 86.9666 97.0929 85.4783L158.098 63.8356C160.651 62.9295 162.77 62.7406 164.254 62.8385L163.894 61.8223Z" fill="#E8D9D7"/>
        <path d="M228.33 86.16C228.33 86.16 200.821 90.9609 188.408 119.016C160.204 103.844 134.274 119.529 134.274 119.529L122.012 84.969L216.069 51.5996L228.33 86.16Z" fill="#0680BB" stroke="#011A25" stroke-width="2.565" stroke-miterlimit="10"/>
        <path d="M170.346 67.821L122.012 84.969L134.273 119.529C134.273 119.529 160.204 103.844 188.408 119.016C188.427 118.973 188.447 118.933 188.465 118.892L170.346 67.821Z" fill="#ACD5E8"/>
        <path d="M76.4952 145.927C75.7173 150.045 68.659 165.712 68.659 165.712L84.4423 168.694C84.4423 168.694 84.5803 155.8 86.102 147.742C86.8427 143.825 85.292 140.245 82.6381 139.743C79.9861 139.242 77.236 142.01 76.4952 145.927Z" fill="#BD3D44" stroke="#011A25" stroke-width="1.2825" stroke-miterlimit="10"/>
        <path d="M83.8051 168.574L83.8055 168.539C83.8069 168.442 83.8092 168.299 83.8125 168.113C83.8136 168.054 83.8148 167.991 83.8161 167.924M83.8051 168.574L82.6406 139.744C85.2936 140.246 86.8452 143.826 86.1045 147.743C84.7856 154.722 84.5063 165.33 84.4552 168.044L83.8161 167.924M83.8051 168.574L80.2803 167.909M83.8051 168.574L80.9298 167.379M83.8161 167.924L80.9298 167.379M83.8161 167.924L80.9298 167.379M80.9298 167.379L80.3993 167.279L80.2803 167.909M80.9298 167.379L81.9402 146.956C80.4175 155.014 80.2803 167.909 80.2803 167.909M80.9298 167.379C80.9268 167.548 80.9247 167.68 80.9234 167.771L80.922 167.879L80.9216 167.907L80.9216 167.914L80.9215 167.915L80.9215 167.916L80.2803 167.909M80.4241 140.059C80.6376 139.961 80.8544 139.88 81.0734 139.82C81.2244 139.995 81.3661 140.181 81.4981 140.379C81.2833 140.419 81.0674 140.484 80.8514 140.572C80.7181 140.388 80.5755 140.216 80.4241 140.059Z" fill="#E8D9D7" stroke="#011A25" stroke-width="1.2825"/>
        <path d="M87.3398 139.7C87.1151 140.893 86.486 141.774 85.9373 141.671L79.967 140.542C79.4174 140.439 79.1534 139.388 79.3798 138.197C79.6052 137.006 80.2326 136.123 80.7823 136.226L86.7535 137.355C87.3024 137.458 87.5652 138.509 87.3398 139.7Z" fill="#BD3D44" stroke="#011A25" stroke-width="1.2825" stroke-miterlimit="10"/>
        <path d="M84.963 139.252C84.9165 139.498 84.8409 139.736 84.7396 139.951L85.4887 140.093C85.5034 140.081 85.5245 140.061 85.5517 140.029C85.6514 139.91 85.7602 139.697 85.8138 139.412L85.8141 139.411C85.8683 139.127 85.8451 138.889 85.7955 138.742C85.7822 138.703 85.77 138.677 85.7608 138.66L85.0107 138.518C85.0261 138.756 85.0099 139.005 84.963 139.252ZM84.963 139.252C84.963 139.252 84.963 139.252 84.963 139.252L84.333 139.133L84.9631 139.252C84.9631 139.252 84.9631 139.252 84.963 139.252ZM85.7432 138.636C85.7434 138.635 85.7455 138.637 85.7493 138.642C85.7449 138.638 85.7431 138.636 85.7432 138.636ZM85.4635 140.109C85.4635 140.109 85.4661 140.107 85.4714 140.106C85.4662 140.109 85.4636 140.11 85.4635 140.109Z" fill="#D7CAC8" stroke="#011A25" stroke-width="1.2825"/>
        <path d="M239.985 43.1125C241.019 46.0234 239.496 49.22 236.585 50.2524L103.203 97.5739C100.293 98.6065 97.095 97.084 96.0635 94.1726C95.0309 91.2619 96.5532 88.0653 99.4639 87.0327L232.845 39.7122C235.756 38.6796 238.952 40.2028 239.985 43.1125Z" fill="#0680BB" stroke="#011A25" stroke-width="3.33223" stroke-miterlimit="10"/>
        <path d="M96.0914 94.2353C97.1478 97.1054 100.316 98.6003 103.206 97.5756L236.587 50.254C239.477 49.2284 240.995 46.0709 240.006 43.1778L96.0914 94.2353Z" fill="#ACD5E8"/>
        <path d="M176.253 57.738C176.67 58.9134 176.054 60.2041 174.879 60.6217L162.109 65.1521C160.933 65.5698 159.642 64.9546 159.225 63.7794C158.808 62.6041 159.422 61.3122 160.599 60.8957L173.369 56.3644C174.545 55.9478 175.836 56.5618 176.253 57.738Z" fill="#0680BB" stroke="#022B3E" stroke-width="3.33223" stroke-miterlimit="10"/>
        <path d="M159.369 64.0827C159.887 65.0523 161.042 65.53 162.11 65.1515L174.88 60.6211C175.947 60.2424 176.544 59.144 176.333 58.064L159.369 64.0827Z" fill="#011A25"/>
        <path d="M65.953 25.5542L45.462 42.4028L57.3617 46.7168L49.9353 60.8804L70.4257 44.0319L58.526 39.7179L65.953 25.5542Z" fill="#FFCF2A"/>
        <path d="M69.2825 44.2951L58.2372 40.5376C58.0005 40.4523 57.8122 40.2674 57.7207 40.0312C57.6297 39.7942 57.6444 39.5302 57.7616 39.3076L64.9242 26.8661L46.122 42.2607L57.513 46.2465C57.7491 46.332 58.0755 46.167 58.1663 46.4034C58.2578 46.6395 58.2431 46.9036 58.1256 47.1276L50.8718 59.2948L69.2825 44.2951ZM65.7359 24.7094C65.996 24.6429 66.2807 24.6998 66.4992 24.8812C66.8182 25.145 66.9092 25.5983 66.7176 25.9649L59.7568 39.2389L70.7146 43.2119C71.0091 43.318 71.2236 43.5757 71.2773 43.8857C71.3304 44.196 71.2154 44.5108 70.9737 44.7087L50.4835 61.5578C50.164 61.8189 49.707 61.8178 49.3884 61.5525C49.0695 61.2894 48.9785 60.836 49.1709 60.47L56.1309 47.1954L45.1733 43.2232C44.8793 43.1163 44.6648 42.8585 44.6112 42.5491C44.5573 42.2384 44.6725 41.9243 44.914 41.7257L65.405 24.8771C65.5036 24.7953 65.6179 24.7396 65.7359 24.7094Z" fill="#252525"/>
        <g opacity="0.5">
            <path d="M359.16 26.7827L346.353 37.3131L353.79 40.0093L349.148 48.8616L361.955 38.3313L354.518 35.635L359.16 26.7827Z" fill="#FFCF2A"/>
            <path d="M361.241 38.4961L354.337 36.1476C354.189 36.0943 354.072 35.9788 354.014 35.8311C353.958 35.683 353.967 35.518 354.04 35.3789L358.517 27.6029L346.765 37.2246L353.885 39.7157C354.032 39.7691 354.236 39.666 354.293 39.8137C354.35 39.9614 354.341 40.1264 354.268 40.2664L349.734 47.8709L361.241 38.4961ZM359.024 26.255C359.186 26.2134 359.364 26.249 359.501 26.3624C359.7 26.5273 359.757 26.8106 359.637 27.0397L355.287 35.336L362.136 37.8191C362.32 37.8854 362.454 38.0465 362.487 38.2402C362.52 38.4341 362.449 38.6309 362.298 38.7546L349.491 49.2853C349.291 49.4484 349.006 49.4478 348.807 49.282C348.607 49.1175 348.551 48.8342 348.671 48.6054L353.021 40.3088L346.172 37.8261C345.989 37.7593 345.854 37.5982 345.821 37.4048C345.787 37.2107 345.859 37.0143 346.01 36.8902L358.817 26.3598C358.879 26.3087 358.95 26.2739 359.024 26.255Z" fill="#252525"/>
        </g>
        <path d="M314.425 123.188L308.004 127.115L300.556 126.038L295.882 158.527L302.693 154.091L307.601 160.22L310.569 139.59L321.432 157.377L323.526 149.809L331.533 151.199L314.425 123.188Z" fill="#FFD955"/>
        <path d="M307.871 161.196L302.61 154.628L295.361 159.349L300.218 125.581L307.922 126.694L314.563 122.633L332.345 151.747L323.821 150.268L321.577 158.379L310.812 140.754L307.871 161.196ZM310.333 138.424L321.295 156.373L323.239 149.35L330.73 150.649L314.295 123.741L308.095 127.534L300.901 126.494L296.411 157.703L302.783 153.554L307.339 159.242L310.333 138.424Z" fill="#554200"/>
        <path d="M321.199 113.991L320.735 114.534L321.449 114.568C322.801 114.632 323.842 114.89 324.576 115.26C325.309 115.63 325.708 116.097 325.843 116.577C325.978 117.052 325.874 117.617 325.441 118.233C325.005 118.853 324.247 119.504 323.128 120.112L322.543 120.429L323.136 120.731C324.266 121.307 325.039 121.935 325.492 122.541C325.943 123.144 326.064 123.705 325.948 124.182C325.831 124.663 325.452 125.139 324.741 125.529C324.03 125.918 323.01 126.206 321.677 126.311L320.97 126.367L321.444 126.894C322.335 127.885 322.876 128.792 323.126 129.563C323.376 130.334 323.327 130.94 323.086 131.371C322.848 131.798 322.382 132.122 321.652 132.253C320.918 132.386 319.937 132.317 318.735 131.967L318.101 131.783L318.304 132.411C318.691 133.609 318.789 134.592 318.677 135.331C318.565 136.067 318.252 136.541 317.828 136.79C317.401 137.042 316.79 137.104 316.005 136.869C315.22 136.633 314.289 136.107 313.266 135.23L312.722 134.764L312.688 135.479C312.625 136.832 312.368 137.875 311.998 138.608C311.629 139.342 311.162 139.741 310.683 139.877C310.209 140.011 309.645 139.907 309.029 139.473C308.409 139.037 307.758 138.278 307.151 137.157L306.833 136.571L306.531 137.165C305.956 138.296 305.329 139.07 304.723 139.523C304.121 139.974 303.562 140.095 303.085 139.978C302.604 139.861 302.129 139.482 301.739 138.77C301.349 138.058 301.062 137.037 300.956 135.702L300.9 134.995L300.373 135.47C299.384 136.361 298.477 136.902 297.707 137.152C296.937 137.402 296.332 137.353 295.901 137.111C295.475 136.873 295.151 136.407 295.019 135.675C294.886 134.94 294.955 133.959 295.304 132.755L295.487 132.122L294.86 132.325C293.663 132.712 292.682 132.809 291.942 132.697C291.208 132.585 290.734 132.271 290.485 131.847C290.233 131.418 290.171 130.808 290.406 130.022C290.641 129.236 291.166 128.304 292.042 127.28L292.507 126.737L291.793 126.703C290.441 126.639 289.399 126.381 288.666 126.012C287.933 125.642 287.534 125.174 287.398 124.695C287.264 124.219 287.367 123.655 287.801 123.038C288.237 122.418 288.994 121.767 290.114 121.159L290.699 120.842L290.106 120.54C288.976 119.964 288.203 119.336 287.75 118.73C287.299 118.127 287.177 117.566 287.294 117.089C287.411 116.608 287.79 116.132 288.501 115.742C289.212 115.353 290.232 115.065 291.565 114.96L292.272 114.904L291.798 114.377C290.907 113.386 290.366 112.479 290.116 111.708C289.866 110.937 289.915 110.331 290.156 109.9C290.394 109.473 290.859 109.149 291.59 109.018C292.324 108.885 293.304 108.954 294.507 109.304L295.14 109.488L294.938 108.86C294.551 107.662 294.453 106.68 294.565 105.94C294.677 105.204 294.99 104.73 295.413 104.481C295.841 104.229 296.451 104.167 297.236 104.403C298.021 104.638 298.952 105.164 299.976 106.041L300.52 106.507L300.553 105.792C300.617 104.439 300.874 103.397 301.243 102.663C301.613 101.929 302.079 101.53 302.558 101.394C303.033 101.261 303.597 101.364 304.213 101.798C304.832 102.234 305.483 102.993 306.091 104.114L306.409 104.7L306.711 104.106C307.286 102.975 307.913 102.201 308.518 101.748C309.12 101.297 309.68 101.176 310.157 101.293C310.637 101.41 311.113 101.789 311.503 102.501C311.892 103.214 312.18 104.235 312.286 105.569L312.342 106.276L312.869 105.801C313.858 104.91 314.765 104.369 315.535 104.119C316.305 103.869 316.91 103.919 317.34 104.16C317.767 104.399 318.091 104.864 318.223 105.596C318.355 106.331 318.287 107.312 317.938 108.516L317.755 109.149L318.382 108.946C319.579 108.559 320.56 108.462 321.299 108.575C322.034 108.686 322.508 109 322.757 109.424C323.009 109.853 323.071 110.464 322.836 111.249C322.601 112.035 322.075 112.967 321.199 113.991Z" fill="#FFC600" stroke="#332800" stroke-width="0.7"/>
        <path d="M314.762 109.738C320.78 114.238 322.016 122.766 317.523 128.787C313.03 134.808 304.509 136.042 298.492 131.543C292.474 127.043 291.238 118.515 295.731 112.494C300.224 106.473 308.745 105.239 314.762 109.738Z" fill="#FFE280" stroke="#332800" stroke-width="0.5"/>
        <path d="M313.187 112.418C317.724 116.055 318.458 122.684 314.826 127.224C311.193 131.764 304.57 132.496 300.033 128.859C295.495 125.222 294.761 118.593 298.394 114.052C302.026 109.512 308.649 108.78 313.187 112.418Z" fill="#FFE280" stroke="#332800" stroke-width="0.5"/>
        <path d="M316.976 119.606C317.547 125.33 313.373 130.432 307.653 131.001C301.933 131.569 296.835 127.39 296.265 121.666C295.694 115.941 299.868 110.84 305.588 110.271C311.308 109.702 316.406 113.882 316.976 119.606ZM316.976 119.606C316.976 119.606 316.976 119.606 316.976 119.606L316.727 119.631L316.976 119.606ZM296.148 121.677L296.148 121.677C295.571 115.887 299.792 110.728 305.577 110.153C311.36 109.579 316.517 113.806 317.094 119.595C317.67 125.385 313.449 130.544 307.665 131.119C301.881 131.694 296.724 127.467 296.148 121.677Z" fill="#AA8400" stroke="#332800" stroke-width="0.5"/>
    </g>
    <rect x="0.5" y="0.5" width="379" height="199" rx="7.5" stroke="#E4E4E4"/>
    <defs>
        <linearGradient id="paint0_linear_2193_5470" x1="380" y1="100" x2="-3.71353e-06" y2="100" gradientUnits="userSpaceOnUse">
            <stop stop-color="#669AF3"/>
            <stop offset="0.325" stop-color="#7A8EF1"/>
            <stop offset="0.614792" stop-color="#A170E6"/>
            <stop offset="0.794483" stop-color="#AE68E5"/>
            <stop offset="1" stop-color="#D54CE0"/>
        </linearGradient>
        <clipPath id="clip0_2193_5470">
            <rect width="380" height="200" rx="8" fill="white"/>
        </clipPath>
        <clipPath id="clip1_2193_5470">
            <rect width="380" height="200" fill="white"/>
        </clipPath>
    </defs>
</svg>
