<svg width="380" height="200" viewBox="0 0 380 200" fill="none" xmlns="http://www.w3.org/2000/svg">
    <g clip-path="url(#clip0_2193_5632)">
        <rect width="380" height="200" rx="8" fill="url(#paint0_linear_2193_5632)"/>
        <path d="M353.553 164.991C353.64 164.525 353.689 164.048 353.689 163.557C353.689 159.349 350.287 155.94 346.091 155.94C344.862 155.94 343.705 156.234 342.677 156.753C340.862 152.001 336.275 148.626 330.895 148.626C324.682 148.626 319.522 153.133 318.476 159.063C318.436 159.063 318.393 159.061 318.353 159.061C315.054 159.061 312.371 161.714 312.314 165.007C309.662 165.391 307.626 167.675 307.626 170.439V171.885C307.626 174.917 310.077 177.372 313.1 177.372H352.899C355.922 177.372 358.373 174.917 358.373 171.885V170.439C358.373 167.63 356.267 165.313 353.553 164.991Z" fill="white"/>
        <path d="M353.553 164.992L354.169 165.107C354.26 164.606 354.314 164.09 354.314 163.557C354.316 161.283 353.393 159.218 351.907 157.728C350.421 156.237 348.36 155.313 346.091 155.313C344.764 155.313 343.507 155.633 342.398 156.191L342.677 156.753L343.262 156.529C342.309 154.033 340.628 151.904 338.483 150.394C336.335 148.886 333.717 148 330.896 148C327.636 148 324.648 149.182 322.344 151.143C320.038 153.104 318.411 155.841 317.86 158.954L318.476 159.064V158.436C318.455 158.436 318.413 158.434 318.353 158.434C316.535 158.434 314.88 159.167 313.679 160.353C312.477 161.537 311.72 163.18 311.688 164.998L312.314 165.007L312.225 164.388C310.747 164.6 309.441 165.343 308.504 166.418C307.569 167.491 307 168.901 307 170.439V171.885C307 173.572 307.684 175.105 308.787 176.21C309.889 177.315 311.419 178 313.101 178H352.899C354.581 178 356.111 177.315 357.213 176.21C358.314 175.105 359 173.572 359 171.885V170.439C359 168.875 358.412 167.443 357.449 166.364C356.484 165.284 355.14 164.549 353.626 164.37L353.553 164.992L353.48 165.615C354.681 165.756 355.749 166.341 356.515 167.201C357.282 168.061 357.748 169.191 357.748 170.439V171.885C357.748 173.23 357.207 174.442 356.327 175.322C355.449 176.202 354.241 176.746 352.899 176.746H313.101C311.759 176.746 310.551 176.202 309.673 175.322C308.793 174.442 308.252 173.23 308.252 171.885V170.439C308.252 169.213 308.702 168.099 309.447 167.242C310.192 166.388 311.23 165.798 312.403 165.629C312.708 165.586 312.934 165.327 312.94 165.019C312.966 163.541 313.578 162.212 314.557 161.247C315.536 160.281 316.871 159.689 318.353 159.689C318.375 159.689 318.419 159.691 318.476 159.691C318.781 159.691 319.039 159.473 319.093 159.173C319.59 156.356 321.064 153.876 323.152 152.1C325.243 150.324 327.941 149.254 330.896 149.254C333.454 149.254 335.818 150.056 337.763 151.421C339.709 152.788 341.231 154.721 342.095 156.978C342.156 157.142 342.287 157.274 342.451 157.337C342.616 157.401 342.802 157.393 342.959 157.313C343.904 156.837 344.964 156.568 346.091 156.568C348.019 156.568 349.757 157.349 351.021 158.615C352.285 159.882 353.064 161.624 353.064 163.557C353.064 164.004 353.018 164.443 352.939 164.876C352.907 165.049 352.947 165.222 353.05 165.363C353.153 165.504 353.307 165.594 353.48 165.615L353.553 164.992Z" fill="#494949"/>
        <path d="M352.899 177.372H313.1C310.077 177.372 307.626 174.917 307.626 171.885V170.439C307.626 169.382 307.925 168.395 308.442 167.556C308.612 167.677 308.783 167.797 308.957 167.912C308.509 168.647 308.252 169.511 308.252 170.439V171.885C308.252 173.23 308.793 174.442 309.672 175.322C310.55 176.202 311.759 176.746 313.1 176.746H352.899C354.24 176.746 355.449 176.202 356.327 175.322C357.206 174.442 357.747 173.23 357.747 171.885V170.439C357.747 169.191 357.282 168.061 356.515 167.201C355.748 166.34 354.68 165.756 353.479 165.615L353.553 164.991C356.267 165.313 358.373 167.63 358.373 170.439V171.885C358.373 174.917 355.922 177.372 352.899 177.372ZM353.479 165.615C353.307 165.593 353.152 165.504 353.049 165.363C352.946 165.222 352.907 165.049 352.938 164.876C353.018 164.443 353.063 164.004 353.063 163.557C353.063 161.624 352.285 159.882 351.02 158.614C349.756 157.349 348.019 156.568 346.091 156.568C344.963 156.568 343.903 156.836 342.958 157.313C342.871 157.357 342.774 157.379 342.677 157.379C342.601 157.379 342.524 157.365 342.451 157.337C342.286 157.273 342.156 157.142 342.094 156.977C342.035 156.82 341.971 156.665 341.906 156.513C342.003 156.219 342.092 155.921 342.177 155.621C342.364 155.99 342.53 156.366 342.677 156.753C343.705 156.234 344.862 155.94 346.091 155.94C350.287 155.94 353.689 159.349 353.689 163.557C353.689 164.048 353.64 164.525 353.553 164.991L353.479 165.615Z" fill="#494949"/>
        <path d="M327.132 166.498V159.699L333.001 163.101L338.872 166.498L333.001 169.897L327.132 173.294V166.498Z" fill="#04557D"/>
        <path d="M327.131 166.498H327.684V160.661L332.723 163.581L337.766 166.498L332.723 169.416L327.684 172.334V166.498H327.131H326.579V173.294C326.579 173.493 326.684 173.675 326.854 173.775C327.024 173.874 327.236 173.874 327.407 173.775L333.278 170.376L339.149 166.978C339.319 166.879 339.424 166.696 339.424 166.498C339.424 166.299 339.319 166.116 339.149 166.017L333.276 162.62L327.407 159.221C327.236 159.121 327.024 159.121 326.854 159.221C326.684 159.32 326.579 159.503 326.579 159.699V166.498H327.131Z" fill="#022B3E"/>
        <path d="M327.685 172.334V170.572C330.217 169.066 332.091 166.523 332.69 163.561L332.724 163.581L337.766 166.497L332.724 169.416L327.685 172.334Z" fill="#04557D"/>
        <path d="M327.132 173.294V170.878C327.318 170.781 327.502 170.68 327.685 170.572V172.334L332.723 169.416L337.766 166.498L332.723 163.581L332.69 163.561C332.729 163.369 332.763 163.172 332.791 162.977L333.001 163.101L338.872 166.498L333.001 169.897L327.132 173.294Z" fill="#022B3E"/>
        <path d="M46.3112 41.7698C48.0087 45.1248 46.649 49.2289 43.2744 50.9364C39.9012 52.6431 35.7892 51.3075 34.0917 47.9525L28.5321 36.9645C26.8353 33.6111 28.1958 29.5085 31.5689 27.8017C34.9436 26.0943 39.0548 27.4284 40.7515 30.7818L46.3112 41.7698Z" fill="#BD3D44"/>
        <path d="M46.3114 41.7695L45.6984 42.0797C46.4632 43.5912 46.5394 45.2636 46.0439 46.7591C45.5477 48.2531 44.4866 49.5573 42.9662 50.3266C41.4473 51.0951 39.768 51.1774 38.2704 50.6923C36.7735 50.2048 35.4697 49.1536 34.7049 47.642L29.1453 36.654C28.3805 35.1425 28.3066 33.4708 28.8005 31.9761C29.2952 30.4828 30.3578 29.1779 31.8767 28.4093C33.3971 27.64 35.0764 27.5577 36.574 28.0429C38.0724 28.5296 39.3739 29.5801 40.1387 31.0916L45.6984 42.0797L46.3114 41.7695L46.9229 41.4601L41.3632 30.472C40.432 28.6279 38.8307 27.335 37.0046 26.7431C35.1778 26.1498 33.115 26.2538 31.2607 27.192C29.4065 28.1301 28.1015 29.7321 27.4983 31.5531C26.8935 33.3749 26.9881 35.4302 27.9208 37.2736L33.4804 48.2616C34.4131 50.105 36.013 51.3987 37.8398 51.992C39.6651 52.5861 41.7279 52.4822 43.5822 51.544C45.4364 50.6058 46.7421 49.0053 47.3462 47.182C47.9502 45.3587 47.8571 43.3027 46.9229 41.4601L46.3114 41.7695Z" fill="#494949"/>
        <path d="M42.9665 50.3263C41.4476 51.0948 39.7683 51.1771 38.2707 50.692C37.3105 50.3801 36.4303 49.8345 35.7206 49.0871C39.6429 45.1927 40.8661 39.0033 38.2763 33.8849C36.9757 31.3144 34.8889 29.3596 32.4415 28.1575C33.8053 27.6285 35.2607 27.6159 36.5743 28.0426C38.0727 28.5293 39.3742 29.5798 40.139 31.0913L45.6987 42.0794C46.4635 43.5909 46.5397 45.2632 46.0442 46.7588C45.548 48.2528 44.4869 49.557 42.9665 50.3263Z" fill="#BD3D44"/>
        <path d="M43.2751 50.936C40.5074 52.3363 37.2432 51.6858 35.2236 49.5549C35.3941 49.4023 35.5593 49.2467 35.7208 49.0874C36.4305 49.8348 37.3107 50.3803 38.2709 50.6922C39.7685 51.1774 41.4478 51.095 42.9667 50.3265C44.4871 49.5572 45.5482 48.253 46.0444 46.759C46.5399 45.2635 46.4636 43.5911 45.6988 42.0796L40.1392 31.0916C39.3744 29.58 38.0729 28.5295 36.5745 28.0428C35.2609 27.6161 33.8055 27.6288 32.4417 28.1577C32.1679 28.0234 31.8888 27.8975 31.606 27.7829C34.9731 26.102 39.0616 27.44 40.7522 30.7814L46.3119 41.7694C48.0094 45.1244 46.6497 49.2285 43.2751 50.936Z" fill="#494949"/>
        <path d="M45.5439 32.9872L49.4603 40.7274C50.7166 43.2104 50.841 45.9649 50.0288 48.4203C49.2151 50.8763 47.4671 53.0227 44.9695 54.2864C42.4734 55.5493 39.7087 55.6863 37.2479 54.887C34.7886 54.087 32.6431 52.3551 31.3867 49.8721L27.4704 42.1319C27.3002 41.7955 26.8874 41.6614 26.549 41.8327C26.2106 42.0039 26.0757 42.4151 26.2459 42.7515L30.1622 50.4917C31.5872 53.3081 34.0281 55.2808 36.8188 56.186C39.6066 57.0928 42.754 56.9364 45.5855 55.5038C48.4169 54.0711 50.4088 51.6271 51.3296 48.844C52.2534 46.0594 52.1113 42.9235 50.6848 40.1079L46.7684 32.3676C46.5982 32.0312 46.1869 31.8964 45.8486 32.0676C45.5102 32.2388 45.3737 32.6508 45.5439 32.9872Z" fill="#494949"/>
        <path d="M44.6656 55.204L50.2054 66.1528C50.3756 66.4892 50.7869 66.624 51.1253 66.4528C51.4637 66.2816 51.6002 65.8696 51.43 65.5332L45.8902 54.5844C45.7199 54.248 45.3079 54.1154 44.9695 54.2866C44.6312 54.4578 44.4954 54.8676 44.6656 55.204Z" fill="#494949"/>
        <path d="M46.3749 68.8561L55.8783 64.0477C56.2167 63.8765 56.3516 63.4652 56.1814 63.1288C56.0112 62.7925 55.6007 62.6591 55.2623 62.8303L45.759 67.6388C45.4206 67.81 45.2849 68.2197 45.4551 68.5561C45.6253 68.8925 46.0366 69.0273 46.3749 68.8561Z" fill="#494949"/>
        <path d="M31.8751 42.9388L43.8397 36.8851C44.178 36.7139 44.313 36.3027 44.1428 35.9663C43.9726 35.6299 43.5621 35.4965 43.2237 35.6677L31.2592 41.7215C30.9208 41.8927 30.7835 42.3032 30.9537 42.6396C31.1239 42.976 31.5367 43.1101 31.8751 42.9388Z" fill="#494949"/>
        <path d="M343.602 51.3922L343.835 50.9568L343.602 51.3922C351.966 55.8637 354.984 66.6085 350.277 75.4103L350.277 75.4104C347.097 81.3589 341.213 84.867 335.15 85.1324L335.085 85.1352L335.024 85.1544C330.599 86.5282 323.444 86.5914 317.8 86.3046C316.213 86.2239 314.754 86.1161 313.52 86.0038C316.671 85.2409 319.715 83.5377 322.289 81.716L322.949 81.2485L322.235 80.867L302.398 70.2608L302.162 70.7017L302.398 70.2607C294.034 65.7892 291.016 55.0451 295.722 46.2426C300.428 37.4407 311.039 33.9829 319.403 38.4544L343.602 51.3922Z" fill="#388D4D" stroke="#494949"/>
        <path d="M311.848 52.7613C313.003 53.3789 313.446 54.8837 312.773 56.1428C312.1 57.4018 310.602 57.8691 309.447 57.2515C308.292 56.6339 307.849 55.1291 308.522 53.87C309.195 52.6109 310.692 52.1437 311.848 52.7613Z" fill="white" stroke="#494949"/>
        <path d="M323.653 59.0728C324.808 59.6904 325.251 61.1952 324.578 62.4543C323.905 63.7134 322.407 64.1806 321.252 63.563C320.097 62.9454 319.654 61.4406 320.327 60.1815C321 58.9225 322.498 58.4552 323.653 59.0728Z" fill="white" stroke="#494949"/>
        <path d="M335.912 65.6265C337.067 66.2441 337.51 67.7489 336.837 69.008C336.164 70.2671 334.666 70.7343 333.511 70.1167C332.356 69.4991 331.913 67.9943 332.586 66.7353C333.259 65.4762 334.757 65.0089 335.912 65.6265Z" fill="white" stroke="#494949"/>
        <g opacity="0.15" clip-path="url(#clip1_2193_5632)">
            <path d="M135.345 -1V10.783" stroke="#252525" stroke-miterlimit="10"/>
            <path d="M135.345 31.0049V42.7879" stroke="#252525" stroke-miterlimit="10"/>
            <path d="M188.37 31.0049V42.7879" stroke="#252525" stroke-miterlimit="10"/>
            <path d="M113.088 13.4019H159.566V27.1489" stroke="#252525" stroke-miterlimit="10"/>
            <path d="M113.088 46.7158H159.566V60.4628" stroke="#252525" stroke-miterlimit="10"/>
            <path d="M113.088 23.876V29.768H143.2" stroke="#252525" stroke-miterlimit="10"/>
            <path d="M166.112 30.4219H211.282" stroke="#252525" stroke-miterlimit="10"/>
            <path d="M169.386 48.0249H211.936V59.8079" stroke="#252525" stroke-miterlimit="10"/>
            <path d="M141.891 64.3911H182.478" stroke="#252525" stroke-miterlimit="10"/>
            <path d="M188.257 135V146.784" stroke="#252525" stroke-miterlimit="10"/>
            <path d="M188.257 167.005V178.788" stroke="#252525" stroke-miterlimit="10"/>
            <path d="M241.282 167.005V178.788" stroke="#252525" stroke-miterlimit="10"/>
            <path d="M166 149.402H212.478V163.149" stroke="#252525" stroke-miterlimit="10"/>
            <path d="M166 182.716H212.478V196.463" stroke="#252525" stroke-miterlimit="10"/>
            <path d="M166 159.876V165.768H196.112" stroke="#252525" stroke-miterlimit="10"/>
            <path d="M219.024 166.423H264.194" stroke="#252525" stroke-miterlimit="10"/>
            <path d="M222.298 184.025H264.848V195.809" stroke="#252525" stroke-miterlimit="10"/>
            <path d="M194.803 200.391H235.39" stroke="#252525" stroke-miterlimit="10"/>
            <path d="M37.2581 91V102.784" stroke="#252525" stroke-miterlimit="10"/>
            <path d="M37.2581 123.005V134.788" stroke="#252525" stroke-miterlimit="10"/>
            <path d="M90.283 123.005V134.788" stroke="#252525" stroke-miterlimit="10"/>
            <path d="M15 105.402H61.479V119.149" stroke="#252525" stroke-miterlimit="10"/>
            <path d="M15 138.716H61.479V152.463" stroke="#252525" stroke-miterlimit="10"/>
            <path d="M15 115.876V121.768H45.113" stroke="#252525" stroke-miterlimit="10"/>
            <path d="M68.025 122.423H113.195" stroke="#252525" stroke-miterlimit="10"/>
            <path d="M317.257 64V75.784" stroke="#252525" stroke-miterlimit="10"/>
            <path d="M317.257 96.0049V107.788" stroke="#252525" stroke-miterlimit="10"/>
            <path d="M370.282 96.0049V107.788" stroke="#252525" stroke-miterlimit="10"/>
            <path d="M295 78.4019H341.478V92.1489" stroke="#252525" stroke-miterlimit="10"/>
            <path d="M295 111.716H341.478V125.463" stroke="#252525" stroke-miterlimit="10"/>
            <path d="M295 88.876V94.768H325.113" stroke="#252525" stroke-miterlimit="10"/>
            <path d="M348.025 95.4229H393.194" stroke="#252525" stroke-miterlimit="10"/>
            <path d="M351.298 113.025H393.849V124.809" stroke="#252525" stroke-miterlimit="10"/>
            <path d="M323.803 129.391H364.39" stroke="#252525" stroke-miterlimit="10"/>
        </g>
        <path d="M148.468 120.681L148.468 120.681L148.48 120.697C149.356 121.84 150.314 123.091 151.016 124.431C151.721 125.775 152.149 127.171 151.992 128.593L151.992 128.594C151.828 130.089 151.114 131.405 150.223 132.675C149.86 133.193 149.475 133.694 149.088 134.195C149 134.31 148.912 134.424 148.825 134.538C148.451 135.025 148.084 135.515 147.755 136.01C144.282 130.455 140.645 125.013 136.863 119.699C137.235 119.515 137.605 119.329 137.972 119.144C139.357 118.446 140.72 117.759 142.152 117.218L142.152 117.218C142.173 117.21 142.194 117.202 142.215 117.194C143.179 116.828 143.844 116.576 144.678 117.019L144.678 117.019C146.161 117.806 147.335 119.2 148.468 120.681Z" fill="#E6F3F8" stroke="#494949" stroke-width="0.81"/>
        <path d="M105.253 217.045L104.962 216.807C106.006 215.531 106.936 214.122 107.875 212.699C108.369 211.951 108.866 211.199 109.383 210.461C109.383 210.46 109.383 210.46 109.383 210.46L105.253 217.045ZM105.253 217.045L104.962 216.807C104.509 217.361 103.987 217.914 103.413 218.249C102.855 218.574 102.273 218.68 101.638 218.395L101.638 218.395M105.253 217.045L101.638 218.395M101.638 218.395C101.245 218.219 100.848 217.943 100.443 217.619C100.193 217.419 99.9588 217.217 99.7236 217.014C99.5693 216.881 99.4148 216.747 99.2554 216.614L99.255 216.614M101.638 218.395L99.255 216.614M99.255 216.614C96.1307 214.013 93.4049 210.974 90.6309 207.88C90.091 207.278 89.5493 206.674 89.0024 206.071L89.0023 206.071M99.255 216.614L89.0023 206.071M89.0023 206.071C85.1586 201.833 81.7473 197.277 78.467 192.48M89.0023 206.071L78.467 192.48M78.467 192.48C82.762 189.845 86.9669 187.044 91.0782 184.086L78.467 192.48Z" fill="#03405D" stroke="#494949" stroke-width="0.81"/>
        <path d="M159.159 171.799C158.961 171.806 158.764 171.813 158.578 171.822L158.576 171.822C154.159 172.056 149.724 172.165 145.28 172.239H145.28C144.626 172.25 143.972 172.26 143.317 172.27C136.64 172.375 129.916 172.48 123.332 173.458L123.332 173.458C115.378 174.64 107.81 177.194 100.623 180.683C98.9524 181.493 97.3068 182.356 95.678 183.245C89.0418 173.354 82.4808 163.409 76.2237 153.234C87.2307 141.114 94.0838 124.637 99.8792 108.541L99.8793 108.541C100.443 106.972 101 105.389 101.555 103.808C102.03 102.456 102.504 101.105 102.983 99.7655L102.983 99.7654C103.634 97.943 104.293 96.1507 105.134 94.4785L105.135 94.4767C105.372 93.9985 105.629 93.5082 105.908 93.026C108.934 95.8027 111.62 99.2147 114.253 102.56C114.663 103.08 115.071 103.598 115.478 104.112L115.479 104.112C119.707 109.435 123.817 114.884 127.868 120.383C128.172 120.795 128.475 121.206 128.779 121.618C131.173 124.865 133.57 128.114 135.805 131.479C139.859 137.59 143.663 143.927 147.407 150.281L147.647 150.689C151.7 157.567 155.799 164.523 159.159 171.799Z" fill="#E6F3F8" stroke="#494949" stroke-width="0.81"/>
        <path d="M74.0774 173.672C74.3688 173.314 75.0562 172.502 73.9126 172.068C73.5912 171.947 72.6984 172.652 72.3977 172.875C71.7302 173.371 71.1173 173.957 70.4922 174.516C69.4685 175.406 68.1746 176.17 67.3123 177.262C66.6516 178.094 66.7363 179.073 67.8794 178.788C68.2085 178.706 68.5456 178.351 68.8307 178.154C69.4575 177.715 70.0661 177.25 70.6574 176.758C71.8017 175.808 73.1198 174.855 74.0774 173.672ZM70.0496 173.833C70.7141 173.237 74.7084 169.32 75.2535 172.379C75.4318 173.386 74.7703 174.147 74.2006 174.713C73.1812 175.724 72.0563 176.657 70.9564 177.558C70.0699 178.287 66.9875 181.406 66.1938 178.607C65.9282 177.667 66.3234 177.141 66.8689 176.577C67.8544 175.565 68.9971 174.751 70.0496 173.833Z" fill="#03405D"/>
        <path d="M70.8554 166.9C70.7051 166.806 70.3163 166.933 70.1769 166.969C68.7801 167.323 67.5125 168.804 66.4253 169.75C65.5541 170.437 64.0281 171.377 63.6363 172.569C63.4648 173.091 63.7897 173.639 64.2725 173.613C64.436 173.604 64.6562 173.374 64.7943 173.285C66.0568 172.463 67.2779 171.558 68.4515 170.597C69.1092 170.059 69.7674 169.507 70.3544 168.872C70.5327 168.68 70.7868 168.457 70.9058 168.201C71.0189 167.952 71.2802 167.162 70.8554 166.9ZM65.9827 169.067C67.0521 168.134 69.7259 165.024 71.4793 166.291C73.4745 167.734 69.5963 170.705 68.8936 171.28C67.9199 172.076 66.9102 172.827 65.8798 173.535C65.4139 173.857 64.8599 174.382 64.2881 174.485C63.231 174.677 62.5796 173.468 62.8761 172.451C63.3077 170.958 64.9383 169.893 65.9827 169.067Z" fill="#03405D"/>
        <path d="M70.8552 166.9C71.28 167.162 71.0191 167.952 70.9051 168.2C70.7857 168.457 70.532 168.679 70.3537 168.871C69.7667 169.506 69.1085 170.058 68.4508 170.597C67.2772 171.557 66.0561 172.463 64.7936 173.284C64.6559 173.373 64.4353 173.603 64.2718 173.613C63.7885 173.638 63.4641 173.091 63.6356 172.569C64.0278 171.376 65.5538 170.437 66.4246 169.749C67.5114 168.804 68.779 167.323 70.1762 166.969C70.316 166.932 70.7044 166.806 70.8552 166.9Z" fill="#03405D"/>
        <path d="M73.9135 172.068C75.0566 172.503 74.3697 173.315 74.0783 173.672C73.1207 174.854 71.8026 175.808 70.6587 176.758C70.0679 177.25 69.4588 177.715 68.832 178.153C68.547 178.351 68.2098 178.706 67.8807 178.787C66.7372 179.073 66.6529 178.094 67.3136 177.262C68.1755 176.17 69.4698 175.406 70.4935 174.516C71.1186 173.956 71.7315 173.371 72.399 172.875C72.6993 172.652 73.5921 171.947 73.9135 172.068Z" fill="#03405D"/>
        <path d="M160.824 161.319L160.824 161.319C159.714 159.018 158.587 156.729 157.403 154.474L157.403 154.474C155.135 150.146 152.726 145.901 150.22 141.724L150.22 141.724C141.1 126.515 130.846 111.8 119.521 98.5344C117.805 96.524 116.059 94.5459 114.224 92.7013C114.16 92.6367 114.096 92.572 114.032 92.5071C113.237 91.7057 112.423 90.8856 111.561 90.3479C110.647 89.7771 109.748 89.5674 108.804 90.005L160.824 161.319ZM160.824 161.319C160.902 161.481 160.98 161.642 161.058 161.802C161.922 163.584 162.77 165.331 163.175 167.221L163.175 167.221M160.824 161.319L163.175 167.221M163.175 167.221C163.33 167.937 163.418 168.679 163.364 169.361C163.31 170.042 163.116 170.636 162.732 171.088C162.161 171.759 161.342 172.037 160.4 172.161C157.406 165.612 153.791 159.351 150.215 153.187C146.198 146.264 142.058 139.41 137.735 132.702L137.394 132.922M163.175 167.221L137.394 132.922M137.394 132.922L137.735 132.702C135.368 129.032 132.8 125.522 130.246 122.03C130.163 121.917 130.08 121.804 129.998 121.691C125.964 116.176 121.864 110.717 117.66 105.359L117.66 105.359C117.124 104.676 116.587 103.983 116.045 103.285C113.047 99.4198 109.927 95.3971 106.385 92.1854C107.08 91.2283 107.875 90.4372 108.804 90.005L137.394 132.922Z" fill="#056B9C" stroke="#494949" stroke-width="0.81"/>
        <path d="M71.7169 165.963L71.717 165.964C72.0203 166.183 72.2332 166.448 72.349 166.753C72.4643 167.058 72.4721 167.373 72.414 167.675C72.3009 168.266 71.9297 168.854 71.5131 169.367C70.754 170.302 69.7139 171.14 69.2707 171.497C69.2235 171.535 69.1831 171.567 69.1505 171.594C69.1504 171.594 69.1504 171.594 69.1503 171.594L68.894 171.28L71.7169 165.963ZM71.7169 165.963C71.1588 165.56 70.5326 165.517 69.9334 165.667M71.7169 165.963L69.9334 165.667M69.9334 165.667C69.3469 165.813 68.7659 166.146 68.2378 166.526M69.9334 165.667L68.2378 166.526M68.2378 166.526C67.7057 166.91 67.2013 167.36 66.7688 167.767M68.2378 166.526L66.7688 167.767M66.7688 167.767C66.5922 167.933 66.4313 168.088 66.2851 168.229M66.7688 167.767L66.2851 168.229M66.2851 168.229C66.066 168.44 65.88 168.62 65.7241 168.756M66.2851 168.229L65.7241 168.756M65.7241 168.756C65.5958 168.858 65.4543 168.966 65.3045 169.08C64.8728 169.41 64.3725 169.792 63.9229 170.214C63.3099 170.79 62.7331 171.49 62.4875 172.339C62.307 172.959 62.4124 173.636 62.733 174.14C63.0611 174.656 63.6391 175.016 64.3606 174.885C64.7336 174.817 65.0733 174.619 65.3535 174.427C65.4967 174.329 65.6348 174.224 65.7605 174.129L65.7757 174.117C65.8981 174.024 66.007 173.941 66.1097 173.87C66.1099 173.87 66.1101 173.87 66.1103 173.87L65.8802 173.537L65.7241 168.756ZM73.8018 196.867L73.8015 196.867C71.6463 195.788 69.5343 193.853 67.6549 192.07C63.6198 188.238 60.1958 183.503 57.7307 178.273C57.6377 178.075 57.5404 177.871 57.4406 177.662C56.9263 176.583 56.3442 175.362 55.9338 174.127C55.4412 172.643 55.2271 171.224 55.6191 170.069L55.6192 170.068C56.0068 168.923 56.8439 167.993 57.8489 167.158C58.3498 166.743 58.8836 166.358 59.4135 165.984C59.5082 165.917 59.603 165.851 59.6974 165.784C60.1272 165.483 60.5512 165.185 60.9348 164.889C65.8397 161.112 70.8038 157.433 75.8239 153.844C82.0298 163.928 88.5308 173.785 95.103 183.581C95.0737 183.602 95.0489 183.622 95.0282 183.641C90.5899 186.991 86.0373 190.159 81.3701 193.122C80.2262 193.848 79.078 194.562 77.9235 195.266C77.6729 195.418 77.4012 195.606 77.128 195.796C77.0511 195.849 76.974 195.903 76.8973 195.956C76.5395 196.202 76.176 196.442 75.8087 196.634C75.0632 197.023 74.3983 197.166 73.8018 196.867ZM75.6526 172.309L75.6525 172.308C75.5763 171.881 75.4322 171.529 75.2047 171.271C74.9699 171.005 74.6717 170.867 74.3509 170.83C73.7486 170.76 73.077 171.045 72.4923 171.386C71.442 171.999 70.3844 172.975 69.9309 173.394C69.8695 173.45 69.8192 173.497 69.7815 173.531C69.4347 173.833 69.0657 174.133 68.6903 174.438C67.9734 175.021 67.2331 175.623 66.579 176.294L66.578 176.296C66.302 176.581 66.0191 176.9 65.8538 177.295C65.6809 177.708 65.6494 178.17 65.8042 178.718L65.8044 178.718C66.0275 179.505 66.4521 179.991 67.0625 180.123C67.6222 180.244 68.2185 180.036 68.7304 179.764C69.552 179.327 70.3902 178.591 70.8983 178.144C71.0261 178.032 71.1329 177.938 71.2134 177.872C72.3131 176.971 73.4517 176.026 74.486 175.001L74.4864 175.001C75.0482 174.442 75.871 173.543 75.6526 172.309Z" fill="#056B9C" stroke="#494949" stroke-width="0.81"/>
        <path d="M55.2986 195.617C56.5159 193.624 58.0236 190.177 57.1876 188.821C56.8534 188.279 56.6031 188.123 56.2863 188.014C56.6679 189.286 55.9094 191.029 55.2427 192.074C54.7955 192.775 54.3067 193.451 53.7947 194.112C54.2826 194.627 54.7845 195.129 55.2986 195.617Z" fill="#CDE6F1"/>
        <path d="M189.636 141.238C187.407 141.869 185.186 142.531 182.966 143.194C181.948 143.493 180.934 143.806 179.92 144.119C179.826 144.148 179.733 144.177 179.64 144.206C179.355 144.294 179.069 144.382 178.784 144.47C177.962 144.723 177.139 144.975 176.32 145.24L189.636 141.238ZM189.636 141.238L192.976 140.28L189.636 141.238ZM220.984 133.236C220.352 133.34 219.72 133.442 219.086 133.535C218.645 133.601 218.204 133.669 217.763 133.737C216.766 133.892 215.768 134.046 214.768 134.18C214.286 134.246 213.804 134.314 213.322 134.383C212.363 134.519 211.403 134.655 210.441 134.774C210.133 134.813 209.826 134.853 209.518 134.893C208.382 135.041 207.246 135.188 206.107 135.315L220.984 133.236ZM220.984 133.236C220.981 133.236 220.978 133.237 220.975 133.238C220.627 133.318 220.279 133.398 219.931 133.48C219.931 133.48 219.931 133.48 219.931 133.48L216.542 134.253C215.886 134.403 215.23 134.551 214.573 134.699C214.174 134.789 213.775 134.879 213.377 134.969C212.429 135.111 211.481 135.254 210.535 135.412C210.238 135.46 209.941 135.508 209.644 135.557C208.504 135.741 207.364 135.925 206.227 136.13L220.984 133.236ZM201.126 135.726L205.285 134.533L201.126 135.726ZM201.126 135.726L197.411 136.154L197.411 136.154L193.07 136.642L193.069 136.642L189.523 137.068L196.617 134.817L196.618 134.817L204.619 132.309C204.619 132.309 204.619 132.309 204.619 132.309C205.057 132.174 205.494 132.037 205.932 131.9C206.828 131.619 207.723 131.339 208.623 131.072L208.623 131.072L212.637 129.861L212.638 129.861C214.357 129.334 216.085 128.838 217.813 128.341C218.771 128.066 219.729 127.791 220.686 127.511L220.663 127.433L220.686 127.511C222.421 127.002 224.164 126.517 225.907 126.032C226.856 125.768 227.806 125.504 228.756 125.236C228.756 125.236 228.756 125.236 228.756 125.236L232.8 124.129L232.8 124.129L236.848 123.036L236.849 123.036L240.903 121.964L240.904 121.964L244.966 120.92L244.967 120.919L249.04 119.91L249.04 119.91C250.372 119.576 251.707 119.253 253.046 118.944L253.072 119.028C251.783 119.507 250.491 119.973 249.195 120.427L249.195 120.427L245.239 121.827L245.238 121.828L241.272 123.192L241.271 123.192L237.296 124.529L237.296 124.53L233.315 125.847L233.315 125.847L229.329 127.149C229.329 127.149 229.329 127.149 229.329 127.149C228.389 127.448 227.45 127.751 226.512 128.053C224.79 128.608 223.069 129.162 221.339 129.693L221.361 129.765L221.339 129.693C220.393 129.984 219.448 130.28 218.504 130.575C216.781 131.115 215.059 131.654 213.327 132.162L213.327 132.162L209.31 133.361L209.309 133.361C208.411 133.634 207.509 133.893 206.607 134.152C206.166 134.278 205.726 134.405 205.285 134.533L201.126 135.726ZM190.599 138.888L193.325 138.42L193.326 138.42L197.624 137.649L197.625 137.649L206.227 136.13L190.599 138.888ZM190.599 138.888L197.269 137L197.269 137L201.158 135.885M190.599 138.888L201.158 135.885M201.158 135.885L206.107 135.315L201.158 135.885ZM178.807 144.547C179.093 144.459 179.378 144.372 179.664 144.283C179.757 144.254 179.85 144.226 179.944 144.197C180.958 143.884 181.971 143.571 182.989 143.272L182.989 143.272C185.209 142.608 187.429 141.947 189.658 141.316L189.658 141.316L192.997 140.358L192.998 140.358L196.346 139.433L199.695 138.509L199.696 138.509L203.054 137.624L203.055 137.623C203.952 137.382 204.854 137.16 205.757 136.937C205.979 136.883 206.2 136.828 206.422 136.773L206.422 136.773C207.545 136.492 208.671 136.22 209.8 135.961L209.8 135.961C211 135.676 212.203 135.401 213.407 135.128C213.421 135.126 213.435 135.124 213.45 135.122C213.925 135.051 214.4 134.98 214.875 134.906L214.876 134.906C215.864 134.751 216.854 134.615 217.845 134.479C218.295 134.418 218.746 134.356 219.197 134.292L219.197 134.292C220.226 134.143 221.258 134.016 222.29 133.89C222.375 133.879 222.461 133.869 222.546 133.858C222.106 133.989 221.667 134.122 221.228 134.255C220.89 134.357 220.552 134.46 220.214 134.561L220.213 134.561L216.889 135.579L216.889 135.579C216.248 135.775 215.608 135.973 214.968 136.17C213.394 136.656 211.819 137.142 210.24 137.611L210.24 137.611C209.132 137.949 208.02 138.273 206.906 138.588L206.906 138.588C206.679 138.653 206.452 138.719 206.225 138.784C205.339 139.039 204.453 139.294 203.563 139.529L203.562 139.529L200.209 140.434L200.208 140.434L196.844 141.3L193.48 142.165L193.479 142.166L190.106 142.998L190.106 142.998C187.86 143.561 185.605 144.094 183.349 144.624L183.349 144.624C182.291 144.878 181.229 145.118 180.167 145.357C180.099 145.372 180.03 145.388 179.962 145.403C179.665 145.47 179.369 145.537 179.072 145.604C178.239 145.793 177.406 145.982 176.569 146.159L176.569 146.159C174.328 146.648 172.084 147.121 169.829 147.552L169.806 147.467C171.976 146.717 174.158 146.01 176.345 145.318L176.345 145.317C177.164 145.053 177.985 144.8 178.807 144.547ZM217.825 134.319C217.089 134.419 216.352 134.52 215.617 134.629C215.937 134.557 216.257 134.484 216.578 134.411L216.578 134.411L219.967 133.638L219.968 133.638C220.314 133.556 220.662 133.476 221.01 133.396C221.764 133.222 222.519 133.047 223.27 132.861L223.419 133.586C223.037 133.635 222.655 133.682 222.272 133.729C221.239 133.855 220.204 133.983 219.174 134.132C218.725 134.195 218.275 134.257 217.825 134.319ZM197.225 136.845L189.239 139.105L188.842 137.313L193.088 136.803L193.089 136.803L197.429 136.315L197.429 136.315L200.176 135.998L197.225 136.845L197.225 136.845Z" fill="#FDC043" stroke="#494949" stroke-width="0.162"/>
        <path d="M245.164 157.361C246.451 157.012 247.737 156.656 249.022 156.3C249.634 156.131 250.245 155.961 250.857 155.792C250.858 155.792 250.858 155.792 250.858 155.792L254.397 154.793L245.164 157.361ZM245.164 157.361C244.791 157.398 244.417 157.436 244.043 157.473C242.087 157.663 240.134 157.875 238.181 158.087C237.959 158.111 237.736 158.136 237.514 158.16C239.287 157.714 241.064 157.281 242.841 156.848C243.059 156.795 243.277 156.742 243.495 156.689L243.495 156.688C245.277 156.247 247.065 155.826 248.853 155.405C249.452 155.264 250.05 155.123 250.649 154.981C250.649 154.981 250.649 154.981 250.649 154.981L254.233 154.155L254.233 154.155L254.333 154.133C255.495 153.866 256.656 153.6 257.822 153.352L257.822 153.352C258.528 153.2 259.233 153.046 259.937 152.892C261.096 152.638 262.255 152.385 263.416 152.142M245.164 157.361L263.416 152.142M263.416 152.142C262.294 152.483 261.171 152.814 260.046 153.146C259.341 153.353 258.635 153.561 257.93 153.772L257.93 153.772C256.826 154.103 255.719 154.417 254.61 154.732C254.539 154.753 254.468 154.773 254.397 154.793L263.416 152.142ZM229.566 162.405C230.673 162.106 231.781 161.816 232.89 161.525C233.214 161.441 233.537 161.356 233.861 161.271L233.861 161.271C235.826 160.749 237.795 160.249 239.767 159.758L239.767 159.757C240.398 159.597 241.029 159.44 241.661 159.284C242.508 159.196 243.356 159.106 244.203 159.011C244.954 158.929 245.706 158.848 246.457 158.767C247.681 158.635 248.905 158.504 250.128 158.365C250.01 158.39 249.892 158.416 249.774 158.441C248.484 158.715 247.194 158.99 245.9 159.249L245.9 159.249C245.217 159.387 244.536 159.526 243.854 159.666C242.545 159.934 241.237 160.203 239.924 160.455L239.924 160.455C237.93 160.851 235.936 161.237 233.936 161.601L233.936 161.601C233.604 161.663 233.272 161.725 232.941 161.786C231.816 161.996 230.692 162.205 229.566 162.405ZM242.834 158.998C243.108 158.931 243.383 158.864 243.658 158.798C244.334 158.634 245.011 158.47 245.687 158.303L245.687 158.303C246.951 157.991 248.217 157.694 249.484 157.397C250.167 157.237 250.85 157.077 251.533 156.915L251.713 158.018C249.957 158.228 248.199 158.417 246.441 158.606C245.689 158.687 244.937 158.768 244.185 158.85L244.185 158.85C243.735 158.9 243.284 158.95 242.834 158.998ZM246.343 157.404C247.726 157.264 249.109 157.124 250.493 156.994C250.145 157.076 249.797 157.158 249.448 157.239C248.181 157.536 246.913 157.834 245.649 158.146C244.973 158.312 244.297 158.476 243.621 158.64C242.958 158.801 242.295 158.962 241.633 159.124C240.515 159.241 239.396 159.353 238.277 159.465C238.077 159.485 237.877 159.505 237.677 159.525C239.541 159.04 241.4 158.539 243.26 158.039C243.442 157.99 243.624 157.941 243.806 157.892C244.269 157.77 244.731 157.646 245.194 157.521C245.577 157.482 245.96 157.443 246.343 157.404ZM243.218 157.883C241.06 158.463 238.904 159.043 236.74 159.6L236.53 158.429C237.086 158.369 237.643 158.309 238.199 158.248C240.152 158.036 242.104 157.824 244.059 157.634L244.059 157.634C244.106 157.629 244.153 157.625 244.2 157.62C244.054 157.659 243.909 157.697 243.764 157.736L243.764 157.736C243.582 157.785 243.4 157.834 243.218 157.883Z" fill="#FDC043" stroke="#494949" stroke-width="0.162"/>
        <path d="M205.969 97.2298C205.698 97.3373 205.428 97.4442 205.157 97.5504C206.422 96.9055 207.694 96.2773 208.966 95.6492C209.281 95.4935 209.597 95.3378 209.912 95.1819C211.731 94.2741 213.561 93.3879 215.393 92.5096C215.803 92.3102 216.214 92.1125 216.625 91.9159C216.811 91.8574 216.997 91.7988 217.183 91.7401M205.969 97.2298C205.709 97.3607 205.449 97.4922 205.19 97.6244C206.531 97.0986 207.863 96.5558 209.196 96.013C209.503 95.8881 209.81 95.7631 210.117 95.6383C212.003 94.8791 213.88 94.0983 215.753 93.3096C216.991 92.7968 218.222 92.2692 219.453 91.7416C220.09 91.4689 220.726 91.1961 221.364 90.9254C222.579 90.4111 223.788 89.8822 224.996 89.3533C225.366 89.1916 225.735 89.0299 226.105 88.8687C225.835 88.9576 225.565 89.0462 225.294 89.1343M205.969 97.2298C206.977 96.7216 207.989 96.2219 209.002 95.7219C209.317 95.5662 209.633 95.4105 209.948 95.2545L209.948 95.2544C211.767 94.3469 213.596 93.4608 215.428 92.5827L215.429 92.5824C216.012 92.2987 216.597 92.0185 217.183 91.7401M205.969 97.2298C207.037 96.8051 208.101 96.3716 209.165 95.938C209.472 95.8131 209.779 95.6881 210.086 95.5633L210.086 95.5632C211.972 94.8042 213.849 94.0236 215.721 93.235L215.722 93.2348C216.959 92.7222 218.19 92.1949 219.42 91.6675C220.057 91.3947 220.694 91.1218 221.332 90.8508L221.332 90.8508C222.547 90.3367 223.755 89.8081 224.963 89.2794C225.073 89.2311 225.184 89.1827 225.294 89.1343M225.294 89.1343C225.555 89.0204 225.815 88.9066 226.076 88.7929C226.311 88.6901 226.547 88.5874 226.783 88.485L226.779 88.4746M225.294 89.1343C224.122 89.517 222.948 89.8931 221.773 90.2691C221.056 90.4987 220.339 90.7283 219.623 90.9594M226.779 88.4746C226.803 88.4667 226.827 88.4588 226.85 88.4509L226.448 87.3985C226.426 87.409 226.403 87.4195 226.381 87.4301M226.779 88.4746C225.099 89.0341 223.412 89.5742 221.725 90.1145C221.008 90.3442 220.29 90.5739 219.573 90.8052L219.573 90.8053C219.14 90.9457 218.707 91.0849 218.274 91.2233M226.779 88.4746L226.381 87.4301M226.381 87.4301L226.375 87.4145C226.23 87.4581 226.085 87.5019 225.94 87.5458C225.753 87.6023 225.567 87.6591 225.381 87.716M226.381 87.4301C225.75 87.7241 225.119 88.0158 224.487 88.3075C223.301 88.8559 222.115 89.4041 220.935 89.9666L220.935 89.9666C220.303 90.2667 219.672 90.5645 219.04 90.8622C218.785 90.9826 218.529 91.1029 218.274 91.2233M225.381 87.716C225.557 87.6341 225.734 87.5521 225.911 87.47C224.387 87.9318 222.867 88.408 221.348 88.8841C221.144 88.9478 220.941 89.0115 220.738 89.0752C220.59 89.1498 220.443 89.2242 220.295 89.2985M225.381 87.716C224.043 88.1246 222.708 88.5429 221.372 88.9612C221.013 89.0737 220.654 89.1862 220.295 89.2985M225.381 87.716C225.061 87.8641 224.741 88.0119 224.421 88.1598C223.234 88.7085 222.046 89.2575 220.865 89.8203C220.235 90.1199 219.604 90.4175 218.972 90.7151C218.356 91.0057 217.739 91.2964 217.123 91.589M220.295 89.2985C220.137 89.3481 219.978 89.3977 219.819 89.4472C219.66 89.497 219.5 89.5468 219.341 89.5965M220.295 89.2985C219.866 89.5147 219.437 89.7299 219.007 89.9439M219.341 89.5965C219.49 89.5218 219.64 89.4469 219.789 89.3719C219.937 89.2973 220.086 89.2227 220.234 89.1479M219.341 89.5965C219.205 89.6641 219.07 89.7315 218.935 89.7988L218.935 89.799C218.735 89.8989 218.536 89.9989 218.337 90.0989C216.372 91.0861 214.406 92.0732 212.43 93.0387M219.341 89.5965C219.295 89.6107 219.249 89.6249 219.204 89.6391L219.203 89.6392C217.336 90.2165 215.475 90.8144 213.614 91.4125C213.072 91.5866 212.531 91.7607 211.989 91.9343M220.234 89.1479C220.392 89.0986 220.549 89.0493 220.707 88.9999C221.767 88.4636 222.825 87.9223 223.883 87.3809C224.432 87.1002 224.98 86.8196 225.529 86.5397M220.234 89.1479C221.44 88.5399 222.643 87.9245 223.846 87.3089C224.394 87.0283 224.943 86.7476 225.492 86.4676L225.492 86.4677L225.529 86.5397M220.234 89.1479C219.875 89.2603 219.515 89.3726 219.155 89.4844M225.529 86.5397L228.795 84.8477M225.529 86.5397L225.492 86.4675L228.758 84.7759L228.795 84.8477M228.795 84.8477L228.962 84.7609C229.995 84.224 231.027 83.6874 232.052 83.1354C232.69 82.7926 233.33 82.4521 233.97 82.1115C235.267 81.4213 236.564 80.731 237.852 80.0223C237.587 80.1354 237.323 80.2492 237.059 80.3636M228.795 84.8477L228.758 84.7758L228.925 84.6891C229.957 84.1522 230.989 83.6158 232.013 83.0641L232.013 83.064C232.653 82.7209 233.293 82.3802 233.933 82.0396C234.977 81.484 236.02 80.9286 237.059 80.3636M237.059 80.3636C237.312 80.2262 237.564 80.0881 237.816 79.9494C236.469 80.5257 235.13 81.1203 233.791 81.715C233.125 82.011 232.458 82.307 231.791 82.6007C230.736 83.0628 229.688 83.5404 228.64 84.018C228.572 84.0491 228.504 84.0801 228.436 84.1112L225.091 85.6415M237.059 80.3636C235.978 80.8322 234.902 81.3103 233.825 81.7886C233.158 82.0847 232.491 82.3809 231.823 82.6749L231.823 82.6749C230.769 83.1367 229.722 83.6141 228.674 84.0917L228.47 84.1849L228.436 84.1113L228.469 84.1849L225.125 85.715L225.091 85.6415M225.091 85.6415C224.544 85.8958 223.997 86.1493 223.45 86.4029C221.772 87.1804 220.095 87.9579 218.427 88.7544C218.255 88.8356 218.083 88.9169 217.911 88.9982C216.053 89.8761 214.196 90.754 212.347 91.6493C212.532 91.59 212.717 91.5307 212.902 91.4713M225.091 85.6415L225.125 85.7152L225.125 85.715C224.578 85.9694 224.031 86.223 223.484 86.4766C221.806 87.254 220.129 88.0312 218.461 88.8275L218.461 88.8276C218.289 88.9089 218.117 88.9901 217.945 89.0714C216.262 89.8671 214.579 90.6628 212.902 91.4713M212.902 91.4713C212.727 91.5556 212.552 91.6401 212.377 91.7247C212.245 91.7886 212.113 91.8525 211.981 91.9165L211.989 91.9343M212.902 91.4713C213.122 91.4004 213.343 91.3294 213.564 91.2585C215.425 90.6603 217.287 90.0621 219.155 89.4844M211.989 91.9343C211.963 91.9425 211.937 91.9508 211.911 91.959C211.909 91.9596 211.908 91.9602 211.906 91.9608L211.904 91.9543C211.9 91.9563 211.895 91.9584 211.891 91.9604L212.341 93.0869C212.346 93.0855 212.35 93.0842 212.354 93.0828L212.351 93.077C212.353 93.0761 212.355 93.0752 212.357 93.0743C212.381 93.0624 212.405 93.0506 212.43 93.0387M211.989 91.9343L212.43 93.0387M212.43 93.0387L212.437 93.0569C212.566 93.0163 212.696 92.9759 212.825 92.9354C212.994 92.8827 213.162 92.83 213.331 92.7773M213.331 92.7773C213.172 92.8553 213.014 92.9331 212.855 93.0108C213.248 92.8878 213.642 92.765 214.035 92.6422C214.889 92.3756 215.743 92.109 216.596 91.8404C216.771 91.7564 216.947 91.6726 217.123 91.589M213.331 92.7773C213.558 92.7064 213.784 92.6356 214.011 92.5648C215.049 92.2407 216.087 91.9166 217.123 91.589M213.331 92.7773C215.029 91.9418 216.72 91.0926 218.41 90.2436C218.609 90.1437 218.808 90.0438 219.007 89.9439M217.123 91.589C217.313 91.529 217.503 91.4688 217.693 91.4085C217.887 91.3469 218.08 91.2852 218.274 91.2233M218.274 91.2233C218.09 91.3101 217.906 91.397 217.723 91.4841C217.542 91.5693 217.363 91.6546 217.183 91.7401M217.183 91.7401C217.997 91.4827 218.81 91.223 219.623 90.9594M212.294 93.1866L212.312 93.1795L212.312 93.1798L212.312 93.1809C212.306 93.1828 212.3 93.1847 212.294 93.1866ZM212.294 93.1866L212.27 93.1093C212.274 93.108 212.278 93.1067 212.282 93.1055L211.835 91.9876C211.831 91.9895 211.828 91.9914 211.824 91.9933L211.788 91.9205M212.294 93.1866L211.788 91.9205M211.788 91.9205L211.806 91.9134L211.805 91.9121C211.8 91.9149 211.794 91.9177 211.788 91.9205ZM219.623 90.9594L219.598 90.8825L219.623 90.9594C219.623 90.9594 219.623 90.9594 219.623 90.9594ZM219.007 89.9439C219.007 89.9438 219.007 89.9438 219.007 89.9437L218.971 89.8714L219.007 89.9439C219.007 89.9439 219.007 89.9439 219.007 89.9439ZM219.155 89.4844L219.18 89.5618L219.156 89.4844C219.156 89.4844 219.156 89.4844 219.155 89.4844Z" fill="#FDC043" stroke="#494949" stroke-width="0.162"/>
        <path d="M176.242 47.6301C176.02 47.8887 175.798 48.1474 175.575 48.4062C174.716 49.4074 173.855 50.409 172.983 51.4M176.242 47.6301L172.983 51.4M176.242 47.6301C175.483 48.8071 174.715 49.9785 173.946 51.1503C173.74 51.4646 173.534 51.779 173.328 52.0935M176.242 47.6301L173.328 52.0935M172.983 51.4C172.52 51.9273 172.058 52.4564 171.597 52.9856C171.151 53.496 170.706 54.0066 170.259 54.5158M172.983 51.4L170.259 54.5158M170.259 54.5158C169.657 55.4291 169.058 56.3446 168.459 57.2603C168.332 57.4549 168.204 57.6496 168.077 57.8442C169.366 56.4157 170.666 54.9978 171.967 53.5802C172.097 53.438 172.227 53.2959 172.358 53.1538C172.68 52.7995 173.004 52.4461 173.328 52.0935M170.259 54.5158L173.328 52.0935M169.223 58.6053C170.435 57.24 171.636 55.8654 172.838 54.4906C172.986 54.3215 173.134 54.1523 173.282 53.9832L173.282 53.983C174.498 52.6026 175.699 51.2084 176.899 49.8139C177.298 49.3503 177.697 48.8867 178.097 48.4236C178.097 48.4235 178.097 48.4235 178.097 48.4234L180.483 45.6244L169.223 58.6053ZM169.223 58.6053C169.351 58.4128 169.479 58.2204 169.608 58.0279C170.691 56.4017 171.775 54.7751 172.84 53.1362C173.045 52.8217 173.25 52.5075 173.456 52.1933M169.223 58.6053L173.456 52.1933M173.456 52.1933C174.361 51.2094 175.272 50.2308 176.184 49.252C176.614 48.7901 177.044 48.3281 177.473 47.8655C177.473 47.8655 177.473 47.8654 177.473 47.8654L179.993 45.1862L179.993 45.1861L180.062 45.1131C180.88 44.2451 181.698 43.3778 182.529 42.5221L182.529 42.522C183.035 41.999 183.54 41.4745 184.044 40.9501C184.862 40.0993 185.68 39.2487 186.506 38.4054M173.456 52.1933L186.506 38.4054M186.506 38.4054C185.752 39.3272 184.99 40.2416 184.227 41.1565C183.768 41.7072 183.309 42.2581 182.852 42.8108L182.852 42.8109C182.119 43.6992 181.374 44.5758 180.629 45.4531C180.58 45.5101 180.532 45.5672 180.483 45.6243L186.506 38.4054ZM164.086 61.1763C163.321 62.0211 162.557 62.8655 161.786 63.7038C162.489 62.7888 163.2 61.8799 163.911 60.9706C164.112 60.7136 164.313 60.4566 164.514 60.1995L164.514 60.1992C165.759 58.5928 167.022 57.0008 168.293 55.4149L168.294 55.4145C169.129 54.3593 169.976 53.3149 170.824 52.2699C171.256 51.737 171.689 51.2039 172.12 50.6692L172.12 50.6691C172.947 49.6403 173.787 48.6218 174.626 47.6029C174.7 47.5127 174.775 47.4226 174.849 47.3324C174.156 48.3619 173.469 49.3954 172.783 50.4287C172.371 51.0473 171.96 51.6658 171.548 52.2834C171.072 52.9927 170.6 53.7044 170.13 54.4173C169.702 54.9047 169.273 55.3909 168.84 55.8748L168.84 55.8751C167.495 57.3984 166.143 58.9152 164.773 60.4169L164.773 60.4172C164.543 60.6701 164.315 60.9232 164.086 61.1763ZM172.918 50.5175C173.904 49.0336 174.89 47.5502 175.894 46.0783L176.79 46.7474C176.342 47.2647 175.897 47.7833 175.452 48.3018C174.592 49.3025 173.733 50.3027 172.861 51.2929L172.861 51.293C172.397 51.8213 171.935 52.3508 171.474 52.8802C171.291 53.0896 171.108 53.299 170.926 53.5084C171.177 53.1295 171.429 52.7512 171.683 52.3734L171.683 52.3733C172.095 51.7551 172.507 51.1363 172.918 50.5175ZM169.473 57.9375C169.157 58.412 168.841 58.8865 168.525 59.3614L167.583 58.6351C169.072 56.9758 170.579 55.333 172.086 53.6896C172.216 53.5475 172.347 53.4054 172.477 53.2633L172.477 53.2631C172.578 53.1522 172.679 53.0414 172.78 52.9307C172.755 52.9697 172.729 53.0087 172.704 53.0477L172.704 53.0478C171.639 54.6859 170.556 56.3115 169.473 57.9375Z" fill="#FDC043" stroke="#494949" stroke-width="0.162"/>
        <path d="M184.657 75.7927C184.386 76.0919 184.113 76.3892 183.84 76.6862C183.626 76.9195 183.412 77.1527 183.199 77.3866L183.199 77.3872L181.202 79.5391L181.202 79.5392C180.831 79.938 180.459 80.3358 180.088 80.7334C179.123 81.7655 178.158 82.797 177.214 83.8455L177.214 83.8461L177.214 83.8461C176.552 84.5653 175.901 85.2937 175.257 86.0279L175.257 86.0279C174.617 86.7656 173.977 87.5028 173.352 88.2521L173.352 88.2525C172.258 89.55 171.197 90.8754 170.136 92.2018C169.977 92.4007 169.818 92.5998 169.658 92.7987C168.446 94.3298 167.243 95.8683 166.054 97.4184C164.869 98.9726 163.689 100.531 162.534 102.108L162.534 102.108C162.008 102.816 161.495 103.534 160.981 104.252C160.926 104.33 160.87 104.408 160.815 104.485C160.67 104.688 160.524 104.891 160.379 105.093C159.954 105.686 159.529 106.277 159.118 106.88L159.117 106.881C158.962 107.106 158.807 107.33 158.651 107.554C158.248 108.135 157.846 108.714 157.456 109.305L157.456 109.306C156.921 110.099 156.394 110.898 155.882 111.709L156.037 111.836C156.731 111.175 157.411 110.501 158.083 109.821L158.084 109.82C158.587 109.322 159.076 108.813 159.566 108.303C159.755 108.107 159.944 107.91 160.134 107.714L160.134 107.714C160.643 107.194 161.138 106.663 161.633 106.132C161.805 105.947 161.976 105.763 162.149 105.579M184.657 75.7927L162.208 105.634M184.657 75.7927C184.166 76.6686 183.665 77.5386 183.155 78.4033L183.155 78.4034C182.531 79.4652 181.893 80.5189 181.243 81.5651L181.243 81.5652C180.595 82.6127 179.941 83.6561 179.265 84.6865L179.265 84.6868L178.257 86.2369L178.257 86.2374C178.03 86.5911 177.796 86.9386 177.56 87.287C177.451 87.4494 177.341 87.612 177.232 87.7755L177.232 87.7756C176.844 88.3578 176.452 88.9372 176.058 89.515M162.149 105.579L162.208 105.634M162.149 105.579L162.149 105.579L162.208 105.634M162.149 105.579L162.313 105.404C162.927 104.747 163.54 104.091 164.141 103.426L164.141 103.425C165.461 101.982 166.756 100.52 168.047 99.0519C168.047 99.052 168.047 99.052 168.047 99.052L168.108 99.1053C166.817 100.573 165.521 102.036 164.201 103.48C163.6 104.146 162.986 104.803 162.372 105.459L162.208 105.634M183.294 78.4856C183.905 77.4493 184.504 76.4054 185.088 75.3526L186.003 76.0027C185.616 76.5123 185.239 77.0303 184.862 77.5475C184.679 77.7987 184.496 78.0496 184.312 78.2993L184.312 78.3L182.595 80.681L182.595 80.681C182.28 81.1194 181.966 81.5585 181.652 81.9975C180.827 83.1505 180.003 84.3027 179.158 85.4384L179.158 85.4391C178.626 86.17 178.084 86.8935 177.537 87.6118C177.589 87.5345 177.641 87.4572 177.693 87.3798C177.929 87.0306 178.166 86.6803 178.393 86.325C178.393 86.3249 178.393 86.3248 178.393 86.3247L179.401 84.7753C180.077 83.7432 180.732 82.6985 181.381 81.6505C182.031 80.6032 182.67 79.5485 183.294 78.4855L183.225 78.4444L183.294 78.4856Z" fill="#FDC043" stroke="#494949" stroke-width="0.162"/>
        <path d="M135.134 52.5499C135.134 52.5498 135.134 52.5497 135.134 52.5496L135.214 52.5613L135.134 52.5499ZM135.134 52.5499C135.065 53.0227 134.994 53.4956 134.923 53.9687C134.778 54.9348 134.632 55.9018 134.504 56.8708M135.134 52.5499L134.504 56.8708M134.504 56.8708C134.464 57.1602 134.424 57.4497 134.384 57.7391C134.225 58.8912 134.065 60.0442 133.927 61.2003L133.315 66.1442L132.167 70.0234L132.167 70.0237L130.225 76.6721L130.715 73.9565L130.715 73.9559L131.522 69.6635L131.522 69.6633L133.113 61.0744C133.329 59.9333 133.524 58.7886 133.719 57.645C133.768 57.3541 133.818 57.0632 133.868 56.7724L134.504 56.8708ZM135.116 46.0804C135.252 45.6437 135.389 45.2067 135.523 44.769C135.512 44.8476 135.502 44.9262 135.492 45.0048C135.355 46.045 135.219 47.0842 135.06 48.1201L135.06 48.1204C134.993 48.566 134.928 49.0116 134.863 49.4569C134.719 50.4516 134.574 51.4453 134.41 52.4362L134.41 52.4365C134.331 52.9176 134.255 53.3986 134.179 53.8793C134.177 53.8881 134.176 53.8969 134.175 53.9056C133.892 55.1061 133.608 56.3057 133.313 57.5027L133.313 57.5032C133.044 58.6298 132.763 59.7531 132.472 60.8738L132.472 60.874C132.414 61.0979 132.357 61.3218 132.3 61.5456C132.071 62.4442 131.842 63.3419 131.593 64.2343L131.593 64.2347L130.68 67.5859L130.679 67.5868L129.727 70.9269L128.774 74.2671L128.774 74.2679L127.788 77.5992L127.787 77.5995C127.138 79.8224 126.458 82.0371 125.776 84.2514L125.776 84.2518C125.468 85.2677 125.147 86.2794 124.825 87.2921L124.737 87.5682C124.642 87.8659 124.548 88.1636 124.454 88.4613C124.198 89.2684 123.942 90.0749 123.675 90.8784L123.675 90.8789C122.964 93.0593 122.239 95.2352 121.471 97.3992L121.385 97.3756C121.835 95.1241 122.327 92.884 122.835 90.6476L122.835 90.6471C123.017 89.8186 123.212 88.9935 123.406 88.1677C123.478 87.8655 123.549 87.5631 123.619 87.2605L123.68 87.0024C123.924 85.9599 124.168 84.9183 124.427 83.8804L124.427 83.88C124.976 81.6289 125.527 79.3785 126.109 77.1373L126.109 77.137L126.97 73.7711L126.97 73.7703L127.864 70.4136L128.758 67.057L128.759 67.0561L129.692 63.7103L129.692 63.7099C129.933 62.8274 130.193 61.9502 130.453 61.0721C130.522 60.8397 130.591 60.6072 130.66 60.3745L130.66 60.3743C130.984 59.2632 131.319 58.1544 131.665 57.0495L131.666 57.0489C132.145 55.4801 132.642 53.9162 133.139 52.3519C133.344 51.7073 133.549 51.0625 133.753 50.4174L133.753 50.4173L134.798 47.1014L134.798 47.101C134.903 46.7608 135.01 46.4207 135.116 46.0804ZM135.653 45.0241C135.702 44.6504 135.751 44.277 135.801 43.9039L136.525 44.059C136.331 44.8149 136.149 45.5742 135.967 46.3328C135.885 46.6738 135.804 47.0147 135.721 47.355L135.721 47.3555L134.919 50.7384L134.919 50.7384C134.843 51.0585 134.768 51.3787 134.693 51.6989C134.809 50.9595 134.916 50.2187 135.024 49.4784C135.089 49.0334 135.154 48.5886 135.22 48.1444C135.379 47.1066 135.516 46.0648 135.653 45.0241ZM134.345 70.6946L132.034 77.7728L132.49 74.2261L132.49 74.2255L133.015 69.8893L133.015 69.8891L133.474 66.1774L134.701 62.0291C134.701 62.029 134.701 62.029 134.701 62.0289C134.835 61.5847 134.966 61.1403 135.098 60.6962C135.363 59.8006 135.628 58.9059 135.907 58.0146L135.907 58.0143L137.14 54.0072L137.14 54.0068C137.662 52.2807 138.215 50.5649 138.769 48.8483C139.073 47.9049 139.377 46.9614 139.676 46.0156L139.599 45.9912L139.676 46.0156C140.219 44.2993 140.785 42.5908 141.352 40.8817C141.665 39.9378 141.977 38.9936 142.287 38.0478C142.287 38.0477 142.287 38.0476 142.287 38.0475L143.623 34.0735L143.623 34.0732L144.973 30.1034L144.973 30.103L146.344 26.1396L146.344 26.1391L147.742 22.1844L147.742 22.1837L149.175 18.2394L149.175 18.2392C149.641 16.9472 150.117 15.6587 150.607 14.3747L150.691 14.4007C150.37 15.7372 150.036 17.0694 149.691 18.3988L149.691 18.399L148.648 22.4637L148.647 22.4644L147.569 26.5176L147.569 26.5181L146.463 30.5631L146.463 30.5635L145.336 34.6027L145.336 34.603L144.196 38.6375C144.196 38.6375 144.196 38.6376 144.196 38.6377C143.916 39.5965 143.64 40.556 143.365 41.5154C142.869 43.2425 142.373 44.9689 141.853 46.6884L141.853 46.6885C141.566 47.6372 141.285 48.5869 141.004 49.5364C140.491 51.2666 139.979 52.996 139.436 54.7165L139.436 54.7169L138.191 58.7204L138.191 58.7208C137.916 59.6214 137.627 60.5176 137.338 61.4143C137.198 61.8475 137.058 62.2808 136.92 62.7148C136.92 62.7148 136.92 62.7148 136.92 62.7149L134.345 70.6943L134.345 70.6946ZM132.323 70.0691L133.193 67.1257L132.854 69.8694L132.854 69.8696L132.33 74.2054L132.33 74.2061L131.784 78.4481L129.996 78.036L132.323 70.0694L132.323 70.0691Z" fill="#FDC043" stroke="#494949" stroke-width="0.162"/>
        <path d="M203.931 183.248L207.578 183.879L207.578 183.879C208.319 184.009 209.06 184.137 209.801 184.264C210.799 184.436 211.797 184.608 212.793 184.785C213.52 184.863 214.246 184.95 214.971 185.036L214.972 185.036C215.942 185.156 216.911 185.286 217.879 185.429C219.283 185.621 220.684 185.84 222.084 186.059C222.617 186.143 223.151 186.226 223.684 186.308L226.536 186.743C226.331 186.7 226.127 186.657 225.923 186.614C225.923 186.614 225.923 186.614 225.923 186.614L225.94 186.534C224.734 186.279 223.532 186.009 222.333 185.723L203.931 183.248ZM203.931 183.248L203.93 183.248L202.112 182.912C202.112 182.912 202.112 182.912 202.112 182.912C202.072 182.904 202.033 182.897 201.994 182.89C203.852 183.044 205.711 183.188 207.569 183.327C209.92 183.511 212.27 183.684 214.622 183.848L214.622 183.848C214.663 183.851 214.705 183.854 214.747 183.857C214.88 183.893 215.014 183.93 215.147 183.966C215.337 184.018 215.527 184.07 215.716 184.123C216.121 184.236 216.526 184.348 216.933 184.451C216.934 184.451 216.934 184.451 216.934 184.451L218.723 184.916L218.743 184.837L218.723 184.916L218.723 184.916C219.916 185.23 221.115 185.52 222.314 185.802L203.931 183.248ZM214.774 183.696C215.096 183.719 215.418 183.742 215.74 183.765C216.546 183.824 217.352 183.882 218.159 183.927L218.159 183.927C219.335 184.001 220.511 184.071 221.687 184.126L221.687 184.126C224.04 184.25 226.394 184.34 228.75 184.411L228.75 184.411C230.267 184.466 231.784 184.495 233.302 184.525C234.141 184.542 234.98 184.558 235.82 184.579M214.774 183.696L235.818 184.66M214.774 183.696C213.255 183.28 211.742 182.84 210.229 182.4C209.511 182.191 208.792 181.982 208.073 181.776C208.072 181.776 208.072 181.776 208.072 181.776L204.516 180.746L204.515 180.745L202.732 180.251L202.732 180.251C202.522 180.194 202.312 180.135 202.102 180.076C201.895 180.018 201.687 179.96 201.48 179.903C203.569 179.95 205.658 180.008 207.746 180.074L207.746 180.074C210.102 180.14 212.458 180.217 214.813 180.303C215.183 180.317 215.552 180.329 215.922 180.342C216.73 180.369 217.537 180.396 218.344 180.437L218.345 180.437C219.522 180.489 220.698 180.544 221.874 180.613L221.874 180.613C224.226 180.74 226.577 180.899 228.927 181.078L228.927 181.078C230.441 181.184 231.953 181.315 233.465 181.447C234.301 181.519 235.138 181.592 235.975 181.66M214.774 183.696L235.975 181.66M235.82 184.579L235.818 184.66M235.82 184.579C235.82 184.579 235.82 184.579 235.82 184.579L235.818 184.66M235.82 184.579C236.583 184.597 237.347 184.603 238.112 184.608C238.526 184.611 238.941 184.615 239.356 184.62M235.818 184.66C236.582 184.678 237.347 184.684 238.112 184.689C238.526 184.692 238.941 184.696 239.355 184.701M239.356 184.62C239.356 184.62 239.356 184.62 239.356 184.62L239.355 184.701M239.356 184.62C239.726 184.622 240.095 184.626 240.464 184.63C241.274 184.638 242.083 184.647 242.893 184.64L242.894 184.64L246.433 184.631M239.356 184.62C239.356 184.62 239.356 184.62 239.356 184.62L239.355 184.701M239.355 184.701L246.433 184.631M246.433 184.631L246.434 184.712M246.433 184.631L242.894 184.721L246.434 184.712M246.434 184.712L246.434 184.631M246.434 184.712L249.976 184.661L253.521 184.569C254.703 184.53 255.885 184.48 257.069 184.415L257.087 184.073C255.917 183.884 254.746 183.709 253.575 183.545L250.06 183.078L246.543 182.653L243.024 182.268C242.225 182.176 241.426 182.1 240.627 182.023C240.252 181.987 239.878 181.951 239.503 181.913C239.091 181.875 238.678 181.834 238.266 181.793C237.505 181.718 236.743 181.642 235.981 181.579L246.434 184.631M246.434 184.631L249.974 184.58L249.975 184.58L253.518 184.488C253.518 184.488 253.518 184.488 253.518 184.488C254.676 184.45 255.833 184.401 256.991 184.339L257.002 184.142C255.857 183.957 254.711 183.786 253.564 183.625C253.564 183.625 253.564 183.625 253.564 183.625L250.051 183.159L250.05 183.159L246.534 182.733L246.533 182.733L243.015 182.349L243.015 182.349C242.217 182.257 241.419 182.18 240.62 182.104C240.245 182.068 239.87 182.032 239.495 181.994C239.082 181.955 238.669 181.914 238.257 181.873C237.496 181.798 236.736 181.723 235.975 181.66M246.434 184.631L235.975 181.66M194.501 183.708C196.455 183.777 198.407 183.877 200.358 183.984L188.634 183.483C189.353 183.485 190.07 183.503 190.788 183.522C191.049 183.528 191.309 183.535 191.57 183.541L191.568 183.622C191.568 183.622 191.568 183.622 191.569 183.622C191.649 183.624 191.729 183.626 191.809 183.628C192.708 183.649 193.605 183.671 194.501 183.708L194.501 183.708ZM182.804 183.802L182.821 183.601L191.415 185.341C191.415 185.341 191.415 185.341 191.415 185.341C191.157 185.3 190.899 185.26 190.642 185.22C189.932 185.111 189.224 185.001 188.516 184.874L188.516 184.874C188.247 184.827 187.978 184.781 187.71 184.736C187.013 184.617 186.317 184.498 185.622 184.362L185.621 184.362C184.681 184.188 183.741 184.005 182.804 183.802ZM215.441 185.274C215.351 185.257 215.261 185.241 215.17 185.224C216.066 185.336 216.962 185.457 217.856 185.589L217.857 185.589C219.259 185.781 220.658 186 222.057 186.219C222.591 186.303 223.125 186.386 223.66 186.468L223.66 186.468L226.562 186.911L226.563 186.911C226.878 186.956 227.195 187.002 227.511 187.049C228.135 187.141 228.76 187.233 229.386 187.313L229.209 188.421C228.048 188.101 226.884 187.797 225.717 187.507C224.52 187.208 223.321 186.925 222.117 186.656C220.915 186.384 219.711 186.12 218.5 185.88C218.5 185.88 218.5 185.88 218.5 185.88L216.689 185.514C216.688 185.514 216.688 185.514 216.688 185.514C216.274 185.427 215.857 185.351 215.441 185.274ZM228.595 188.421C228.191 188.405 227.787 188.391 227.383 188.378C227.067 188.367 226.75 188.357 226.434 188.345L226.433 188.345L223.499 188.263L223.499 188.263C222.953 188.248 222.406 188.235 221.86 188.221C220.45 188.187 219.04 188.153 217.632 188.093L217.632 188.093C216.655 188.061 215.679 188.015 214.704 187.961C213.729 187.901 212.755 187.841 211.782 187.762L211.782 187.762C210.069 187.633 208.361 187.459 206.652 187.286C206.418 187.262 206.184 187.238 205.95 187.214C204.008 187.007 202.067 186.788 200.128 186.551L228.595 188.421ZM200.37 182.585L200.749 179.888C200.779 179.888 200.808 179.889 200.838 179.89L200.456 182.603C200.427 182.597 200.398 182.591 200.37 182.585ZM207.582 183.166C205.26 182.992 202.939 182.81 200.618 182.611L200.994 179.941C201.349 180.034 201.702 180.132 202.056 180.231C202.267 180.29 202.477 180.349 202.689 180.407C202.689 180.407 202.689 180.407 202.69 180.407L204.471 180.901L204.472 180.902L208.027 181.931L208.028 181.931C208.746 182.137 209.464 182.346 210.182 182.555C211.44 182.921 212.699 183.287 213.961 183.639C211.834 183.489 209.708 183.332 207.582 183.166L207.582 183.166Z" fill="#FDC043" stroke="#494949" stroke-width="0.162"/>
    </g>
    <rect x="0.5" y="0.5" width="379" height="199" rx="7.5" stroke="#E4E4E4"/>
    <defs>
        <linearGradient id="paint0_linear_2193_5632" x1="401" y1="85" x2="-10" y2="76.5" gradientUnits="userSpaceOnUse">
            <stop offset="0.131219" stop-color="#F8F8E0"/>
            <stop offset="0.66946" stop-color="#FFFDB7"/>
            <stop offset="0.955914" stop-color="#F8DF7C"/>
        </linearGradient>
        <clipPath id="clip0_2193_5632">
            <rect width="380" height="200" rx="8" fill="white"/>
        </clipPath>
        <clipPath id="clip1_2193_5632">
            <rect width="380" height="200" fill="white"/>
        </clipPath>
    </defs>
</svg>
