<svg width="53" height="48" viewBox="0 0 53 48" fill="none" xmlns="http://www.w3.org/2000/svg">
    <path d="M14.2462 23.95C14.2576 23.7972 14.2823 23.6666 14.3215 23.5584C14.3604 23.4503 14.4153 23.3619 14.4839 23.2929C10.4629 29.5356 21.3216 26.0062 21.4389 25.927L18.8538 20.415C18.8538 21.469 19.4499 21.6859 19.0404 20.3188C19.3268 21.369 19.2088 20.2744 19.3268 20.2596C19.4436 20.2454 19.5988 20.2352 19.7896 20.2307C19.9821 20.2258 20.2294 20.2231 20.5345 20.2231C20.9069 20.2231 21.2084 20.2307 21.4389 20.2454C21.67 20.2596 21.8827 20.9658 22 21C22.1191 21.0346 20.9244 21.4762 20.9629 21.5356C21.0027 21.5949 21.5 21.5037 21.5 21.5925L10.9629 42.0122L25.3624 36.4581C25.4503 36.4581 25.5314 36.4852 25.6049 36.5391C25.6788 36.5933 25.7427 36.6796 25.7944 36.7976C25.851 36.9155 25.8895 37.0706 25.9136 37.2625C25.9383 37.4543 25.9509 37.6929 25.9509 37.9789C25.9509 38.2537 25.9365 38.4875 25.9069 38.6797C25.8774 38.8718 25.8354 39.0236 25.7819 39.1369C25.727 39.2504 25.6644 39.3313 25.5957 39.3805C25.5285 39.4296 25.4503 39.4546 25.3624 39.4546H14.8504C14.774 39.4546 14.6999 39.4296 14.6314 39.3805C14.5622 39.3313 14.5013 39.2504 14.4466 39.1369C14.3935 39.0236 14.3516 38.8718 14.3215 38.6797C14.2919 38.4875 14.2763 38.2537 14.2763 37.9789C14.2763 37.6929 14.2901 37.4543 14.3137 37.2625C14.339 37.0706 14.3779 36.9155 14.4327 36.7976C14.4857 36.6796 14.5465 36.5933 14.6157 36.5391C14.6843 36.4852 14.7625 36.4581 14.8504 36.4581L21.9613 44.1905L30.4629 42.0356L20.9629 18.0356L15.3372 25.7284C15.1115 25.8365 14.9286 25.9028 14.7848 25.927C14.6421 25.9518 14.5297 25.9225 14.4466 25.8386C14.3636 25.7555 14.3075 25.6103 14.2763 25.4037C14.2462 25.1967 14.2336 24.9064 14.2336 24.533C14.2336 24.2965 14.2384 24.102 14.2462 23.95ZM28.7778 36.3918C28.7965 36.1999 28.8278 36.0449 28.8736 35.9266C28.9175 35.8088 26.9416 40.642 27 40.5925C27.059 40.5436 37.4643 42.5925 37.5424 42.5925C37.6406 42.5925 41.2984 39.9797 41.5 40.0925C41.7015 40.2059 30.1486 36.0105 30.4785 36.1481C30.8058 36.286 31.2059 36.4115 31.6772 36.5245C32.1477 36.638 32.7128 36.6941 33.3698 36.6941C33.9396 36.6941 34.4571 36.6356 34.9236 36.5174C35.3899 36.3991 35.7823 36.2096 36.1078 35.949C36.4316 35.6884 36.6819 35.361 36.8587 34.9674C37.0357 34.574 37.1229 34.1019 37.1229 33.5507C37.1229 33.0783 37.0495 32.6574 36.9027 32.2889C36.7559 31.9193 36.5254 31.6068 36.2114 31.3517C35.8966 31.0955 35.4898 30.9039 34.9892 30.776C34.4886 30.6478 33.8801 30.5839 33.1635 30.5839C32.5954 30.5839 32.0779 30.6137 31.6115 30.6728C31.1452 30.7317 35.4002 28.4473 34.9892 28.4473C34.7039 28.4473 29.8057 30.6897 29.6824 30.5467C29.5602 30.4047 34 44.476 34 44.0925L47.5 32.0925C47.5 31.699 32.3465 21.7647 32.5 21.5925C32.6529 21.4209 30.1222 20.3562 30.455 20.3562L36.2114 30.6282L40.5 21.0925C40.5879 21.0925 39.6515 20.3854 39.7298 20.4443C39.808 20.504 25.4452 32.9647 25.5 33.0925C33.3162 39.706 41.4753 26.3811 41.5 26.5925C41.5235 26.8038 40.0817 21.6992 40.0817 21.9945C40.0817 22.5843 40.0299 23.0129 39.9283 23.2781C39.8254 23.5435 39.675 23.6769 39.4794 23.6769H32.7079V27.7654C33.0509 27.7255 33.3922 27.7009 33.7315 27.6916C34.0691 27.6815 34.4247 27.6761 34.7984 27.6761C35.8281 27.6761 36.7432 27.7968 37.5424 28.0378C38.3421 28.279 39.0149 28.633 39.5594 29.1006C40.1052 29.5675 40.518 30.1479 40.8033 30.8424C41.0879 31.5359 41.2305 32.3405 41.2305 33.2551C41.2305 34.2887 41.0518 35.2111 40.6937 36.0232C40.3339 36.8348 39.8296 37.5188 39.1773 38.0742C38.5251 38.6302 37.7397 39.0562 36.8215 39.3512C35.9026 39.6459 34.8857 39.7937 33.7657 39.7937C33.1772 39.7937 32.6188 39.7569 32.0886 39.6827C31.5598 39.6092 32.5098 41.7057 32.0886 41.5925C31.6663 41.4795 37.3938 35.0805 37.1229 34.9674C36.854 34.8542 29.1769 38.8565 29.0938 38.7822C29.0095 38.7091 28.9488 38.6278 28.9091 38.5391C28.8687 38.4507 28.8393 38.3448 28.814 38.2218C28.7888 38.0992 39.0109 38.7795 39 38.5925C38.9916 38.4058 28.7483 37.3488 28.7483 37.093C28.7483 36.8172 28.7574 36.583 28.7778 36.3918ZM2.96289 42.0122C2.96289 42.8234 3.29021 43.6167 3.86233 44.1905C4.43524 44.7637 5.2253 45.0925 6.03406 45.0925H6.42044H8.05535H49.4288C50.2375 45.0925 51.0276 44.7637 51.5999 44.1899C52.1739 43.6167 52.4994 42.8234 52.4994 42.0122V16.5356H2.96289V42.0122Z" fill="#E44B30"/>
    <path d="M20.5487 21.56C20.642 21.5333 20.7287 21.5133 20.8087 21.5C20.8887 21.4733 20.9687 21.4533 21.0487 21.44C21.142 21.4133 21.2553 21.4 21.3887 21.4C21.5353 21.3867 21.6687 21.3933 21.7887 21.42C21.922 21.4333 22.042 21.4733 22.1487 21.54C22.2687 21.5933 22.3553 21.68 22.4087 21.8C22.462 21.9333 22.4953 22.0933 22.5087 22.28C22.5353 22.4533 22.5487 22.6333 22.5487 22.82C22.5487 23.0067 22.542 23.1933 22.5287 23.38C22.5287 23.5533 22.5287 23.7133 22.5287 23.86V34.08C22.5287 34.2267 22.5287 34.38 22.5287 34.54C22.542 34.6867 22.542 34.84 22.5287 35C22.5153 35.16 22.4753 35.3133 22.4087 35.46C22.342 35.5933 22.242 35.7067 22.1087 35.8C21.922 35.9467 21.6687 36.02 21.3487 36.02C21.042 36.0333 20.7753 36 20.5487 35.92C20.3087 35.84 20.162 35.6867 20.1087 35.46C20.0687 35.2333 20.0487 35.0067 20.0487 34.78C19.9553 33.02 19.9087 31.3 19.9087 29.62C19.922 27.9267 19.9287 26.1867 19.9287 24.4C19.902 24.4667 19.8087 24.5267 19.6487 24.58C19.502 24.6333 19.3287 24.68 19.1287 24.72C18.942 24.76 18.762 24.7933 18.5887 24.82C18.4153 24.8467 18.302 24.86 18.2487 24.86C17.902 24.9 17.582 24.8667 17.2887 24.76C17.0087 24.64 16.8487 24.3733 16.8087 23.96C16.7553 23.5333 16.8487 23.2 17.0887 22.96C17.342 22.72 17.662 22.54 18.0487 22.42C18.4753 22.2733 18.8887 22.1267 19.2887 21.98C19.702 21.82 20.122 21.68 20.5487 21.56Z" fill="white"/>
    <path d="M28.2885 24.02C28.4085 23.9 28.5618 23.8267 28.7485 23.8C28.9485 23.76 29.1818 23.74 29.4485 23.74H34.3885C34.5618 23.74 34.7552 23.74 34.9685 23.74C35.1952 23.7267 35.4085 23.74 35.6085 23.78C35.8085 23.82 35.9818 23.8933 36.1285 24C36.2885 24.0933 36.4018 24.2467 36.4685 24.46C36.5085 24.5933 36.5218 24.7467 36.5085 24.92C36.5085 25.0933 36.4752 25.26 36.4085 25.42C36.3552 25.5667 36.2685 25.7 36.1485 25.82C36.0285 25.9267 35.8818 25.9867 35.7085 26C35.3618 26.0667 35.0018 26.0867 34.6285 26.06C34.2552 26.02 33.8952 26 33.5485 26C33.1618 26 32.8218 26.0133 32.5285 26.04C32.2352 26.0667 31.9018 26.08 31.5285 26.08C31.3818 26.08 31.1952 26.0733 30.9685 26.06C30.7418 26.0467 30.5685 26.06 30.4485 26.1C30.3418 26.1267 30.2552 26.18 30.1885 26.26C30.1352 26.34 30.0952 26.4333 30.0685 26.54C30.0418 26.6333 30.0285 26.7333 30.0285 26.84C30.0285 26.9467 30.0285 27.04 30.0285 27.12C30.0285 27.3467 30.0152 27.58 29.9885 27.82C29.9752 28.0467 29.9618 28.2733 29.9485 28.5C29.9218 28.8067 29.9618 28.98 30.0685 29.02C30.1885 29.0467 30.3885 29.02 30.6685 28.94C31.1485 28.82 31.6418 28.76 32.1485 28.76C32.8285 28.76 33.4618 28.8533 34.0485 29.04C34.6352 29.2133 35.1418 29.4867 35.5685 29.86C36.0085 30.22 36.3485 30.68 36.5885 31.24C36.8418 31.7867 36.9685 32.4267 36.9685 33.16C36.9685 33.2933 36.9618 33.42 36.9485 33.54C36.9485 33.66 36.9352 33.78 36.9085 33.9C36.8018 34.74 36.4885 35.48 35.9685 36.12C35.4485 36.76 34.7885 37.22 33.9885 37.5C33.0418 37.86 32.0618 38.0267 31.0485 38C30.0352 37.96 29.1018 37.6667 28.2485 37.12C28.0085 36.9733 27.7885 36.8 27.5885 36.6C27.3885 36.3867 27.2418 36.1467 27.1485 35.88C27.0418 35.6 27.0085 35.3133 27.0485 35.02C27.1018 34.7133 27.2818 34.4867 27.5885 34.34C27.8152 34.2333 28.0218 34.2 28.2085 34.24C28.4085 34.2667 28.5952 34.3333 28.7685 34.44C28.9418 34.5333 29.1085 34.6533 29.2685 34.8C29.4418 34.9333 29.6152 35.0467 29.7885 35.14C30.0952 35.2867 30.4152 35.4133 30.7485 35.52C31.0818 35.6133 31.4352 35.66 31.8085 35.66C32.6352 35.66 33.2952 35.44 33.7885 35C34.2952 34.56 34.5485 33.9667 34.5485 33.22C34.5485 32.5 34.2885 31.94 33.7685 31.54C33.2485 31.1267 32.5485 30.92 31.6685 30.92C31.4418 30.92 31.2152 30.9333 30.9885 30.96C30.7618 30.9867 30.5352 31.0333 30.3085 31.1C30.0952 31.1533 29.8818 31.2133 29.6685 31.28C29.4685 31.3467 29.2685 31.3933 29.0685 31.42C28.8685 31.4333 28.6685 31.4133 28.4685 31.36C28.2818 31.2933 28.1018 31.1533 27.9285 30.94C27.7552 30.7533 27.6685 30.5267 27.6685 30.26C27.6685 29.9933 27.6818 29.7467 27.7085 29.52C27.7352 29.1333 27.7552 28.7467 27.7685 28.36C27.7818 27.9733 27.8018 27.5867 27.8285 27.2C27.8552 26.8133 27.8752 26.4333 27.8885 26.06C27.9152 25.6733 27.9418 25.2867 27.9685 24.9C27.9818 24.6733 28.0152 24.4933 28.0685 24.36C28.1218 24.2267 28.1952 24.1133 28.2885 24.02Z" fill="white"/>
    <path d="M3.46289 15.5015H52.9994V13.6777H3.46289V15.5015Z" fill="#ECB41B"/>
    <path d="M8.55535 4.91011H6.53406C5.7253 4.91011 4.93524 5.23859 4.36233 5.81231C3.79021 6.38583 3.46289 7.17916 3.46289 7.98955V11.5693H52.9994V7.98955C52.9994 7.17916 52.6739 6.38583 52.0999 5.81231C51.5276 5.23859 50.7375 4.91011 49.9288 4.91011H44.7152V8.94269C44.7152 9.69505 44.1068 10.3054 43.3558 10.3054H40.4926C39.7418 10.3054 39.1333 9.69505 39.1333 8.94269V4.91011H17.3295V8.94269C17.3295 9.69505 16.7206 10.3054 15.9696 10.3054H13.1064C12.3554 10.3054 11.7471 9.69505 11.7471 8.94269V4.91011H8.55535Z" fill="#ECB41B"/>
    <path d="M3.46289 13.6777H52.9994V11.5693H3.46289V13.6777Z" fill="#FFD258"/>
    <path d="M15.9686 8.94263V1.36276H13.1055V8.94263H15.9686Z" fill="#E44B30"/>
    <path d="M15.9705 8.94275H13.1073V1.36288H15.9705V8.94275ZM13.1073 0.000210762C12.3564 0.000210762 11.748 0.610216 11.748 1.36288V4.91017V8.94275C11.748 9.69512 12.3564 10.3054 13.1073 10.3054H15.9705C16.7215 10.3054 17.3304 9.69512 17.3304 8.94275V4.91017V1.36288C17.3304 0.610216 16.7215 0.000210762 15.9705 0.000210762H13.1073Z" fill="white"/>
    <path d="M43.3573 8.94263V1.36276H40.4941V8.94263H43.3573Z" fill="#E44B30"/>
    <path d="M43.3534 8.94275H40.4903V1.36288H43.3534V8.94275ZM40.4903 0.000210762C39.7394 0.000210762 39.1309 0.610216 39.1309 1.36288V4.91017V8.94275C39.1309 9.69512 39.7394 10.3054 40.4903 10.3054H43.3534C44.1044 10.3054 44.7128 9.69512 44.7128 8.94275V4.91017V1.36288C44.7128 0.610216 44.1044 0.000210762 43.3534 0.000210762H40.4903Z" fill="white"/>
    <path d="M1.13976 26.9968C1.34506 31.8609 0.740416 36.8232 1.13976 41.6778C1.22113 42.6669 1.54881 44.9024 2.04507 45.4773C2.54878 46.4022 3.032 46.4022 3.54875 46.4022C4.04873 46.4022 4.54872 46.4022 5.32461 46.3814C6.09787 46.5791 6.95372 46.7334 7.74538 46.7334C8.8458 46.7334 9.95485 46.8047 11.0485 46.8882C14.3496 47.1402 17.538 46.8882 20.8015 46.8882" stroke="black" stroke-linecap="round"/>
</svg>
