<svg width="64" height="60" viewBox="0 0 64 60" fill="none" xmlns="http://www.w3.org/2000/svg">
    <g clip-path="url(#clip0_1843_85478)">
        <path opacity="0.5" d="M3.12826 3.86504H55.2576C56.7932 3.86504 58.0335 5.09191 58.0335 6.59951V53.178C58.0335 54.6856 56.7932 55.9127 55.2576 55.9127H3.12826C1.59258 55.9127 0.352344 54.6856 0.352344 53.178V6.59968C0.352344 5.09207 1.59259 3.86504 3.12826 3.86504ZM13.2494 7.01916C13.2494 8.02047 14.0717 8.82757 15.0805 8.82757C16.089 8.82757 16.9115 8.02067 16.9115 7.01916C16.9115 6.01785 16.0892 5.21074 15.0805 5.21074C14.0719 5.21074 13.2494 6.01765 13.2494 7.01916ZM41.4743 7.01916C41.4743 8.02047 42.2966 8.82757 43.3053 8.82757C44.314 8.82757 45.1366 8.02069 45.1364 7.01916C45.1364 6.01785 44.3141 5.21074 43.3053 5.21074C42.2968 5.21074 41.4743 6.01765 41.4743 7.01916Z" fill="#E6F3F8" stroke="#252525" stroke-width="0.4"/>
        <path d="M18.4019 30.3514V25.524H25.1532V30.3514H18.4019Z" fill="#BD3D44" stroke="#252525" stroke-width="0.4"/>
        <path d="M3.13094 3.86357H55.2603C56.7959 3.86357 58.0362 5.09044 58.036 6.59819V10.804H0.355029V6.59821C0.355029 5.0906 1.59527 3.86357 3.13094 3.86357ZM13.2521 7.0177C13.2521 8.01901 14.0744 8.82611 15.0832 8.82611C16.0917 8.82611 16.9142 8.01921 16.9142 7.0177C16.9142 6.01639 16.0919 5.20928 15.0832 5.20928C14.0746 5.20928 13.2521 6.01619 13.2521 7.0177ZM41.477 7.0177C41.477 8.01901 42.2993 8.82611 43.308 8.82611C44.3167 8.82611 45.1393 8.01922 45.1391 7.0177C45.1391 6.01639 44.3168 5.20928 43.308 5.20928C42.2995 5.20928 41.477 6.01619 41.477 7.0177Z" fill="#056B9C" stroke="#252525" stroke-width="0.4"/>
        <path d="M55.1245 52.5169H3.28101V17.9666H55.1247V52.5169H55.1245ZM3.49703 52.3039H54.9085V18.1796H3.49703V52.3039Z" fill="#DBDBDB"/>
        <path d="M55.0127 25.1169H3.38525V25.3258H55.0127V25.1169Z" fill="#DBDBDB"/>
        <path d="M55.0127 30.5586H3.38525V30.7674H55.0127V30.5586Z" fill="#DBDBDB"/>
        <path d="M55.0127 35.9932H3.38525V36.202H55.0127V35.9932Z" fill="#DBDBDB"/>
        <path d="M55.0127 41.4307H3.38525V41.6395H55.0127V41.4307Z" fill="#DBDBDB"/>
        <path d="M55.0127 46.8694H3.38525V47.0782H55.0127V46.8694Z" fill="#DBDBDB"/>
        <path d="M10.8468 18.0718H10.637V52.4091H10.8468V18.0718Z" fill="#DBDBDB"/>
        <path d="M18.2101 18.0718H18.0002V52.4091H18.2101V18.0718Z" fill="#DBDBDB"/>
        <path d="M25.5705 18.0718H25.3606V52.4091H25.5705V18.0718Z" fill="#DBDBDB"/>
        <path d="M32.9257 18.0718H32.7158V52.4091H32.9257V18.0718Z" fill="#DBDBDB"/>
        <path d="M40.2944 18.0718H40.0845V52.4091H40.2944V18.0718Z" fill="#DBDBDB"/>
        <path d="M47.655 18.0718H47.4451V52.4091H47.655V18.0718Z" fill="#DBDBDB"/>
        <path d="M6.76951 28.6138C6.6579 28.6138 6.55217 28.5962 6.45231 28.5609C6.35392 28.5242 6.27461 28.4758 6.21441 28.4156L6.2915 28.29C6.34143 28.3414 6.40825 28.384 6.49196 28.4178C6.57713 28.4515 6.66965 28.4684 6.76951 28.4684C6.89727 28.4684 6.99493 28.4405 7.06248 28.3847C7.1315 28.3289 7.16601 28.254 7.16601 28.16C7.16601 28.066 7.13224 27.9911 7.06468 27.9353C6.9986 27.8795 6.8936 27.8516 6.74968 27.8516H6.63954V27.7349L7.11535 27.1379L7.13738 27.1996H6.27829V27.0586H7.26954V27.171L6.79374 27.7679L6.71664 27.7173H6.77612C6.96115 27.7173 7.09919 27.7584 7.19024 27.8406C7.28276 27.9229 7.32902 28.0286 7.32902 28.1578C7.32902 28.2445 7.30846 28.3223 7.26734 28.3913C7.22622 28.4603 7.16381 28.5147 7.0801 28.5543C6.99787 28.594 6.89433 28.6138 6.76951 28.6138ZM7.82124 28.6006V27.1247L7.89173 27.1996H7.45778V27.0586H7.97984V28.6006H7.82124Z" fill="#BD3D44"/>
        <path d="M14.1229 28.6138C14.004 28.6138 13.8982 28.583 13.8057 28.5213C13.7132 28.4581 13.6405 28.3686 13.5876 28.2525C13.5348 28.1351 13.5083 27.9941 13.5083 27.8296C13.5083 27.6651 13.5348 27.5249 13.5876 27.4089C13.6405 27.2914 13.7132 27.2018 13.8057 27.1401C13.8982 27.077 14.004 27.0454 14.1229 27.0454C14.2419 27.0454 14.3476 27.077 14.4401 27.1401C14.5326 27.2018 14.6053 27.2914 14.6582 27.4089C14.7125 27.5249 14.7397 27.6651 14.7397 27.8296C14.7397 27.9941 14.7125 28.1351 14.6582 28.2525C14.6053 28.3686 14.5326 28.4581 14.4401 28.5213C14.3476 28.583 14.2419 28.6138 14.1229 28.6138ZM14.1229 28.4684C14.214 28.4684 14.2933 28.4442 14.3608 28.3957C14.4284 28.3458 14.4812 28.2738 14.5194 28.1799C14.5576 28.0844 14.5767 27.9677 14.5767 27.8296C14.5767 27.6916 14.5576 27.5756 14.5194 27.4816C14.4812 27.3861 14.4284 27.3142 14.3608 27.2657C14.2933 27.2158 14.214 27.1908 14.1229 27.1908C14.0348 27.1908 13.9562 27.2158 13.8872 27.2657C13.8182 27.3142 13.7646 27.3861 13.7264 27.4816C13.6882 27.5756 13.6691 27.6916 13.6691 27.8296C13.6691 27.9677 13.6882 28.0844 13.7264 28.1799C13.7646 28.2738 13.8182 28.3458 13.8872 28.3957C13.9562 28.4442 14.0348 28.4684 14.1229 28.4684ZM15.2356 28.6006V27.1247L15.3061 27.1996H14.8721V27.0586H15.3942V28.6006H15.2356Z" fill="#D3D3D3"/>
        <path d="M21.2438 28.6138C21.1248 28.6138 21.0191 28.583 20.9266 28.5213C20.8341 28.4581 20.7614 28.3686 20.7085 28.2525C20.6556 28.1351 20.6292 27.9941 20.6292 27.8296C20.6292 27.6651 20.6556 27.5249 20.7085 27.4089C20.7614 27.2914 20.8341 27.2018 20.9266 27.1401C21.0191 27.077 21.1248 27.0454 21.2438 27.0454C21.3627 27.0454 21.4685 27.077 21.561 27.1401C21.6535 27.2018 21.7262 27.2914 21.7791 27.4089C21.8334 27.5249 21.8606 27.6651 21.8606 27.8296C21.8606 27.9941 21.8334 28.1351 21.7791 28.2525C21.7262 28.3686 21.6535 28.4581 21.561 28.5213C21.4685 28.583 21.3627 28.6138 21.2438 28.6138ZM21.2438 28.4684C21.3348 28.4684 21.4141 28.4442 21.4817 28.3957C21.5492 28.3458 21.6021 28.2738 21.6403 28.1799C21.6785 28.0844 21.6975 27.9677 21.6975 27.8296C21.6975 27.6916 21.6785 27.5756 21.6403 27.4816C21.6021 27.3861 21.5492 27.3142 21.4817 27.2657C21.4141 27.2158 21.3348 27.1908 21.2438 27.1908C21.1557 27.1908 21.0771 27.2158 21.0081 27.2657C20.9391 27.3142 20.8855 27.3861 20.8473 27.4816C20.8091 27.5756 20.79 27.6916 20.79 27.8296C20.79 27.9677 20.8091 28.0844 20.8473 28.1799C20.8855 28.2738 20.9391 28.3458 21.0081 28.3957C21.0771 28.4442 21.1557 28.4684 21.2438 28.4684ZM22.059 28.6006V28.4882L22.7001 27.8604C22.7588 27.8032 22.8029 27.7532 22.8322 27.7107C22.8616 27.6666 22.8814 27.6255 22.8917 27.5873C22.902 27.5491 22.9071 27.5131 22.9071 27.4794C22.9071 27.3898 22.8763 27.3193 22.8146 27.2679C22.7544 27.2165 22.6648 27.1908 22.5459 27.1908C22.4548 27.1908 22.374 27.2047 22.3036 27.2327C22.2345 27.2606 22.1751 27.3039 22.1251 27.3626L22.0128 27.2657C22.073 27.1952 22.1501 27.1409 22.2441 27.1027C22.3381 27.0645 22.4431 27.0454 22.5591 27.0454C22.6633 27.0454 22.7537 27.0623 22.83 27.0961C22.9064 27.1284 22.9651 27.1761 23.0062 27.2393C23.0488 27.3024 23.0701 27.3766 23.0701 27.4617C23.0701 27.5117 23.0628 27.5609 23.0481 27.6093C23.0349 27.6578 23.0099 27.7092 22.9732 27.7635C22.938 27.8164 22.8858 27.8766 22.8168 27.9442L22.2287 28.5213L22.1846 28.4596H23.1406V28.6006H22.059Z" fill="white"/>
        <path d="M28.5848 28.6138C28.4659 28.6138 28.3602 28.583 28.2676 28.5213C28.1751 28.4581 28.1024 28.3686 28.0496 28.2525C27.9967 28.1351 27.9703 27.9941 27.9703 27.8296C27.9703 27.6651 27.9967 27.5249 28.0496 27.4089C28.1024 27.2914 28.1751 27.2018 28.2676 27.1401C28.3602 27.077 28.4659 27.0454 28.5848 27.0454C28.7038 27.0454 28.8095 27.077 28.902 27.1401C28.9946 27.2018 29.0672 27.2914 29.1201 27.4089C29.1745 27.5249 29.2016 27.6651 29.2016 27.8296C29.2016 27.9941 29.1745 28.1351 29.1201 28.2525C29.0672 28.3686 28.9946 28.4581 28.902 28.5213C28.8095 28.583 28.7038 28.6138 28.5848 28.6138ZM28.5848 28.4684C28.6759 28.4684 28.7552 28.4442 28.8227 28.3957C28.8903 28.3458 28.9432 28.2738 28.9813 28.1799C29.0195 28.0844 29.0386 27.9677 29.0386 27.8296C29.0386 27.6916 29.0195 27.5756 28.9813 27.4816C28.9432 27.3861 28.8903 27.3142 28.8227 27.2657C28.7552 27.2158 28.6759 27.1908 28.5848 27.1908C28.4967 27.1908 28.4182 27.2158 28.3491 27.2657C28.2801 27.3142 28.2265 27.3861 28.1883 27.4816C28.1502 27.5756 28.1311 27.6916 28.1311 27.8296C28.1311 27.9677 28.1502 28.0844 28.1883 28.1799C28.2265 28.2738 28.2801 28.3458 28.3491 28.3957C28.4182 28.4442 28.4967 28.4684 28.5848 28.4684ZM28.4306 31.6138C28.319 31.6138 28.2133 31.5962 28.1134 31.5609C28.015 31.5242 27.9357 31.4758 27.8755 31.4156L27.9526 31.29C28.0026 31.3414 28.0694 31.384 28.1531 31.4178C28.2383 31.4515 28.3308 31.4684 28.4306 31.4684C28.5584 31.4684 28.6561 31.4405 28.7236 31.3847C28.7926 31.3289 28.8271 31.254 28.8271 31.16C28.8271 31.066 28.7934 30.9911 28.7258 30.9353C28.6597 30.8795 28.5547 30.8516 28.4108 30.8516H28.3007V30.7349L28.7765 30.1379L28.7985 30.1996H27.9394V30.0586H28.9307V30.171L28.4549 30.7679L28.3778 30.7173H28.4373C28.6223 30.7173 28.7603 30.7584 28.8514 30.8406C28.9439 30.9229 28.9902 31.0286 28.9902 31.1578C28.9902 31.2445 28.9696 31.3223 28.9285 31.3913C28.8874 31.4603 28.8249 31.5147 28.7412 31.5543C28.659 31.594 28.5555 31.6138 28.4306 31.6138Z" fill="#D3D3D3"/>
        <path d="M35.8241 28.6138C35.7051 28.6138 35.5994 28.583 35.5069 28.5213C35.4144 28.4581 35.3417 28.3686 35.2888 28.2525C35.2359 28.1351 35.2095 27.9941 35.2095 27.8296C35.2095 27.6651 35.2359 27.5249 35.2888 27.4089C35.3417 27.2914 35.4144 27.2018 35.5069 27.1401C35.5994 27.077 35.7051 27.0454 35.8241 27.0454C35.943 27.0454 36.0488 27.077 36.1413 27.1401C36.2338 27.2018 36.3065 27.2914 36.3594 27.4089C36.4137 27.5249 36.4409 27.6651 36.4409 27.8296C36.4409 27.9941 36.4137 28.1351 36.3594 28.2525C36.3065 28.3686 36.2338 28.4581 36.1413 28.5213C36.0488 28.583 35.943 28.6138 35.8241 28.6138ZM35.8241 28.4684C35.9151 28.4684 35.9944 28.4442 36.062 28.3957C36.1295 28.3458 36.1824 28.2738 36.2206 28.1799C36.2588 28.0844 36.2779 27.9677 36.2779 27.8296C36.2779 27.6916 36.2588 27.5756 36.2206 27.4816C36.1824 27.3861 36.1295 27.3142 36.062 27.2657C35.9944 27.2158 35.9151 27.1908 35.8241 27.1908C35.736 27.1908 35.6574 27.2158 35.5884 27.2657C35.5194 27.3142 35.4658 27.3861 35.4276 27.4816C35.3894 27.5756 35.3703 27.6916 35.3703 27.8296C35.3703 27.9677 35.3894 28.0844 35.4276 28.1799C35.4658 28.2738 35.5194 28.3458 35.5884 28.3957C35.6574 28.4442 35.736 28.4684 35.8241 28.4684ZM36.6416 28.1953V28.0807L37.4588 27.0586H37.635L36.8244 28.0807L36.7385 28.0543H37.9787V28.1953H36.6416ZM37.5117 28.6006V28.1953L37.5161 28.0543V27.6974H37.6703V28.6006H37.5117Z" fill="#D3D3D3"/>
        <path d="M43.2665 28.6138C43.1475 28.6138 43.0418 28.583 42.9493 28.5213C42.8568 28.4581 42.7841 28.3686 42.7312 28.2525C42.6783 28.1351 42.6519 27.9941 42.6519 27.8296C42.6519 27.6651 42.6783 27.5249 42.7312 27.4089C42.7841 27.2914 42.8568 27.2018 42.9493 27.1401C43.0418 27.077 43.1475 27.0454 43.2665 27.0454C43.3854 27.0454 43.4912 27.077 43.5837 27.1401C43.6762 27.2018 43.7489 27.2914 43.8018 27.4089C43.8561 27.5249 43.8833 27.6651 43.8833 27.8296C43.8833 27.9941 43.8561 28.1351 43.8018 28.2525C43.7489 28.3686 43.6762 28.4581 43.5837 28.5213C43.4912 28.583 43.3854 28.6138 43.2665 28.6138ZM43.2665 28.4684C43.3575 28.4684 43.4368 28.4442 43.5044 28.3957C43.5719 28.3458 43.6248 28.2738 43.663 28.1799C43.7012 28.0844 43.7203 27.9677 43.7203 27.8296C43.7203 27.6916 43.7012 27.5756 43.663 27.4816C43.6248 27.3861 43.5719 27.3142 43.5044 27.2657C43.4368 27.2158 43.3575 27.1908 43.2665 27.1908C43.1784 27.1908 43.0998 27.2158 43.0308 27.2657C42.9618 27.3142 42.9082 27.3861 42.87 27.4816C42.8318 27.5756 42.8127 27.6916 42.8127 27.8296C42.8127 27.9677 42.8318 28.0844 42.87 28.1799C42.9082 28.2738 42.9618 28.3458 43.0308 28.3957C43.0998 28.4442 43.1784 28.4684 43.2665 28.4684ZM44.5972 28.6138C44.4871 28.6138 44.3821 28.5962 44.2822 28.5609C44.1823 28.5242 44.103 28.4758 44.0443 28.4156L44.1214 28.29C44.1699 28.3414 44.2359 28.384 44.3197 28.4178C44.4048 28.4515 44.4966 28.4684 44.595 28.4684C44.7257 28.4684 44.8248 28.4398 44.8924 28.3825C44.9614 28.3238 44.9959 28.2474 44.9959 28.1534C44.9959 28.0873 44.9798 28.0308 44.9474 27.9838C44.9166 27.9353 44.8637 27.8979 44.7888 27.8715C44.714 27.845 44.6112 27.8318 44.4805 27.8318H44.1522L44.2315 27.0586H45.0752V27.1996H44.2954L44.3769 27.1225L44.3086 27.7701L44.2271 27.6908H44.5157C44.6714 27.6908 44.7962 27.7099 44.8902 27.7481C44.9842 27.7863 45.0517 27.8399 45.0928 27.9089C45.1354 27.9765 45.1567 28.0558 45.1567 28.1468C45.1567 28.2335 45.1362 28.3128 45.095 28.3847C45.0539 28.4552 44.9922 28.511 44.91 28.5521C44.8278 28.5932 44.7235 28.6138 44.5972 28.6138Z" fill="#D3D3D3"/>
        <path d="M50.5582 28.6138C50.4393 28.6138 50.3335 28.583 50.241 28.5213C50.1485 28.4581 50.0758 28.3686 50.0229 28.2525C49.9701 28.1351 49.9436 27.9941 49.9436 27.8296C49.9436 27.6651 49.9701 27.5249 50.0229 27.4089C50.0758 27.2914 50.1485 27.2018 50.241 27.1401C50.3335 27.077 50.4393 27.0454 50.5582 27.0454C50.6772 27.0454 50.7829 27.077 50.8754 27.1401C50.9679 27.2018 51.0406 27.2914 51.0935 27.4089C51.1478 27.5249 51.175 27.6651 51.175 27.8296C51.175 27.9941 51.1478 28.1351 51.0935 28.2525C51.0406 28.3686 50.9679 28.4581 50.8754 28.5213C50.7829 28.583 50.6772 28.6138 50.5582 28.6138ZM50.5582 28.4684C50.6493 28.4684 50.7286 28.4442 50.7961 28.3957C50.8637 28.3458 50.9165 28.2738 50.9547 28.1799C50.9929 28.0844 51.012 27.9677 51.012 27.8296C51.012 27.6916 50.9929 27.5756 50.9547 27.4816C50.9165 27.3861 50.8637 27.3142 50.7961 27.2657C50.7286 27.2158 50.6493 27.1908 50.5582 27.1908C50.4701 27.1908 50.3915 27.2158 50.3225 27.2657C50.2535 27.3142 50.1999 27.3861 50.1617 27.4816C50.1235 27.5756 50.1045 27.6916 50.1045 27.8296C50.1045 27.9677 50.1235 28.0844 50.1617 28.1799C50.1999 28.2738 50.2535 28.3458 50.3225 28.3957C50.3915 28.4442 50.4701 28.4684 50.5582 28.4684ZM52.0343 28.6138C51.8978 28.6138 51.7825 28.5837 51.6885 28.5235C51.5945 28.4618 51.5233 28.3737 51.4748 28.2592C51.4264 28.1431 51.4021 28.0044 51.4021 27.8428C51.4021 27.6681 51.4315 27.522 51.4902 27.4045C51.5505 27.2855 51.6334 27.1959 51.7392 27.1357C51.8449 27.0755 51.9675 27.0454 52.107 27.0454C52.1761 27.0454 52.2421 27.052 52.3053 27.0652C52.3684 27.0785 52.4242 27.0997 52.4727 27.1291L52.4088 27.2569C52.3692 27.2304 52.3236 27.2121 52.2722 27.2018C52.2208 27.1901 52.1665 27.1842 52.1092 27.1842C51.9433 27.1842 51.8104 27.2371 51.7105 27.3428C51.6121 27.4485 51.5629 27.6064 51.5629 27.8164C51.5629 27.8487 51.5644 27.8891 51.5673 27.9375C51.5718 27.9845 51.5806 28.0315 51.5938 28.0785L51.5387 28.0367C51.5549 27.9603 51.5864 27.8957 51.6334 27.8428C51.6804 27.7885 51.7392 27.7474 51.8097 27.7195C51.8801 27.6916 51.9572 27.6776 52.0409 27.6776C52.1437 27.6776 52.2341 27.6967 52.3119 27.7349C52.3897 27.7731 52.4507 27.8267 52.4947 27.8957C52.5388 27.9647 52.5608 28.0462 52.5608 28.1402C52.5608 28.2357 52.538 28.3194 52.4925 28.3913C52.447 28.4618 52.3838 28.5169 52.3031 28.5565C52.2238 28.5947 52.1342 28.6138 52.0343 28.6138ZM52.0277 28.4794C52.1012 28.4794 52.1658 28.4662 52.2216 28.4398C52.2788 28.4119 52.3236 28.373 52.3559 28.323C52.3883 28.2716 52.4044 28.2122 52.4044 28.1446C52.4044 28.0433 52.3692 27.9625 52.2987 27.9023C52.2297 27.8421 52.1357 27.812 52.0167 27.812C51.9374 27.812 51.8684 27.8267 51.8097 27.856C51.7509 27.8854 51.7047 27.9258 51.6709 27.9772C51.6371 28.0271 51.6202 28.0844 51.6202 28.149C51.6202 28.2048 51.6356 28.2584 51.6665 28.3098C51.6973 28.3597 51.7428 28.4009 51.803 28.4332C51.8647 28.464 51.9396 28.4794 52.0277 28.4794Z" fill="#D3D3D3"/>
        <path d="M6.57385 34.0701C6.4549 34.0701 6.34917 34.0393 6.25665 33.9776C6.16413 33.9144 6.09144 33.8249 6.03857 33.7088C5.98571 33.5914 5.95927 33.4504 5.95927 33.2859C5.95927 33.1214 5.98571 32.9812 6.03857 32.8652C6.09144 32.7477 6.16413 32.6581 6.25665 32.5964C6.34917 32.5333 6.4549 32.5017 6.57385 32.5017C6.6928 32.5017 6.79854 32.5333 6.89105 32.5964C6.98357 32.6581 7.05626 32.7477 7.10913 32.8652C7.16347 32.9812 7.19063 33.1214 7.19063 33.2859C7.19063 33.4504 7.16347 33.5914 7.10913 33.7088C7.05626 33.8249 6.98357 33.9144 6.89105 33.9776C6.79854 34.0393 6.6928 34.0701 6.57385 34.0701ZM6.57385 33.9247C6.6649 33.9247 6.7442 33.9005 6.81175 33.852C6.8793 33.8021 6.93217 33.7301 6.97035 33.6362C7.00854 33.5407 7.02763 33.4239 7.02763 33.2859C7.02763 33.1479 7.00854 33.0319 6.97035 32.9379C6.93217 32.8424 6.8793 32.7705 6.81175 32.722C6.7442 32.6721 6.6649 32.6471 6.57385 32.6471C6.48574 32.6471 6.40717 32.6721 6.33815 32.722C6.26913 32.7705 6.21553 32.8424 6.17735 32.9379C6.13917 33.0319 6.12008 33.1479 6.12008 33.2859C6.12008 33.4239 6.13917 33.5407 6.17735 33.6362C6.21553 33.7301 6.26913 33.8021 6.33815 33.852C6.40717 33.9005 6.48574 33.9247 6.57385 33.9247ZM7.6715 34.0569L8.33674 32.5854L8.3852 32.6559H7.43139L7.51289 32.5788V32.9445H7.3565V32.5149H8.48873V32.6273L7.84331 34.0569H7.6715Z" fill="#BD3D44"/>
        <path d="M13.828 34.0701C13.7091 34.0701 13.6033 34.0393 13.5108 33.9776C13.4183 33.9144 13.3456 33.8249 13.2927 33.7088C13.2399 33.5914 13.2134 33.4504 13.2134 33.2859C13.2134 33.1214 13.2399 32.9812 13.2927 32.8652C13.3456 32.7477 13.4183 32.6581 13.5108 32.5964C13.6033 32.5333 13.7091 32.5017 13.828 32.5017C13.947 32.5017 14.0527 32.5333 14.1452 32.5964C14.2377 32.6581 14.3104 32.7477 14.3633 32.8652C14.4176 32.9812 14.4448 33.1214 14.4448 33.2859C14.4448 33.4504 14.4176 33.5914 14.3633 33.7088C14.3104 33.8249 14.2377 33.9144 14.1452 33.9776C14.0527 34.0393 13.947 34.0701 13.828 34.0701ZM13.828 33.9247C13.9191 33.9247 13.9984 33.9005 14.0659 33.852C14.1335 33.8021 14.1863 33.7301 14.2245 33.6362C14.2627 33.5407 14.2818 33.4239 14.2818 33.2859C14.2818 33.1479 14.2627 33.0319 14.2245 32.9379C14.1863 32.8424 14.1335 32.7705 14.0659 32.722C13.9984 32.6721 13.9191 32.6471 13.828 32.6471C13.7399 32.6471 13.6613 32.6721 13.5923 32.722C13.5233 32.7705 13.4697 32.8424 13.4315 32.9379C13.3933 33.0319 13.3742 33.1479 13.3742 33.2859C13.3742 33.4239 13.3933 33.5407 13.4315 33.6362C13.4697 33.7301 13.5233 33.8021 13.5923 33.852C13.6613 33.9005 13.7399 33.9247 13.828 33.9247ZM13.7994 37.0701C13.676 37.0701 13.5695 37.0525 13.48 37.0172C13.3918 36.982 13.3236 36.9313 13.2751 36.8652C13.2281 36.7977 13.2046 36.7184 13.2046 36.6273C13.2046 36.5392 13.2274 36.4643 13.2729 36.4027C13.3199 36.3395 13.3874 36.291 13.4756 36.2573C13.5651 36.2235 13.6731 36.2066 13.7994 36.2066C13.9242 36.2066 14.0314 36.2235 14.121 36.2573C14.2106 36.291 14.2788 36.3395 14.3258 36.4027C14.3743 36.4643 14.3985 36.5392 14.3985 36.6273C14.3985 36.7184 14.3743 36.7977 14.3258 36.8652C14.2774 36.9313 14.2084 36.982 14.1188 37.0172C14.0292 37.0525 13.9227 37.0701 13.7994 37.0701ZM13.7994 36.9357C13.9359 36.9357 14.0424 36.9078 14.1188 36.852C14.1966 36.7962 14.2355 36.7206 14.2355 36.6251C14.2355 36.5297 14.1966 36.4548 14.1188 36.4005C14.0424 36.3446 13.9359 36.3167 13.7994 36.3167C13.6628 36.3167 13.5563 36.3446 13.48 36.4005C13.4036 36.4548 13.3654 36.5297 13.3654 36.6251C13.3654 36.7206 13.4036 36.7962 13.48 36.852C13.5563 36.9078 13.6628 36.9357 13.7994 36.9357ZM13.7994 36.2969C13.6848 36.2969 13.5872 36.2815 13.5064 36.2507C13.4271 36.2198 13.3661 36.1758 13.3236 36.1185C13.281 36.0598 13.2597 35.99 13.2597 35.9092C13.2597 35.8241 13.2817 35.7514 13.3258 35.6912C13.3713 35.6295 13.4344 35.5825 13.5152 35.5502C13.596 35.5179 13.6907 35.5017 13.7994 35.5017C13.908 35.5017 14.0028 35.5179 14.0835 35.5502C14.1658 35.5825 14.2296 35.6295 14.2752 35.6912C14.3207 35.7514 14.3435 35.8241 14.3435 35.9092C14.3435 35.99 14.3222 36.0598 14.2796 36.1185C14.237 36.1758 14.1746 36.2198 14.0923 36.2507C14.0116 36.2815 13.9139 36.2969 13.7994 36.2969ZM13.7994 36.1912C13.9198 36.1912 14.0138 36.1662 14.0813 36.1163C14.1489 36.0664 14.1827 35.9995 14.1827 35.9158C14.1827 35.8277 14.1474 35.7594 14.0769 35.711C14.0079 35.661 13.9154 35.6361 13.7994 35.6361C13.6834 35.6361 13.5908 35.661 13.5218 35.711C13.4528 35.7594 13.4183 35.827 13.4183 35.9136C13.4183 35.9988 13.4513 36.0664 13.5174 36.1163C13.585 36.1662 13.6789 36.1912 13.7994 36.1912Z" fill="#D3D3D3"/>
        <path d="M21.1952 34.0701C21.0762 34.0701 20.9705 34.0393 20.878 33.9776C20.7855 33.9144 20.7128 33.8249 20.6599 33.7088C20.607 33.5914 20.5806 33.4504 20.5806 33.2859C20.5806 33.1214 20.607 32.9812 20.6599 32.8652C20.7128 32.7477 20.7855 32.6581 20.878 32.5964C20.9705 32.5333 21.0762 32.5017 21.1952 32.5017C21.3141 32.5017 21.4199 32.5333 21.5124 32.5964C21.6049 32.6581 21.6776 32.7477 21.7305 32.8652C21.7848 32.9812 21.812 33.1214 21.812 33.2859C21.812 33.4504 21.7848 33.5914 21.7305 33.7088C21.6776 33.8249 21.6049 33.9144 21.5124 33.9776C21.4199 34.0393 21.3141 34.0701 21.1952 34.0701ZM21.1952 33.9247C21.2862 33.9247 21.3655 33.9005 21.4331 33.852C21.5006 33.8021 21.5535 33.7301 21.5917 33.6362C21.6299 33.5407 21.649 33.4239 21.649 33.2859C21.649 33.1479 21.6299 33.0319 21.5917 32.9379C21.5535 32.8424 21.5006 32.7705 21.4331 32.722C21.3655 32.6721 21.2862 32.6471 21.1952 32.6471C21.1071 32.6471 21.0285 32.6721 20.9595 32.722C20.8905 32.7705 20.8369 32.8424 20.7987 32.9379C20.7605 33.0319 20.7414 33.1479 20.7414 33.2859C20.7414 33.4239 20.7605 33.5407 20.7987 33.6362C20.8369 33.7301 20.8905 33.8021 20.9595 33.852C21.0285 33.9005 21.1071 33.9247 21.1952 33.9247ZM22.5193 32.5017C22.6559 32.5017 22.7712 32.5326 22.8651 32.5942C22.9591 32.6544 23.0304 32.7418 23.0788 32.8564C23.1273 32.9709 23.1515 33.1097 23.1515 33.2727C23.1515 33.446 23.1214 33.5921 23.0612 33.711C23.0025 33.83 22.9202 33.9196 22.8145 33.9798C22.7087 34.04 22.5861 34.0701 22.4466 34.0701C22.3776 34.0701 22.3115 34.0635 22.2484 34.0503C22.1867 34.0371 22.1309 34.0158 22.081 33.9864L22.1448 33.8586C22.1845 33.8851 22.23 33.9042 22.2814 33.9159C22.3343 33.9262 22.3886 33.9313 22.4444 33.9313C22.6104 33.9313 22.7425 33.8785 22.8409 33.7727C22.9408 33.667 22.9907 33.5091 22.9907 33.2991C22.9907 33.2653 22.9885 33.225 22.9841 33.178C22.9812 33.131 22.9731 33.084 22.9599 33.037L23.0149 33.0788C23.0003 33.1552 22.9687 33.2206 22.9202 33.2749C22.8732 33.3278 22.8145 33.3681 22.744 33.396C22.675 33.4239 22.5979 33.4379 22.5127 33.4379C22.4114 33.4379 22.3211 33.4188 22.2418 33.3806C22.1639 33.3424 22.103 33.2888 22.0589 33.2198C22.0149 33.1508 21.9928 33.0693 21.9928 32.9753C21.9928 32.8784 22.0156 32.7947 22.0611 32.7242C22.1067 32.6537 22.1691 32.5994 22.2484 32.5612C22.3291 32.5215 22.4194 32.5017 22.5193 32.5017ZM22.5259 32.6361C22.4525 32.6361 22.3871 32.65 22.3299 32.6779C22.2741 32.7044 22.23 32.7426 22.1977 32.7925C22.1654 32.8424 22.1492 32.9019 22.1492 32.9709C22.1492 33.0722 22.1837 33.153 22.2528 33.2132C22.3233 33.2734 22.418 33.3035 22.5369 33.3035C22.6162 33.3035 22.6853 33.2888 22.744 33.2595C22.8042 33.2301 22.8505 33.1897 22.8828 33.1383C22.9165 33.0869 22.9334 33.0296 22.9334 32.9665C22.9334 32.9092 22.918 32.8556 22.8872 32.8057C22.8563 32.7558 22.8108 32.7154 22.7506 32.6845C22.6904 32.6522 22.6155 32.6361 22.5259 32.6361Z" fill="#D3D3D3"/>
        <path d="M28.4531 34.0569V32.581L28.5236 32.6559H28.0896V32.5149H28.6117V34.0569H28.4531ZM29.5949 34.0701C29.4759 34.0701 29.3702 34.0393 29.2777 33.9776C29.1852 33.9144 29.1125 33.8249 29.0596 33.7088C29.0067 33.5914 28.9803 33.4504 28.9803 33.2859C28.9803 33.1214 29.0067 32.9812 29.0596 32.8652C29.1125 32.7477 29.1852 32.6581 29.2777 32.5964C29.3702 32.5333 29.4759 32.5017 29.5949 32.5017C29.7138 32.5017 29.8196 32.5333 29.9121 32.5964C30.0046 32.6581 30.0773 32.7477 30.1302 32.8652C30.1845 32.9812 30.2117 33.1214 30.2117 33.2859C30.2117 33.4504 30.1845 33.5914 30.1302 33.7088C30.0773 33.8249 30.0046 33.9144 29.9121 33.9776C29.8196 34.0393 29.7138 34.0701 29.5949 34.0701ZM29.5949 33.9247C29.6859 33.9247 29.7652 33.9005 29.8328 33.852C29.9003 33.8021 29.9532 33.7301 29.9914 33.6362C30.0296 33.5407 30.0487 33.4239 30.0487 33.2859C30.0487 33.1479 30.0296 33.0319 29.9914 32.9379C29.9532 32.8424 29.9003 32.7705 29.8328 32.722C29.7652 32.6721 29.6859 32.6471 29.5949 32.6471C29.5068 32.6471 29.4282 32.6721 29.3592 32.722C29.2902 32.7705 29.2366 32.8424 29.1984 32.9379C29.1602 33.0319 29.1411 33.1479 29.1411 33.2859C29.1411 33.4239 29.1602 33.5407 29.1984 33.6362C29.2366 33.7301 29.2902 33.8021 29.3592 33.852C29.4282 33.9005 29.5068 33.9247 29.5949 33.9247Z" fill="#D3D3D3"/>
        <path d="M36.1152 34.0569V32.581L36.1857 32.6559H35.7518V32.5149H36.2738V34.0569H36.1152ZM36.9112 34.0569V32.581L36.9816 32.6559H36.5477V32.5149H37.0698V34.0569H36.9112Z" fill="#D3D3D3"/>
        <path d="M43.2334 34.0569V32.581L43.3039 32.6559H42.8699V32.5149H43.392V34.0569H43.2334ZM43.7319 34.0569V33.9445L44.373 33.3167C44.4317 33.2595 44.4757 33.2095 44.5051 33.167C44.5345 33.1229 44.5543 33.0818 44.5646 33.0436C44.5749 33.0054 44.58 32.9694 44.58 32.9357C44.58 32.8461 44.5492 32.7756 44.4875 32.7242C44.4273 32.6728 44.3377 32.6471 44.2188 32.6471C44.1277 32.6471 44.0469 32.661 43.9764 32.689C43.9074 32.7169 43.848 32.7602 43.798 32.8189L43.6857 32.722C43.7459 32.6515 43.823 32.5972 43.917 32.559C44.011 32.5208 44.116 32.5017 44.232 32.5017C44.3362 32.5017 44.4266 32.5186 44.5029 32.5524C44.5793 32.5847 44.638 32.6324 44.6791 32.6956C44.7217 32.7587 44.743 32.8329 44.743 32.918C44.743 32.968 44.7357 33.0172 44.721 33.0656C44.7078 33.1141 44.6828 33.1655 44.6461 33.2198C44.6109 33.2727 44.5587 33.3329 44.4897 33.4005L43.9016 33.9776L43.8575 33.9159H44.8135V34.0569H43.7319Z" fill="#D3D3D3"/>
        <path d="M50.5801 34.0569V32.581L50.6506 32.6559H50.2166V32.5149H50.7387V34.0569H50.5801ZM51.5676 34.0701C51.456 34.0701 51.3503 34.0525 51.2504 34.0172C51.152 33.9805 51.0727 33.9321 51.0125 33.8719L51.0896 33.7463C51.1396 33.7977 51.2064 33.8403 51.2901 33.8741C51.3753 33.9078 51.4678 33.9247 51.5676 33.9247C51.6954 33.9247 51.7931 33.8968 51.8606 33.841C51.9296 33.7852 51.9641 33.7103 51.9641 33.6163C51.9641 33.5223 51.9304 33.4474 51.8628 33.3916C51.7967 33.3358 51.6917 33.3079 51.5478 33.3079H51.4377V33.1912L51.9135 32.5942L51.9355 32.6559H51.0764V32.5149H52.0677V32.6273L51.5919 33.2242L51.5148 33.1736H51.5742C51.7593 33.1736 51.8973 33.2147 51.9884 33.2969C52.0809 33.3792 52.1271 33.4849 52.1271 33.6141C52.1271 33.7008 52.1066 33.7786 52.0655 33.8476C52.0243 33.9166 51.9619 33.971 51.8782 34.0106C51.796 34.0503 51.6925 34.0701 51.5676 34.0701Z" fill="#D3D3D3"/>
        <path d="M6.47337 39.4392V37.9633L6.54386 38.0382H6.10991V37.8973H6.63197V39.4392H6.47337ZM6.97413 39.0339V38.9193L7.79137 37.8973H7.96759L7.15696 38.9193L7.07105 38.8929H8.31123V39.0339H6.97413ZM7.84423 39.4392V39.0339L7.84864 38.8929V38.5361H8.00283V39.4392H7.84423Z" fill="#BD3D44"/>
        <path d="M13.8806 39.4392V37.9633L13.9511 38.0382H13.5171V37.8973H14.0392V39.4392H13.8806ZM14.8946 39.4524C14.7845 39.4524 14.6795 39.4348 14.5796 39.3996C14.4797 39.3628 14.4004 39.3144 14.3417 39.2542L14.4188 39.1286C14.4673 39.18 14.5333 39.2226 14.6171 39.2564C14.7022 39.2902 14.794 39.307 14.8924 39.307C15.0231 39.307 15.1222 39.2784 15.1898 39.2211C15.2588 39.1624 15.2933 39.086 15.2933 38.992C15.2933 38.926 15.2772 38.8694 15.2449 38.8224C15.214 38.774 15.1611 38.7365 15.0863 38.7101C15.0114 38.6837 14.9086 38.6704 14.7779 38.6704H14.4496L14.5289 37.8973H15.3726V38.0382H14.5928L14.6743 37.9611L14.606 38.6088L14.5245 38.5295H14.8131C14.9688 38.5295 15.0936 38.5485 15.1876 38.5867C15.2816 38.6249 15.3491 38.6785 15.3902 38.7475C15.4328 38.8151 15.4541 38.8944 15.4541 38.9854C15.4541 39.0721 15.4336 39.1514 15.3924 39.2233C15.3513 39.2938 15.2896 39.3496 15.2074 39.3907C15.1252 39.4319 15.0209 39.4524 14.8946 39.4524Z" fill="#D3D3D3"/>
        <path d="M21.1726 39.4392V37.9633L21.2431 38.0382H20.8091V37.8973H21.3312V39.4392H21.1726ZM22.332 39.4524C22.1954 39.4524 22.0801 39.4223 21.9861 39.3621C21.8922 39.3004 21.8209 39.2123 21.7725 39.0978C21.724 38.9818 21.6998 38.843 21.6998 38.6814C21.6998 38.5067 21.7292 38.3606 21.7879 38.2431C21.8481 38.1241 21.9311 38.0346 22.0368 37.9744C22.1425 37.9141 22.2652 37.884 22.4047 37.884C22.4737 37.884 22.5398 37.8906 22.6029 37.9039C22.6661 37.9171 22.7219 37.9384 22.7703 37.9677L22.7065 38.0955C22.6668 38.0691 22.6213 38.0507 22.5699 38.0404C22.5185 38.0287 22.4642 38.0228 22.4069 38.0228C22.2409 38.0228 22.108 38.0757 22.0082 38.1814C21.9098 38.2871 21.8606 38.445 21.8606 38.655C21.8606 38.6873 21.8621 38.7277 21.865 38.7762C21.8694 38.8232 21.8782 38.8702 21.8914 38.9171L21.8364 38.8753C21.8525 38.7989 21.8841 38.7343 21.9311 38.6814C21.9781 38.6271 22.0368 38.586 22.1073 38.5581C22.1778 38.5302 22.2549 38.5162 22.3386 38.5162C22.4414 38.5162 22.5317 38.5353 22.6095 38.5735C22.6874 38.6117 22.7483 38.6653 22.7924 38.7343C22.8364 38.8033 22.8585 38.8848 22.8585 38.9788C22.8585 39.0743 22.8357 39.158 22.7902 39.2299C22.7446 39.3004 22.6815 39.3555 22.6007 39.3952C22.5214 39.4333 22.4318 39.4524 22.332 39.4524ZM22.3254 39.3181C22.3988 39.3181 22.4634 39.3048 22.5192 39.2784C22.5765 39.2505 22.6213 39.2116 22.6536 39.1617C22.6859 39.1103 22.7021 39.0508 22.7021 38.9832C22.7021 38.8819 22.6668 38.8011 22.5963 38.7409C22.5273 38.6807 22.4333 38.6506 22.3144 38.6506C22.2351 38.6506 22.166 38.6653 22.1073 38.6947C22.0486 38.724 22.0023 38.7644 21.9685 38.8158C21.9347 38.8657 21.9179 38.923 21.9179 38.9876C21.9179 39.0434 21.9333 39.097 21.9641 39.1484C21.995 39.1984 22.0405 39.2395 22.1007 39.2718C22.1624 39.3026 22.2373 39.3181 22.3254 39.3181Z" fill="#D3D3D3"/>
        <path d="M28.5334 39.4392V37.9633L28.6039 38.0382H28.17V37.8973H28.692V39.4392H28.5334ZM29.3316 39.4392L29.9968 37.9677L30.0453 38.0382H29.0915L29.173 37.9611V38.3268H29.0166V37.8973H30.1488V38.0096L29.5034 39.4392H29.3316Z" fill="#D3D3D3"/>
        <path d="M35.822 39.4392V37.9633L35.8925 38.0382H35.4585V37.8973H35.9806V39.4392H35.822ZM36.1392 42.4524C36.0159 42.4524 35.9094 42.4348 35.8198 42.3996C35.7317 42.3643 35.6634 42.3136 35.6149 42.2476C35.568 42.18 35.5445 42.1007 35.5445 42.0097C35.5445 41.9216 35.5672 41.8467 35.6127 41.785C35.6597 41.7218 35.7273 41.6734 35.8154 41.6396C35.905 41.6058 36.0129 41.5889 36.1392 41.5889C36.264 41.5889 36.3712 41.6058 36.4608 41.6396C36.5504 41.6734 36.6187 41.7218 36.6657 41.785C36.7141 41.8467 36.7384 41.9216 36.7384 42.0097C36.7384 42.1007 36.7141 42.18 36.6657 42.2476C36.6172 42.3136 36.5482 42.3643 36.4586 42.3996C36.369 42.4348 36.2626 42.4524 36.1392 42.4524ZM36.1392 42.3181C36.2758 42.3181 36.3823 42.2902 36.4586 42.2343C36.5364 42.1785 36.5754 42.1029 36.5754 42.0075C36.5754 41.912 36.5364 41.8371 36.4586 41.7828C36.3823 41.727 36.2758 41.6991 36.1392 41.6991C36.0026 41.6991 35.8962 41.727 35.8198 41.7828C35.7434 41.8371 35.7053 41.912 35.7053 42.0075C35.7053 42.1029 35.7434 42.1785 35.8198 42.2343C35.8962 42.2902 36.0026 42.3181 36.1392 42.3181ZM36.1392 41.6792C36.0247 41.6792 35.927 41.6638 35.8462 41.633C35.7669 41.6021 35.706 41.5581 35.6634 41.5008C35.6208 41.4421 35.5995 41.3723 35.5995 41.2916C35.5995 41.2064 35.6216 41.1337 35.6656 41.0735C35.7111 41.0118 35.7743 40.9648 35.855 40.9325C35.9358 40.9002 36.0305 40.884 36.1392 40.884C36.2479 40.884 36.3426 40.9002 36.4234 40.9325C36.5056 40.9648 36.5695 41.0118 36.615 41.0735C36.6605 41.1337 36.6833 41.2064 36.6833 41.2916C36.6833 41.3723 36.662 41.4421 36.6194 41.5008C36.5768 41.5581 36.5144 41.6021 36.4322 41.633C36.3514 41.6638 36.2538 41.6792 36.1392 41.6792ZM36.1392 41.5735C36.2596 41.5735 36.3536 41.5485 36.4212 41.4986C36.4887 41.4487 36.5225 41.3819 36.5225 41.2982C36.5225 41.2101 36.4873 41.1418 36.4168 41.0933C36.3477 41.0434 36.2552 41.0184 36.1392 41.0184C36.0232 41.0184 35.9307 41.0434 35.8617 41.0933C35.7926 41.1418 35.7581 41.2093 35.7581 41.296C35.7581 41.3811 35.7912 41.4487 35.8573 41.4986C35.9248 41.5485 36.0188 41.5735 36.1392 41.5735Z" fill="#D3D3D3"/>
        <path d="M43.1948 39.4392V37.9633L43.2653 38.0382H42.8313V37.8973H43.3534V39.4392H43.1948ZM44.2022 37.884C44.3388 37.884 44.4541 37.9149 44.548 37.9766C44.642 38.0368 44.7133 38.1241 44.7617 38.2387C44.8102 38.3532 44.8344 38.492 44.8344 38.655C44.8344 38.8283 44.8043 38.9744 44.7441 39.0934C44.6854 39.2123 44.6031 39.3019 44.4974 39.3621C44.3916 39.4223 44.269 39.4524 44.1295 39.4524C44.0605 39.4524 43.9944 39.4458 43.9313 39.4326C43.8696 39.4194 43.8138 39.3981 43.7639 39.3687L43.8277 39.241C43.8674 39.2674 43.9129 39.2865 43.9643 39.2982C44.0172 39.3085 44.0715 39.3136 44.1273 39.3136C44.2933 39.3136 44.4254 39.2608 44.5238 39.155C44.6237 39.0493 44.6736 38.8914 44.6736 38.6814C44.6736 38.6477 44.6714 38.6073 44.667 38.5603C44.6641 38.5133 44.656 38.4663 44.6428 38.4193L44.6978 38.4612C44.6832 38.5375 44.6516 38.6029 44.6031 38.6572C44.5561 38.7101 44.4974 38.7505 44.4269 38.7784C44.3579 38.8063 44.2808 38.8202 44.1956 38.8202C44.0943 38.8202 44.004 38.8011 43.9247 38.763C43.8468 38.7248 43.7859 38.6712 43.7418 38.6021C43.6978 38.5331 43.6757 38.4516 43.6757 38.3576C43.6757 38.2607 43.6985 38.177 43.744 38.1065C43.7896 38.036 43.852 37.9817 43.9313 37.9435C44.012 37.9039 44.1023 37.884 44.2022 37.884ZM44.2088 38.0184C44.1354 38.0184 44.07 38.0324 44.0128 38.0603C43.957 38.0867 43.9129 38.1249 43.8806 38.1748C43.8483 38.2247 43.8321 38.2842 43.8321 38.3532C43.8321 38.4546 43.8666 38.5353 43.9357 38.5955C44.0062 38.6557 44.1009 38.6859 44.2198 38.6859C44.2991 38.6859 44.3682 38.6712 44.4269 38.6418C44.4871 38.6124 44.5334 38.572 44.5657 38.5206C44.5994 38.4692 44.6163 38.412 44.6163 38.3488C44.6163 38.2916 44.6009 38.238 44.5701 38.188C44.5392 38.1381 44.4937 38.0977 44.4335 38.0669C44.3733 38.0346 44.2984 38.0184 44.2088 38.0184Z" fill="#D3D3D3"/>
        <path d="M49.9607 39.4392V39.3269L50.6017 38.6991C50.6604 38.6418 50.7045 38.5919 50.7338 38.5493C50.7632 38.5052 50.783 38.4641 50.7933 38.4259C50.8036 38.3877 50.8087 38.3518 50.8087 38.318C50.8087 38.2284 50.7779 38.1579 50.7162 38.1065C50.656 38.0551 50.5664 38.0294 50.4475 38.0294C50.3564 38.0294 50.2757 38.0434 50.2052 38.0713C50.1362 38.0992 50.0767 38.1425 50.0267 38.2012L49.9144 38.1043C49.9746 38.0338 50.0517 37.9795 50.1457 37.9413C50.2397 37.9031 50.3447 37.884 50.4607 37.884C50.565 37.884 50.6553 37.9009 50.7316 37.9347C50.808 37.967 50.8667 38.0147 50.9079 38.0779C50.9505 38.141 50.9717 38.2152 50.9717 38.3004C50.9717 38.3503 50.9644 38.3995 50.9497 38.448C50.9365 38.4964 50.9115 38.5478 50.8748 38.6021C50.8396 38.655 50.7874 38.7152 50.7184 38.7828L50.1303 39.3599L50.0862 39.2982H51.0422V39.4392H49.9607ZM51.8516 39.4524C51.7326 39.4524 51.6269 39.4216 51.5344 39.3599C51.4418 39.2968 51.3691 39.2072 51.3163 39.0912C51.2634 38.9737 51.237 38.8327 51.237 38.6682C51.237 38.5038 51.2634 38.3635 51.3163 38.2475C51.3691 38.13 51.4418 38.0404 51.5344 37.9788C51.6269 37.9156 51.7326 37.884 51.8516 37.884C51.9705 37.884 52.0762 37.9156 52.1688 37.9788C52.2613 38.0404 52.334 38.13 52.3868 38.2475C52.4412 38.3635 52.4683 38.5038 52.4683 38.6682C52.4683 38.8327 52.4412 38.9737 52.3868 39.0912C52.334 39.2072 52.2613 39.2968 52.1688 39.3599C52.0762 39.4216 51.9705 39.4524 51.8516 39.4524ZM51.8516 39.307C51.9426 39.307 52.0219 39.2828 52.0895 39.2343C52.157 39.1844 52.2099 39.1125 52.2481 39.0185C52.2862 38.923 52.3053 38.8063 52.3053 38.6682C52.3053 38.5302 52.2862 38.4142 52.2481 38.3202C52.2099 38.2247 52.157 38.1528 52.0895 38.1043C52.0219 38.0544 51.9426 38.0294 51.8516 38.0294C51.7634 38.0294 51.6849 38.0544 51.6159 38.1043C51.5468 38.1528 51.4932 38.2247 51.4551 38.3202C51.4169 38.4142 51.3978 38.5302 51.3978 38.6682C51.3978 38.8063 51.4169 38.923 51.4551 39.0185C51.4932 39.1125 51.5468 39.1844 51.6159 39.2343C51.6849 39.2828 51.7634 39.307 51.8516 39.307Z" fill="#D3D3D3"/>
        <path d="M6.27512 44.8955V44.7832L6.91613 44.1554C6.97487 44.0981 7.01893 44.0482 7.0483 44.0056C7.07767 43.9615 7.09749 43.9204 7.10777 43.8822C7.11805 43.844 7.12319 43.8081 7.12319 43.7743C7.12319 43.6847 7.09235 43.6142 7.03068 43.5628C6.97047 43.5114 6.88089 43.4857 6.76194 43.4857C6.67089 43.4857 6.59012 43.4997 6.51963 43.5276C6.45061 43.5555 6.39113 43.5988 6.3412 43.6575L6.22886 43.5606C6.28907 43.4901 6.36617 43.4358 6.46015 43.3976C6.55414 43.3594 6.65914 43.3403 6.77515 43.3403C6.87942 43.3403 6.96973 43.3572 7.0461 43.391C7.12246 43.4233 7.1812 43.471 7.22232 43.5342C7.26491 43.5973 7.2862 43.6715 7.2862 43.7567C7.2862 43.8066 7.27886 43.8558 7.26417 43.9043C7.25096 43.9527 7.22599 44.0041 7.18928 44.0584C7.15403 44.1113 7.1019 44.1715 7.03288 44.2391L6.44473 44.8162L6.40068 44.7545H7.35669V44.8955H6.27512ZM7.82447 44.8955V43.4196L7.89496 43.4945H7.46101V43.3536H7.98307V44.8955H7.82447Z" fill="#BD3D44"/>
        <path d="M13.3615 44.8955V44.7832L14.0026 44.1554C14.0613 44.0981 14.1054 44.0482 14.1347 44.0056C14.1641 43.9615 14.1839 43.9204 14.1942 43.8822C14.2045 43.844 14.2096 43.8081 14.2096 43.7743C14.2096 43.6847 14.1788 43.6142 14.1171 43.5628C14.0569 43.5114 13.9673 43.4857 13.8484 43.4857C13.7573 43.4857 13.6765 43.4997 13.6061 43.5276C13.537 43.5555 13.4776 43.5988 13.4276 43.6575L13.3153 43.5606C13.3755 43.4901 13.4526 43.4358 13.5466 43.3976C13.6406 43.3594 13.7456 43.3403 13.8616 43.3403C13.9658 43.3403 14.0562 43.3572 14.1325 43.391C14.2089 43.4233 14.2676 43.471 14.3087 43.5342C14.3513 43.5973 14.3726 43.6715 14.3726 43.7567C14.3726 43.8066 14.3653 43.8558 14.3506 43.9043C14.3374 43.9527 14.3124 44.0041 14.2757 44.0584C14.2405 44.1113 14.1883 44.1715 14.1193 44.2391L13.5312 44.8162L13.4871 44.7545H14.4431V44.8955H13.3615ZM14.6135 44.8955V44.7832L15.2545 44.1554C15.3133 44.0981 15.3573 44.0482 15.3867 44.0056C15.4161 43.9615 15.4359 43.9204 15.4462 43.8822C15.4565 43.844 15.4616 43.8081 15.4616 43.7743C15.4616 43.6847 15.4308 43.6142 15.3691 43.5628C15.3089 43.5114 15.2193 43.4857 15.1003 43.4857C15.0093 43.4857 14.9285 43.4997 14.858 43.5276C14.789 43.5555 14.7295 43.5988 14.6796 43.6575L14.5673 43.5606C14.6275 43.4901 14.7046 43.4358 14.7986 43.3976C14.8925 43.3594 14.9975 43.3403 15.1136 43.3403C15.2178 43.3403 15.3081 43.3572 15.3845 43.391C15.4609 43.4233 15.5196 43.471 15.5607 43.5342C15.6033 43.5973 15.6246 43.6715 15.6246 43.7567C15.6246 43.8066 15.6173 43.8558 15.6026 43.9043C15.5894 43.9527 15.5644 44.0041 15.5277 44.0584C15.4924 44.1113 15.4403 44.1715 15.3713 44.2391L14.7831 44.8162L14.7391 44.7545H15.6951V44.8955H14.6135Z" fill="#D3D3D3"/>
        <path d="M20.7053 44.8955V44.7832L21.3463 44.1554C21.405 44.0981 21.4491 44.0482 21.4785 44.0056C21.5078 43.9615 21.5277 43.9204 21.5379 43.8822C21.5482 43.844 21.5534 43.8081 21.5534 43.7743C21.5534 43.6847 21.5225 43.6142 21.4609 43.5628C21.4006 43.5114 21.3111 43.4857 21.1921 43.4857C21.1011 43.4857 21.0203 43.4997 20.9498 43.5276C20.8808 43.5555 20.8213 43.5988 20.7714 43.6575L20.659 43.5606C20.7192 43.4901 20.7963 43.4358 20.8903 43.3976C20.9843 43.3594 21.0893 43.3403 21.2053 43.3403C21.3096 43.3403 21.3999 43.3572 21.4763 43.391C21.5526 43.4233 21.6114 43.471 21.6525 43.5342C21.6951 43.5973 21.7164 43.6715 21.7164 43.7567C21.7164 43.8066 21.709 43.8558 21.6943 43.9043C21.6811 43.9527 21.6562 44.0041 21.6195 44.0584C21.5842 44.1113 21.5321 44.1715 21.4631 44.2391L20.8749 44.8162L20.8309 44.7545H21.7869V44.8955H20.7053ZM22.4463 44.9087C22.3347 44.9087 22.2289 44.8911 22.1291 44.8559C22.0307 44.8191 21.9514 44.7707 21.8912 44.7105L21.9683 44.5849C22.0182 44.6363 22.085 44.6789 22.1687 44.7127C22.2539 44.7465 22.3464 44.7633 22.4463 44.7633C22.5741 44.7633 22.6717 44.7354 22.7393 44.6796C22.8083 44.6238 22.8428 44.5489 22.8428 44.4549C22.8428 44.361 22.809 44.2861 22.7415 44.2303C22.6754 44.1745 22.5704 44.1466 22.4265 44.1466H22.3163V44.0298L22.7921 43.4329L22.8142 43.4945H21.9551V43.3536H22.9463V43.4659L22.4705 44.0629L22.3934 44.0122H22.4529C22.6379 44.0122 22.776 44.0533 22.867 44.1355C22.9595 44.2178 23.0058 44.3235 23.0058 44.4527C23.0058 44.5394 22.9852 44.6172 22.9441 44.6862C22.903 44.7553 22.8406 44.8096 22.7569 44.8492C22.6746 44.8889 22.5711 44.9087 22.4463 44.9087Z" fill="#D3D3D3"/>
        <path d="M27.936 44.8955V44.7832L28.577 44.1554C28.6358 44.0981 28.6798 44.0482 28.7092 44.0056C28.7386 43.9615 28.7584 43.9204 28.7687 43.8822C28.7789 43.844 28.7841 43.8081 28.7841 43.7743C28.7841 43.6847 28.7532 43.6142 28.6916 43.5628C28.6314 43.5114 28.5418 43.4857 28.4228 43.4857C28.3318 43.4857 28.251 43.4997 28.1805 43.5276C28.1115 43.5555 28.052 43.5988 28.0021 43.6575L27.8897 43.5606C27.95 43.4901 28.0271 43.4358 28.121 43.3976C28.215 43.3594 28.32 43.3403 28.436 43.3403C28.5403 43.3403 28.6306 43.3572 28.707 43.391C28.7833 43.4233 28.8421 43.471 28.8832 43.5342C28.9258 43.5973 28.9471 43.6715 28.9471 43.7567C28.9471 43.8066 28.9397 43.8558 28.9251 43.9043C28.9118 43.9527 28.8869 44.0041 28.8502 44.0584C28.8149 44.1113 28.7628 44.1715 28.6938 44.2391L28.1056 44.8162L28.0616 44.7545H29.0176V44.8955H27.936ZM27.9382 47.4902V47.3756L28.7554 46.3536H28.9317L28.121 47.3756L28.0351 47.3492H29.2753V47.4902H27.9382ZM28.8083 47.8955V47.4902L28.8127 47.3492V46.9924H28.9669V47.8955H28.8083Z" fill="#D3D3D3"/>
        <path d="M35.3811 44.8955V44.7832L36.0221 44.1554C36.0808 44.0981 36.1249 44.0482 36.1543 44.0056C36.1836 43.9615 36.2035 43.9204 36.2137 43.8822C36.224 43.844 36.2292 43.8081 36.2292 43.7743C36.2292 43.6847 36.1983 43.6142 36.1366 43.5628C36.0764 43.5114 35.9868 43.4857 35.8679 43.4857C35.7768 43.4857 35.6961 43.4997 35.6256 43.5276C35.5566 43.5555 35.4971 43.5988 35.4472 43.6575L35.3348 43.5606C35.395 43.4901 35.4721 43.4358 35.5661 43.3976C35.6601 43.3594 35.7651 43.3403 35.8811 43.3403C35.9854 43.3403 36.0757 43.3572 36.1521 43.391C36.2284 43.4233 36.2872 43.471 36.3283 43.5342C36.3709 43.5973 36.3922 43.6715 36.3922 43.7567C36.3922 43.8066 36.3848 43.8558 36.3701 43.9043C36.3569 43.9527 36.3319 44.0041 36.2952 44.0584C36.26 44.1113 36.2079 44.1715 36.1388 44.2391L35.5507 44.8162L35.5066 44.7545H36.4626V44.8955H35.3811ZM37.1485 44.9087C37.0384 44.9087 36.9334 44.8911 36.8335 44.8559C36.7336 44.8191 36.6543 44.7707 36.5956 44.7105L36.6727 44.5849C36.7212 44.6363 36.7872 44.6789 36.871 44.7127C36.9561 44.7465 37.0479 44.7633 37.1463 44.7633C37.277 44.7633 37.3761 44.7347 37.4437 44.6774C37.5127 44.6187 37.5472 44.5423 37.5472 44.4483C37.5472 44.3823 37.5311 44.3257 37.4988 44.2787C37.4679 44.2303 37.415 44.1928 37.3401 44.1664C37.2653 44.1399 37.1625 44.1267 37.0318 44.1267H36.7035L36.7828 43.3536H37.6265V43.4945H36.8467L36.9282 43.4174L36.8599 44.0651L36.7784 43.9858H37.067C37.2227 43.9858 37.3475 44.0048 37.4415 44.043C37.5355 44.0812 37.603 44.1348 37.6441 44.2038C37.6867 44.2714 37.708 44.3507 37.708 44.4417C37.708 44.5284 37.6875 44.6077 37.6463 44.6796C37.6052 44.7501 37.5435 44.8059 37.4613 44.847C37.3791 44.8882 37.2748 44.9087 37.1485 44.9087Z" fill="#D3D3D3"/>
        <path d="M42.6755 44.8955V44.7832L43.3165 44.1554C43.3753 44.0981 43.4193 44.0482 43.4487 44.0056C43.4781 43.9615 43.4979 43.9204 43.5082 43.8822C43.5184 43.844 43.5236 43.8081 43.5236 43.7743C43.5236 43.6847 43.4927 43.6142 43.4311 43.5628C43.3709 43.5114 43.2813 43.4857 43.1623 43.4857C43.0713 43.4857 42.9905 43.4997 42.92 43.5276C42.851 43.5555 42.7915 43.5988 42.7416 43.6575L42.6292 43.5606C42.6895 43.4901 42.7666 43.4358 42.8605 43.3976C42.9545 43.3594 43.0595 43.3403 43.1755 43.3403C43.2798 43.3403 43.3701 43.3572 43.4465 43.391C43.5228 43.4233 43.5816 43.471 43.6227 43.5342C43.6653 43.5973 43.6866 43.6715 43.6866 43.7567C43.6866 43.8066 43.6792 43.8558 43.6646 43.9043C43.6513 43.9527 43.6264 44.0041 43.5897 44.0584C43.5544 44.1113 43.5023 44.1715 43.4333 44.2391L42.8451 44.8162L42.8011 44.7545H43.7571V44.8955H42.6755ZM44.584 44.9087C44.4474 44.9087 44.3322 44.8786 44.2382 44.8184C44.1442 44.7567 44.073 44.6686 44.0245 44.5541C43.9761 44.4381 43.9518 44.2993 43.9518 44.1377C43.9518 43.963 43.9812 43.8169 44.0399 43.6994C44.1001 43.5804 44.1831 43.4909 44.2888 43.4307C44.3946 43.3704 44.5172 43.3403 44.6567 43.3403C44.7257 43.3403 44.7918 43.3469 44.855 43.3602C44.9181 43.3734 44.9739 43.3947 45.0224 43.424L44.9585 43.5518C44.9188 43.5254 44.8733 43.507 44.8219 43.4967C44.7705 43.485 44.7162 43.4791 44.6589 43.4791C44.493 43.4791 44.3601 43.532 44.2602 43.6377C44.1618 43.7434 44.1126 43.9013 44.1126 44.1113C44.1126 44.1436 44.1141 44.184 44.117 44.2325C44.1214 44.2795 44.1302 44.3265 44.1435 44.3734L44.0884 44.3316C44.1045 44.2552 44.1361 44.1906 44.1831 44.1377C44.2301 44.0834 44.2888 44.0423 44.3593 44.0144C44.4298 43.9865 44.5069 43.9725 44.5906 43.9725C44.6934 43.9725 44.7837 43.9916 44.8616 44.0298C44.9394 44.068 45.0003 44.1216 45.0444 44.1906C45.0885 44.2596 45.1105 44.3411 45.1105 44.4351C45.1105 44.5306 45.0877 44.6143 45.0422 44.6862C44.9967 44.7567 44.9335 44.8118 44.8528 44.8515C44.7735 44.8896 44.6839 44.9087 44.584 44.9087ZM44.5774 44.7744C44.6508 44.7744 44.7155 44.7611 44.7713 44.7347C44.8285 44.7068 44.8733 44.6679 44.9056 44.618C44.9379 44.5666 44.9541 44.5071 44.9541 44.4395C44.9541 44.3382 44.9188 44.2574 44.8484 44.1972C44.7793 44.137 44.6854 44.1069 44.5664 44.1069C44.4871 44.1069 44.4181 44.1216 44.3593 44.151C44.3006 44.1803 44.2543 44.2207 44.2206 44.2721C44.1868 44.322 44.1699 44.3793 44.1699 44.4439C44.1699 44.4997 44.1853 44.5533 44.2162 44.6047C44.247 44.6547 44.2925 44.6958 44.3527 44.7281C44.4144 44.7589 44.4893 44.7744 44.5774 44.7744Z" fill="#D3D3D3"/>
        <path d="M50.0368 44.8955V44.7832L50.6778 44.1554C50.7366 44.0981 50.7806 44.0482 50.81 44.0056C50.8394 43.9615 50.8592 43.9204 50.8695 43.8822C50.8798 43.844 50.8849 43.8081 50.8849 43.7743C50.8849 43.6847 50.8541 43.6142 50.7924 43.5628C50.7322 43.5114 50.6426 43.4857 50.5237 43.4857C50.4326 43.4857 50.3518 43.4997 50.2813 43.5276C50.2123 43.5555 50.1529 43.5988 50.1029 43.6575L49.9906 43.5606C50.0508 43.4901 50.1279 43.4358 50.2219 43.3976C50.3159 43.3594 50.4209 43.3403 50.5369 43.3403C50.6411 43.3403 50.7315 43.3572 50.8078 43.391C50.8842 43.4233 50.9429 43.471 50.984 43.5342C51.0266 43.5973 51.0479 43.6715 51.0479 43.7567C51.0479 43.8066 51.0406 43.8558 51.0259 43.9043C51.0127 43.9527 50.9877 44.0041 50.951 44.0584C50.9158 44.1113 50.8636 44.1715 50.7946 44.2391L50.2065 44.8162L50.1624 44.7545H51.1184V44.8955H50.0368ZM51.5841 44.8955L52.2493 43.424L52.2978 43.4945H51.344L51.4255 43.4174V43.7831H51.2691V43.3536H52.4013V43.4659L51.7559 44.8955H51.5841Z" fill="#D3D3D3"/>
        <path d="M5.9802 50.2363V50.124L6.62121 49.4962C6.67995 49.4389 6.72401 49.389 6.75338 49.3464C6.78275 49.3023 6.80257 49.2612 6.81285 49.223C6.82313 49.1849 6.82827 49.1489 6.82827 49.1151C6.82827 49.0255 6.79743 48.955 6.73575 48.9036C6.67554 48.8522 6.58596 48.8265 6.46701 48.8265C6.37596 48.8265 6.2952 48.8405 6.22471 48.8684C6.15569 48.8963 6.09621 48.9396 6.04628 48.9984L5.93394 48.9014C5.99415 48.8309 6.07124 48.7766 6.16523 48.7384C6.25922 48.7002 6.36422 48.6812 6.48023 48.6812C6.5845 48.6812 6.67481 48.698 6.75117 48.7318C6.82754 48.7641 6.88628 48.8119 6.9274 48.875C6.96998 48.9381 6.99128 49.0123 6.99128 49.0975C6.99128 49.1474 6.98394 49.1966 6.96925 49.2451C6.95603 49.2935 6.93107 49.3449 6.89436 49.3993C6.85911 49.4521 6.80698 49.5123 6.73796 49.5799L6.14981 50.157L6.10576 50.0953H7.06177V50.2363H5.9802ZM6.59478 53.2495C6.47142 53.2495 6.36495 53.2319 6.27537 53.1967C6.18726 53.1614 6.11897 53.1108 6.07051 53.0447C6.02352 52.9771 6.00002 52.8978 6.00002 52.8068C6.00002 52.7187 6.02278 52.6438 6.06831 52.5821C6.1153 52.519 6.18285 52.4705 6.27096 52.4367C6.36054 52.4029 6.46848 52.3861 6.59478 52.3861C6.7196 52.3861 6.8268 52.4029 6.91638 52.4367C7.00596 52.4705 7.07425 52.519 7.12124 52.5821C7.1697 52.6438 7.19393 52.7187 7.19393 52.8068C7.19393 52.8978 7.1697 52.9771 7.12124 53.0447C7.07278 53.1108 7.00376 53.1614 6.91418 53.1967C6.8246 53.2319 6.71813 53.2495 6.59478 53.2495ZM6.59478 53.1152C6.73135 53.1152 6.83782 53.0873 6.91418 53.0315C6.99201 52.9757 7.03093 52.9 7.03093 52.8046C7.03093 52.7091 6.99201 52.6342 6.91418 52.5799C6.83782 52.5241 6.73135 52.4962 6.59478 52.4962C6.4582 52.4962 6.35173 52.5241 6.27537 52.5799C6.19901 52.6342 6.16083 52.7091 6.16083 52.8046C6.16083 52.9 6.19901 52.9757 6.27537 53.0315C6.35173 53.0873 6.4582 53.1152 6.59478 53.1152ZM6.59478 52.4764C6.48023 52.4764 6.38257 52.4609 6.3018 52.4301C6.2225 52.3993 6.16156 52.3552 6.11897 52.2979C6.07638 52.2392 6.05509 52.1694 6.05509 52.0887C6.05509 52.0035 6.07712 51.9308 6.12117 51.8706C6.1667 51.8089 6.22985 51.7619 6.31061 51.7296C6.39138 51.6973 6.4861 51.6812 6.59478 51.6812C6.70345 51.6812 6.79817 51.6973 6.87894 51.7296C6.96117 51.7619 7.02505 51.8089 7.07058 51.8706C7.1161 51.9308 7.13886 52.0035 7.13886 52.0887C7.13886 52.1694 7.11757 52.2392 7.07498 52.2979C7.0324 52.3552 6.96998 52.3993 6.88775 52.4301C6.80698 52.4609 6.70932 52.4764 6.59478 52.4764ZM6.59478 52.3706C6.71519 52.3706 6.80918 52.3457 6.87673 52.2957C6.94428 52.2458 6.97806 52.179 6.97806 52.0953C6.97806 52.0072 6.94282 51.9389 6.87233 51.8904C6.80331 51.8405 6.71079 51.8155 6.59478 51.8155C6.47876 51.8155 6.38624 51.8405 6.31722 51.8904C6.2482 51.9389 6.21369 52.0064 6.21369 52.0931C6.21369 52.1783 6.24673 52.2458 6.31282 52.2957C6.38037 52.3457 6.47436 52.3706 6.59478 52.3706Z" fill="#BD3D44"/>
        <path d="M13.3181 50.2361V50.1237L13.9591 49.4959C14.0178 49.4387 14.0619 49.3887 14.0913 49.3462C14.1206 49.3021 14.1405 49.261 14.1507 49.2228C14.161 49.1846 14.1662 49.1486 14.1662 49.1149C14.1662 49.0253 14.1353 48.9548 14.0736 48.9034C14.0134 48.852 13.9239 48.8263 13.8049 48.8263C13.7139 48.8263 13.6331 48.8402 13.5626 48.8681C13.4936 48.8961 13.4341 48.9394 13.3842 48.9981L13.2718 48.9012C13.332 48.8307 13.4091 48.7764 13.5031 48.7382C13.5971 48.7 13.7021 48.6809 13.8181 48.6809C13.9224 48.6809 14.0127 48.6978 14.0891 48.7316C14.1654 48.7639 14.2242 48.8116 14.2653 48.8748C14.3079 48.9379 14.3292 49.0121 14.3292 49.0972C14.3292 49.1472 14.3218 49.1964 14.3071 49.2448C14.2939 49.2933 14.269 49.3447 14.2322 49.399C14.197 49.4519 14.1449 49.5121 14.0758 49.5797L13.4877 50.1568L13.4436 50.0951H14.3997V50.2361H13.3181ZM15.0789 48.6809C15.2155 48.6809 15.3308 48.7118 15.4247 48.7734C15.5187 48.8336 15.59 48.921 15.6384 49.0356C15.6869 49.1501 15.7111 49.2889 15.7111 49.4519C15.7111 49.6252 15.681 49.7713 15.6208 49.8902C15.5621 50.0092 15.4798 50.0988 15.3741 50.159C15.2683 50.2192 15.1457 50.2493 15.0062 50.2493C14.9372 50.2493 14.8711 50.2427 14.808 50.2295C14.7463 50.2163 14.6905 50.195 14.6406 50.1656L14.7044 50.0378C14.7441 50.0643 14.7896 50.0834 14.841 50.0951C14.8939 50.1054 14.9482 50.1105 15.004 50.1105C15.17 50.1105 15.3021 50.0577 15.4005 49.9519C15.5004 49.8462 15.5503 49.6883 15.5503 49.4783C15.5503 49.4445 15.5481 49.4042 15.5437 49.3572C15.5408 49.3102 15.5327 49.2632 15.5195 49.2162L15.5745 49.258C15.5599 49.3344 15.5283 49.3998 15.4798 49.4541C15.4328 49.507 15.3741 49.5473 15.3036 49.5752C15.2346 49.6031 15.1575 49.6171 15.0723 49.6171C14.971 49.6171 14.8807 49.598 14.8014 49.5598C14.7235 49.5216 14.6626 49.468 14.6185 49.399C14.5745 49.33 14.5524 49.2485 14.5524 49.1545C14.5524 49.0576 14.5752 48.9739 14.6207 48.9034C14.6663 48.8329 14.7287 48.7786 14.808 48.7404C14.8887 48.7007 14.979 48.6809 15.0789 48.6809ZM15.0855 48.8153C15.0121 48.8153 14.9467 48.8292 14.8895 48.8571C14.8337 48.8836 14.7896 48.9218 14.7573 48.9717C14.725 49.0216 14.7088 49.0811 14.7088 49.1501C14.7088 49.2514 14.7434 49.3322 14.8124 49.3924C14.8829 49.4526 14.9776 49.4827 15.0965 49.4827C15.1758 49.4827 15.2449 49.468 15.3036 49.4387C15.3638 49.4093 15.4101 49.3689 15.4424 49.3175C15.4761 49.2661 15.493 49.2088 15.493 49.1457C15.493 49.0884 15.4776 49.0348 15.4468 48.9849C15.4159 48.935 15.3704 48.8946 15.3102 48.8637C15.25 48.8314 15.1751 48.8153 15.0855 48.8153Z" fill="#D3D3D3"/>
        <path d="M21.0903 50.2493C20.9787 50.2493 20.873 50.2317 20.7731 50.1964C20.6747 50.1597 20.5954 50.1113 20.5352 50.051L20.6123 49.9255C20.6622 49.9769 20.7291 50.0195 20.8128 50.0533C20.8979 50.087 20.9904 50.1039 21.0903 50.1039C21.2181 50.1039 21.3157 50.076 21.3833 50.0202C21.4523 49.9644 21.4868 49.8895 21.4868 49.7955C21.4868 49.7015 21.453 49.6266 21.3855 49.5708C21.3194 49.515 21.2144 49.4871 21.0705 49.4871H20.9603V49.3704L21.4361 48.7734L21.4582 48.8351H20.5991V48.6941H21.5903V48.8065L21.1145 49.4034L21.0374 49.3528H21.0969C21.282 49.3528 21.42 49.3939 21.511 49.4761C21.6036 49.5584 21.6498 49.6641 21.6498 49.7933C21.6498 49.88 21.6293 49.9578 21.5881 50.0268C21.547 50.0958 21.4846 50.1502 21.4009 50.1898C21.3187 50.2295 21.2151 50.2493 21.0903 50.2493ZM22.4879 50.2493C22.3689 50.2493 22.2632 50.2185 22.1707 50.1568C22.0782 50.0936 22.0055 50.0041 21.9526 49.888C21.8997 49.7706 21.8733 49.6296 21.8733 49.4651C21.8733 49.3006 21.8997 49.1604 21.9526 49.0444C22.0055 48.9269 22.0782 48.8373 22.1707 48.7756C22.2632 48.7125 22.3689 48.6809 22.4879 48.6809C22.6068 48.6809 22.7126 48.7125 22.8051 48.7756C22.8976 48.8373 22.9703 48.9269 23.0232 49.0444C23.0775 49.1604 23.1047 49.3006 23.1047 49.4651C23.1047 49.6296 23.0775 49.7706 23.0232 49.888C22.9703 50.0041 22.8976 50.0936 22.8051 50.1568C22.7126 50.2185 22.6068 50.2493 22.4879 50.2493ZM22.4879 50.1039C22.5789 50.1039 22.6582 50.0797 22.7258 50.0312C22.7933 49.9813 22.8462 49.9093 22.8844 49.8154C22.9226 49.7199 22.9417 49.6031 22.9417 49.4651C22.9417 49.3271 22.9226 49.2111 22.8844 49.1171C22.8462 49.0216 22.7933 48.9497 22.7258 48.9012C22.6582 48.8513 22.5789 48.8263 22.4879 48.8263C22.3998 48.8263 22.3212 48.8513 22.2522 48.9012C22.1832 48.9497 22.1296 49.0216 22.0914 49.1171C22.0532 49.2111 22.0341 49.3271 22.0341 49.4651C22.0341 49.6031 22.0532 49.7199 22.0914 49.8154C22.1296 49.9093 22.1832 49.9813 22.2522 50.0312C22.3212 50.0797 22.3998 50.1039 22.4879 50.1039Z" fill="#D3D3D3"/>
        <path d="M28.7519 50.2493C28.6403 50.2493 28.5346 50.2317 28.4347 50.1964C28.3363 50.1597 28.257 50.1113 28.1968 50.051L28.2739 49.9255C28.3239 49.9769 28.3907 50.0195 28.4744 50.0533C28.5596 50.087 28.6521 50.1039 28.7519 50.1039C28.8797 50.1039 28.9773 50.076 29.0449 50.0202C29.1139 49.9644 29.1484 49.8895 29.1484 49.7955C29.1484 49.7015 29.1147 49.6266 29.0471 49.5708C28.981 49.515 28.876 49.4871 28.7321 49.4871H28.622V49.3704L29.0978 48.7734L29.1198 48.8351H28.2607V48.6941H29.252V48.8065L28.7762 49.4034L28.6991 49.3528H28.7585C28.9436 49.3528 29.0816 49.3939 29.1727 49.4761C29.2652 49.5584 29.3114 49.6641 29.3114 49.7933C29.3114 49.88 29.2909 49.9578 29.2498 50.0268C29.2086 50.0958 29.1462 50.1502 29.0625 50.1898C28.9803 50.2295 28.8768 50.2493 28.7519 50.2493ZM29.8037 50.2361V48.7602L29.8742 48.8351H29.4402V48.6941H29.9623V50.2361H29.8037Z" fill="#D3D3D3"/>
        <path d="M36.1434 50.2488C36.0245 50.2488 35.9187 50.218 35.8262 50.1563C35.7337 50.0931 35.661 50.0036 35.6082 49.8876C35.5553 49.7701 35.5289 49.6291 35.5289 49.4646C35.5289 49.3001 35.5553 49.1599 35.6082 49.0439C35.661 48.9264 35.7337 48.8368 35.8262 48.7751C35.9187 48.712 36.0245 48.6804 36.1434 48.6804C36.2624 48.6804 36.3681 48.712 36.4606 48.7751C36.5532 48.8368 36.6258 48.9264 36.6787 49.0439C36.733 49.1599 36.7602 49.3001 36.7602 49.4646C36.7602 49.6291 36.733 49.7701 36.6787 49.8876C36.6258 50.0036 36.5532 50.0931 36.4606 50.1563C36.3681 50.218 36.2624 50.2488 36.1434 50.2488ZM36.1434 50.1034C36.2345 50.1034 36.3138 50.0792 36.3813 50.0307C36.4489 49.9808 36.5018 49.9088 36.5399 49.8149C36.5781 49.7194 36.5972 49.6027 36.5972 49.4646C36.5972 49.3266 36.5781 49.2106 36.5399 49.1166C36.5018 49.0211 36.4489 48.9492 36.3813 48.9007C36.3138 48.8508 36.2345 48.8258 36.1434 48.8258C36.0553 48.8258 35.9768 48.8508 35.9077 48.9007C35.8387 48.9492 35.7851 49.0211 35.7469 49.1166C35.7087 49.2106 35.6897 49.3266 35.6897 49.4646C35.6897 49.6027 35.7087 49.7194 35.7469 49.8149C35.7851 49.9088 35.8387 49.9808 35.9077 50.0307C35.9768 50.0792 36.0553 50.1034 36.1434 50.1034ZM37.2561 50.2356V48.7597L37.3266 48.8346H36.8926V48.6936H37.4147V50.2356H37.2561Z" fill="#BD3D44"/>
        <path d="M43.264 50.2488C43.1451 50.2488 43.0394 50.218 42.9468 50.1563C42.8543 50.0931 42.7816 50.0036 42.7288 49.8876C42.6759 49.7701 42.6495 49.6291 42.6495 49.4646C42.6495 49.3001 42.6759 49.1599 42.7288 49.0439C42.7816 48.9264 42.8543 48.8368 42.9468 48.7751C43.0394 48.712 43.1451 48.6804 43.264 48.6804C43.383 48.6804 43.4887 48.712 43.5812 48.7751C43.6738 48.8368 43.7464 48.9264 43.7993 49.0439C43.8537 49.1599 43.8808 49.3001 43.8808 49.4646C43.8808 49.6291 43.8537 49.7701 43.7993 49.8876C43.7464 50.0036 43.6738 50.0931 43.5812 50.1563C43.4887 50.218 43.383 50.2488 43.264 50.2488ZM43.264 50.1034C43.3551 50.1034 43.4344 50.0792 43.5019 50.0307C43.5695 49.9808 43.6224 49.9088 43.6605 49.8149C43.6987 49.7194 43.7178 49.6027 43.7178 49.4646C43.7178 49.3266 43.6987 49.2106 43.6605 49.1166C43.6224 49.0211 43.5695 48.9492 43.5019 48.9007C43.4344 48.8508 43.3551 48.8258 43.264 48.8258C43.1759 48.8258 43.0974 48.8508 43.0283 48.9007C42.9593 48.9492 42.9057 49.0211 42.8675 49.1166C42.8294 49.2106 42.8103 49.3266 42.8103 49.4646C42.8103 49.6027 42.8294 49.7194 42.8675 49.8149C42.9057 49.9088 42.9593 49.9808 43.0283 50.0307C43.0974 50.0792 43.1759 50.1034 43.264 50.1034ZM44.0793 50.2356V50.1233L44.7203 49.4955C44.7791 49.4382 44.8231 49.3883 44.8525 49.3457C44.8819 49.3016 44.9017 49.2605 44.912 49.2223C44.9222 49.1841 44.9274 49.1482 44.9274 49.1144C44.9274 49.0248 44.8965 48.9543 44.8349 48.9029C44.7747 48.8515 44.6851 48.8258 44.5661 48.8258C44.4751 48.8258 44.3943 48.8398 44.3238 48.8677C44.2548 48.8956 44.1953 48.9389 44.1454 48.9976L44.0331 48.9007C44.0933 48.8302 44.1704 48.7759 44.2643 48.7377C44.3583 48.6995 44.4633 48.6804 44.5793 48.6804C44.6836 48.6804 44.7739 48.6973 44.8503 48.7311C44.9267 48.7634 44.9854 48.8111 45.0265 48.8743C45.0691 48.9374 45.0904 49.0116 45.0904 49.0968C45.0904 49.1467 45.083 49.1959 45.0684 49.2443C45.0551 49.2928 45.0302 49.3442 44.9935 49.3985C44.9582 49.4514 44.9061 49.5116 44.8371 49.5792L44.2489 50.1563L44.2049 50.0946H45.1609V50.2356H44.0793Z" fill="#BD3D44"/>
        <path d="M50.6083 50.2488C50.4893 50.2488 50.3836 50.218 50.2911 50.1563C50.1986 50.0931 50.1259 50.0036 50.073 49.8876C50.0201 49.7701 49.9937 49.6291 49.9937 49.4646C49.9937 49.3001 50.0201 49.1599 50.073 49.0439C50.1259 48.9264 50.1986 48.8368 50.2911 48.7751C50.3836 48.712 50.4893 48.6804 50.6083 48.6804C50.7272 48.6804 50.833 48.712 50.9255 48.7751C51.018 48.8368 51.0907 48.9264 51.1436 49.0439C51.1979 49.1599 51.2251 49.3001 51.2251 49.4646C51.2251 49.6291 51.1979 49.7701 51.1436 49.8876C51.0907 50.0036 51.018 50.0931 50.9255 50.1563C50.833 50.218 50.7272 50.2488 50.6083 50.2488ZM50.6083 50.1034C50.6993 50.1034 50.7786 50.0792 50.8462 50.0307C50.9137 49.9808 50.9666 49.9088 51.0048 49.8149C51.043 49.7194 51.0621 49.6027 51.0621 49.4646C51.0621 49.3266 51.043 49.2106 51.0048 49.1166C50.9666 49.0211 50.9137 48.9492 50.8462 48.9007C50.7786 48.8508 50.6993 48.8258 50.6083 48.8258C50.5202 48.8258 50.4416 48.8508 50.3726 48.9007C50.3036 48.9492 50.25 49.0211 50.2118 49.1166C50.1736 49.2106 50.1545 49.3266 50.1545 49.4646C50.1545 49.6027 50.1736 49.7194 50.2118 49.8149C50.25 49.9088 50.3036 49.9808 50.3726 50.0307C50.4416 50.0792 50.5202 50.1034 50.6083 50.1034ZM50.4541 53.2488C50.3425 53.2488 50.2367 53.2312 50.1369 53.1959C50.0385 53.1592 49.9592 53.1108 49.899 53.0506L49.9761 52.925C50.026 52.9764 50.0928 53.019 50.1765 53.0528C50.2617 53.0865 50.3542 53.1034 50.4541 53.1034C50.5818 53.1034 50.6795 53.0755 50.7471 53.0197C50.8161 52.9639 50.8506 52.889 50.8506 52.795C50.8506 52.7011 50.8168 52.6262 50.7493 52.5704C50.6832 52.5145 50.5782 52.4866 50.4343 52.4866H50.3241V52.3699L50.7999 51.7729L50.8219 51.8346H49.9629V51.6936H50.9541V51.806L50.4783 52.4029L50.4012 52.3523H50.4607C50.6457 52.3523 50.7838 52.3934 50.8748 52.4756C50.9673 52.5579 51.0136 52.6636 51.0136 52.7928C51.0136 52.8795 50.993 52.9573 50.9519 53.0263C50.9108 53.0954 50.8484 53.1497 50.7647 53.1893C50.6824 53.229 50.5789 53.2488 50.4541 53.2488Z" fill="#BD3D44"/>
        <path d="M6.39933 22.4012C6.26687 22.4012 6.14006 22.3826 6.01891 22.3455C5.89775 22.3067 5.80164 22.2574 5.73056 22.1976L5.8396 21.9529C5.90744 22.0062 5.99145 22.0506 6.0916 22.0862C6.19175 22.1217 6.29433 22.1395 6.39933 22.1395C6.48818 22.1395 6.56006 22.1298 6.61499 22.1104C6.66991 22.091 6.71029 22.0652 6.73614 22.0329C6.76199 21.999 6.77491 21.961 6.77491 21.919C6.77491 21.8673 6.75633 21.8261 6.71918 21.7954C6.68202 21.7631 6.63356 21.7381 6.57379 21.7203C6.51564 21.7009 6.45022 21.6831 6.37752 21.667C6.30645 21.6508 6.23456 21.6323 6.16187 21.6113C6.09079 21.5886 6.02537 21.5604 5.9656 21.5265C5.90744 21.4909 5.85979 21.4441 5.82264 21.3859C5.78548 21.3278 5.76691 21.2535 5.76691 21.163C5.76691 21.0709 5.79114 20.9869 5.8396 20.911C5.88968 20.8334 5.96479 20.7721 6.06495 20.7268C6.16671 20.68 6.29514 20.6566 6.45022 20.6566C6.55198 20.6566 6.65295 20.6695 6.7531 20.6953C6.85325 20.7212 6.94049 20.7583 7.01479 20.8068L6.91545 21.0515C6.83952 21.0063 6.76118 20.9732 6.68041 20.9522C6.59964 20.9296 6.5221 20.9183 6.44779 20.9183C6.36056 20.9183 6.28948 20.9288 6.23456 20.9498C6.18125 20.9708 6.14168 20.9982 6.11583 21.0321C6.0916 21.0661 6.07948 21.1048 6.07948 21.1485C6.07948 21.2001 6.09725 21.2421 6.13279 21.2745C6.16995 21.3051 6.2176 21.3294 6.27575 21.3471C6.33552 21.3649 6.40175 21.3827 6.47445 21.4005C6.54714 21.4166 6.61902 21.4352 6.6901 21.4562C6.76279 21.4772 6.82822 21.5046 6.88637 21.5386C6.94614 21.5725 6.99379 21.6185 7.02933 21.6767C7.06649 21.7348 7.08506 21.8083 7.08506 21.8972C7.08506 21.9876 7.06002 22.0716 7.00995 22.1492C6.96149 22.2251 6.88637 22.2865 6.7846 22.3333C6.68283 22.3786 6.55441 22.4012 6.39933 22.4012ZM7.91595 22.3939C7.80611 22.3939 7.70918 22.3737 7.62518 22.3333C7.54118 22.2913 7.47576 22.2283 7.42891 22.1443C7.38207 22.0587 7.35864 21.9513 7.35864 21.8221V21.083H7.66153V21.7809C7.66153 21.8972 7.68738 21.9844 7.73907 22.0426C7.79238 22.0991 7.86749 22.1274 7.96441 22.1274C8.03549 22.1274 8.09688 22.1128 8.14857 22.0838C8.20188 22.0547 8.24307 22.0111 8.27215 21.9529C8.30284 21.8948 8.31818 21.8229 8.31818 21.7373V21.083H8.62107V22.377H8.33272V22.028L8.38361 22.1346C8.33999 22.2186 8.27618 22.2833 8.19218 22.3285C8.10818 22.3721 8.01611 22.3939 7.91595 22.3939Z" fill="#BD3D44"/>
        <path d="M4.3424 15.5043C4.14158 15.5043 3.94934 15.4761 3.76566 15.4198C3.58199 15.361 3.43628 15.2863 3.32852 15.1957L3.49383 14.8247C3.59668 14.9055 3.72403 14.9728 3.87587 15.0267C4.0277 15.0806 4.18321 15.1075 4.3424 15.1075C4.47709 15.1075 4.58607 15.0928 4.66933 15.0634C4.7526 15.0341 4.81382 14.9949 4.85301 14.9459C4.89219 14.8945 4.91178 14.8369 4.91178 14.7732C4.91178 14.6949 4.88362 14.6324 4.82729 14.5859C4.77097 14.5369 4.6975 14.499 4.60689 14.472C4.51872 14.4426 4.41954 14.4157 4.30934 14.3912C4.20158 14.3667 4.0926 14.3386 3.9824 14.3067C3.87464 14.2724 3.77546 14.2296 3.68485 14.1781C3.59668 14.1243 3.52444 14.0532 3.46811 13.9651C3.41179 13.8769 3.38362 13.7643 3.38362 13.6271C3.38362 13.4875 3.42036 13.3602 3.49383 13.2451C3.56975 13.1275 3.68362 13.0345 3.83546 12.9659C3.98974 12.8949 4.18444 12.8594 4.41954 12.8594C4.57382 12.8594 4.72688 12.879 4.87872 12.9182C5.03056 12.9573 5.1628 13.0137 5.27545 13.0871L5.12484 13.4581C5.00974 13.3896 4.89097 13.3394 4.76852 13.3075C4.64607 13.2733 4.52852 13.2561 4.41587 13.2561C4.28362 13.2561 4.17587 13.272 4.0926 13.3039C4.01179 13.3357 3.95179 13.3773 3.9126 13.4288C3.87587 13.4802 3.8575 13.539 3.8575 13.6051C3.8575 13.6835 3.88444 13.7471 3.93832 13.7961C3.99464 13.8426 4.06689 13.8794 4.15505 13.9063C4.24566 13.9332 4.34607 13.9602 4.45627 13.9871C4.56648 14.0116 4.67546 14.0398 4.78321 14.0716C4.89341 14.1035 4.9926 14.1451 5.08076 14.1965C5.17137 14.2479 5.24362 14.3177 5.2975 14.4059C5.35382 14.4941 5.38198 14.6055 5.38198 14.7402C5.38198 14.8773 5.34403 15.0047 5.26811 15.1222C5.19464 15.2373 5.08076 15.3304 4.92648 15.4014C4.77219 15.47 4.5775 15.5043 4.3424 15.5043ZM6.29633 13.9651H7.57469V14.3581H6.29633V13.9651ZM6.33307 15.0671H7.78408V15.4675H5.85552V12.8961H7.73265V13.2965H6.33307V15.0671ZM9.11359 15.5043C8.91277 15.5043 8.72053 15.4761 8.53685 15.4198C8.35318 15.361 8.20747 15.2863 8.09971 15.1957L8.26502 14.8247C8.36787 14.9055 8.49522 14.9728 8.64706 15.0267C8.79889 15.0806 8.9544 15.1075 9.11359 15.1075C9.24828 15.1075 9.35726 15.0928 9.44052 15.0634C9.52379 15.0341 9.58501 14.9949 9.6242 14.9459C9.66338 14.8945 9.68297 14.8369 9.68297 14.7732C9.68297 14.6949 9.65481 14.6324 9.59848 14.5859C9.54216 14.5369 9.46869 14.499 9.37807 14.472C9.28991 14.4426 9.19073 14.4157 9.08052 14.3912C8.97277 14.3667 8.86379 14.3386 8.75359 14.3067C8.64583 14.2724 8.54665 14.2296 8.45604 14.1781C8.36787 14.1243 8.29563 14.0532 8.2393 13.9651C8.18298 13.8769 8.15481 13.7643 8.15481 13.6271C8.15481 13.4875 8.19155 13.3602 8.26502 13.2451C8.34094 13.1275 8.45481 13.0345 8.60665 12.9659C8.76093 12.8949 8.95563 12.8594 9.19073 12.8594C9.34501 12.8594 9.49807 12.879 9.64991 12.9182C9.80175 12.9573 9.93399 13.0137 10.0466 13.0871L9.89603 13.4581C9.78093 13.3896 9.66216 13.3394 9.53971 13.3075C9.41726 13.2733 9.29971 13.2561 9.18705 13.2561C9.05481 13.2561 8.94706 13.272 8.86379 13.3039C8.78297 13.3357 8.72297 13.3773 8.68379 13.4288C8.64706 13.4802 8.62869 13.539 8.62869 13.6051C8.62869 13.6835 8.65563 13.7471 8.70951 13.7961C8.76583 13.8426 8.83808 13.8794 8.92624 13.9063C9.01685 13.9332 9.11726 13.9602 9.22746 13.9871C9.33767 14.0116 9.44665 14.0398 9.5544 14.0716C9.6646 14.1035 9.76379 14.1451 9.85195 14.1965C9.94256 14.2479 10.0148 14.3177 10.0687 14.4059C10.125 14.4941 10.1532 14.6055 10.1532 14.7402C10.1532 14.8773 10.1152 15.0047 10.0393 15.1222C9.96583 15.2373 9.85195 15.3304 9.69767 15.4014C9.54338 15.47 9.34869 15.5043 9.11359 15.5043ZM11.4238 15.5043C11.223 15.5043 11.0308 15.4761 10.8471 15.4198C10.6634 15.361 10.5177 15.2863 10.41 15.1957L10.5753 14.8247C10.6781 14.9055 10.8055 14.9728 10.9573 15.0267C11.1092 15.0806 11.2647 15.1075 11.4238 15.1075C11.5585 15.1075 11.6675 15.0928 11.7508 15.0634C11.834 15.0341 11.8953 14.9949 11.9345 14.9459C11.9736 14.8945 11.9932 14.8369 11.9932 14.7732C11.9932 14.6949 11.9651 14.6324 11.9087 14.5859C11.8524 14.5369 11.7789 14.499 11.6883 14.472C11.6002 14.4426 11.501 14.4157 11.3908 14.3912C11.283 14.3667 11.1741 14.3386 11.0638 14.3067C10.9561 14.2724 10.8569 14.2296 10.7663 14.1781C10.6781 14.1243 10.6059 14.0532 10.5496 13.9651C10.4932 13.8769 10.4651 13.7643 10.4651 13.6271C10.4651 13.4875 10.5018 13.3602 10.5753 13.2451C10.6512 13.1275 10.7651 13.0345 10.9169 12.9659C11.0712 12.8949 11.2659 12.8594 11.501 12.8594C11.6553 12.8594 11.8083 12.879 11.9602 12.9182C12.112 12.9573 12.2443 13.0137 12.3569 13.0871L12.2063 13.4581C12.0912 13.3896 11.9724 13.3394 11.85 13.3075C11.7275 13.2733 11.61 13.2561 11.4973 13.2561C11.3651 13.2561 11.2573 13.272 11.1741 13.3039C11.0932 13.3357 11.0332 13.3773 10.9941 13.4288C10.9573 13.4802 10.9389 13.539 10.9389 13.6051C10.9389 13.6835 10.9659 13.7471 11.0198 13.7961C11.0761 13.8426 11.1483 13.8794 11.2365 13.9063C11.3271 13.9332 11.4275 13.9602 11.5377 13.9871C11.6479 14.0116 11.7569 14.0398 11.8647 14.0716C11.9749 14.1035 12.074 14.1451 12.1622 14.1965C12.2528 14.2479 12.3251 14.3177 12.3789 14.4059C12.4353 14.4941 12.4634 14.6055 12.4634 14.7402C12.4634 14.8773 12.4255 15.0047 12.3496 15.1222C12.2761 15.2373 12.1622 15.3304 12.0079 15.4014C11.8536 15.47 11.6589 15.5043 11.4238 15.5043ZM12.937 15.4675V12.8961H13.4145V15.4675H12.937ZM15.3149 15.5043C15.1141 15.5043 14.9292 15.4712 14.7602 15.4051C14.5913 15.339 14.4443 15.2471 14.3194 15.1296C14.1945 15.0096 14.0978 14.87 14.0292 14.7108C13.9606 14.5492 13.9264 14.3728 13.9264 14.1818C13.9264 13.9908 13.9606 13.8157 14.0292 13.6565C14.0978 13.4949 14.1945 13.3553 14.3194 13.2377C14.4443 13.1177 14.5913 13.0247 14.7602 12.9586C14.9292 12.8924 15.1129 12.8594 15.3113 12.8594C15.5121 12.8594 15.6957 12.8924 15.8623 12.9586C16.0313 13.0247 16.1782 13.1177 16.3031 13.2377C16.428 13.3553 16.5247 13.4949 16.5933 13.6565C16.6619 13.8157 16.6961 13.9908 16.6961 14.1818C16.6961 14.3728 16.6619 14.5492 16.5933 14.7108C16.5247 14.8724 16.428 15.012 16.3031 15.1296C16.1782 15.2471 16.0313 15.339 15.8623 15.4051C15.6957 15.4712 15.5133 15.5043 15.3149 15.5043ZM15.3113 15.0855C15.441 15.0855 15.561 15.0634 15.6713 15.0194C15.7815 14.9753 15.877 14.9128 15.9578 14.832C16.0386 14.7488 16.101 14.6532 16.1451 14.5455C16.1917 14.4353 16.2149 14.3141 16.2149 14.1818C16.2149 14.0496 16.1917 13.9296 16.1451 13.8218C16.101 13.7116 16.0386 13.6161 15.9578 13.5353C15.877 13.452 15.7815 13.3884 15.6713 13.3443C15.561 13.3002 15.441 13.2781 15.3113 13.2781C15.1815 13.2781 15.0615 13.3002 14.9513 13.3443C14.8435 13.3884 14.748 13.452 14.6647 13.5353C14.5839 13.6161 14.5202 13.7116 14.4737 13.8218C14.4296 13.9296 14.4076 14.0496 14.4076 14.1818C14.4076 14.3116 14.4296 14.4316 14.4737 14.5418C14.5202 14.652 14.5839 14.7488 14.6647 14.832C14.7455 14.9128 14.8411 14.9753 14.9513 15.0194C15.0615 15.0634 15.1815 15.0855 15.3113 15.0855ZM17.2023 15.4675V12.8961H17.5954L19.208 14.8761H19.0134V12.8961H19.4872V15.4675H19.0942L17.4815 13.4875H17.6762V15.4675H17.2023Z" fill="#056B9C"/>
        <path d="M12.8413 22.377V20.6808H13.1006L13.842 21.919H13.7063L14.4357 20.6808H14.695L14.6974 22.377H14.3993L14.3969 21.1485H14.4599L13.8396 22.1831H13.6991L13.0691 21.1485H13.1418V22.377H12.8413ZM15.708 22.3939C15.5755 22.3939 15.4576 22.3656 15.3542 22.3091C15.2508 22.251 15.1693 22.1718 15.1095 22.0716C15.0497 21.9715 15.0198 21.8576 15.0198 21.73C15.0198 21.6008 15.0497 21.4869 15.1095 21.3883C15.1693 21.2882 15.2508 21.2098 15.3542 21.1533C15.4576 21.0968 15.5755 21.0685 15.708 21.0685C15.8421 21.0685 15.9608 21.0968 16.0642 21.1533C16.1692 21.2098 16.2508 21.2874 16.3089 21.3859C16.3687 21.4845 16.3986 21.5991 16.3986 21.73C16.3986 21.8576 16.3687 21.9715 16.3089 22.0716C16.2508 22.1718 16.1692 22.251 16.0642 22.3091C15.9608 22.3656 15.8421 22.3939 15.708 22.3939ZM15.708 22.1346C15.7823 22.1346 15.8485 22.1185 15.9067 22.0862C15.9648 22.0539 16.0101 22.007 16.0424 21.9456C16.0763 21.8843 16.0933 21.8124 16.0933 21.73C16.0933 21.646 16.0763 21.5741 16.0424 21.5143C16.0101 21.453 15.9648 21.4061 15.9067 21.3738C15.8485 21.3415 15.7831 21.3253 15.7104 21.3253C15.6361 21.3253 15.5699 21.3415 15.5117 21.3738C15.4552 21.4061 15.41 21.453 15.376 21.5143C15.3421 21.5741 15.3251 21.646 15.3251 21.73C15.3251 21.8124 15.3421 21.8843 15.376 21.9456C15.41 22.007 15.4552 22.0539 15.5117 22.0862C15.5699 22.1185 15.6353 22.1346 15.708 22.1346Z" fill="#2D713E"/>
        <path d="M20.8939 22.377V20.9473H20.3317V20.6808H21.771V20.9473H21.2089V22.377H20.8939ZM21.0683 25.3939C20.9585 25.3939 20.8616 25.3737 20.7776 25.3333C20.6936 25.2913 20.6281 25.2283 20.5813 25.1443C20.5344 25.0587 20.511 24.9513 20.511 24.8221V24.083H20.8139V24.7809C20.8139 24.8972 20.8398 24.9844 20.8914 25.0426C20.9448 25.0991 21.0199 25.1274 21.1168 25.1274C21.1879 25.1274 21.2493 25.1128 21.3009 25.0838C21.3543 25.0547 21.3954 25.0111 21.4245 24.9529C21.4552 24.8948 21.4706 24.8229 21.4706 24.7373V24.083H21.7734V25.377H21.4851V25.028L21.536 25.1346C21.4924 25.2186 21.4286 25.2833 21.3446 25.3285C21.2606 25.3721 21.1685 25.3939 21.0683 25.3939Z" fill="#2D713E"/>
        <path d="M27.7262 22.377L27.1641 20.6808H27.4912L27.9928 22.2146H27.8304L28.3514 20.6808H28.6421L29.1486 22.2146H28.9911L29.5048 20.6808H29.8052L29.2431 22.377H28.9087L28.4459 20.9934H28.5331L28.063 22.377H27.7262ZM27.9055 25.3939C27.7617 25.3939 27.6357 25.3656 27.5275 25.3091C27.4209 25.251 27.3377 25.1718 27.2779 25.0716C27.2198 24.9715 27.1907 24.8576 27.1907 24.73C27.1907 24.6008 27.219 24.4869 27.2755 24.3883C27.3337 24.2882 27.4128 24.2098 27.513 24.1533C27.6147 24.0968 27.7302 24.0685 27.8595 24.0685C27.9855 24.0685 28.0978 24.096 28.1963 24.1509C28.2948 24.2058 28.3724 24.2833 28.4289 24.3835C28.4854 24.4836 28.5137 24.6016 28.5137 24.7373C28.5137 24.7502 28.5129 24.7647 28.5113 24.7809C28.5113 24.797 28.5105 24.8124 28.5089 24.8269H27.4306V24.6258H28.3489L28.2302 24.6888C28.2318 24.6145 28.2165 24.5491 28.1842 24.4925C28.1519 24.436 28.1074 24.3916 28.0509 24.3593C27.996 24.327 27.9322 24.3108 27.8595 24.3108C27.7852 24.3108 27.7197 24.327 27.6632 24.3593C27.6083 24.3916 27.5647 24.4368 27.5324 24.495C27.5017 24.5515 27.4863 24.6185 27.4863 24.6961V24.7445C27.4863 24.8221 27.5041 24.8907 27.5396 24.9505C27.5752 25.0103 27.6252 25.0563 27.6899 25.0886C27.7545 25.1209 27.8288 25.1371 27.9128 25.1371C27.9855 25.1371 28.0509 25.1258 28.1091 25.1031C28.1672 25.0805 28.2189 25.045 28.2641 24.9965L28.4265 25.1831C28.3683 25.251 28.2948 25.3035 28.206 25.3406C28.1188 25.3761 28.0186 25.3939 27.9055 25.3939Z" fill="#2D713E"/>
        <path d="M35.5697 22.377V20.9473H35.0075V20.6808H36.4468V20.9473H35.8847V22.377H35.5697ZM35.9307 24.0685C36.0341 24.0685 36.1262 24.0887 36.2069 24.1291C36.2893 24.1695 36.3539 24.2316 36.4008 24.3156C36.4476 24.398 36.471 24.5046 36.471 24.6355V25.377H36.1682V24.6743C36.1682 24.5596 36.1407 24.474 36.0858 24.4174C36.0325 24.3609 35.9573 24.3326 35.8604 24.3326C35.7893 24.3326 35.7263 24.3471 35.6714 24.3762C35.6165 24.4053 35.5737 24.4489 35.543 24.5071C35.5139 24.5636 35.4994 24.6355 35.4994 24.7227V25.377H35.1965V23.579H35.4994V24.432L35.434 24.3253C35.4792 24.243 35.5446 24.18 35.6302 24.1363C35.7175 24.0911 35.8176 24.0685 35.9307 24.0685Z" fill="#2D713E"/>
        <path d="M43.1209 21.461H43.9665V21.7276H43.1209V21.461ZM43.1475 22.377H42.8325V20.6808H44.0707V20.9449H43.1475V22.377ZM44.3226 22.377V21.083H44.6109V21.4392L44.577 21.335C44.6158 21.2478 44.6764 21.1816 44.7587 21.1363C44.8427 21.0911 44.9469 21.0685 45.0713 21.0685V21.3568C45.0584 21.3536 45.0463 21.352 45.035 21.352C45.0237 21.3504 45.0124 21.3496 45.0011 21.3496C44.8864 21.3496 44.7951 21.3835 44.7272 21.4513C44.6594 21.5176 44.6255 21.6169 44.6255 21.7494V22.377H44.3226Z" fill="#2D713E"/>
        <path d="M50.4909 22.4012C50.3584 22.4012 50.2316 22.3826 50.1105 22.3455C49.9893 22.3067 49.8932 22.2574 49.8221 22.1976L49.9312 21.9529C49.999 22.0062 50.083 22.0506 50.1832 22.0862C50.2833 22.1217 50.3859 22.1395 50.4909 22.1395C50.5797 22.1395 50.6516 22.1298 50.7065 22.1104C50.7615 22.091 50.8018 22.0652 50.8277 22.0329C50.8535 21.999 50.8665 21.961 50.8665 21.919C50.8665 21.8673 50.8479 21.8261 50.8107 21.7954C50.7736 21.7631 50.7251 21.7381 50.6653 21.7203C50.6072 21.7009 50.5418 21.6831 50.4691 21.667C50.398 21.6508 50.3261 21.6323 50.2534 21.6113C50.1823 21.5886 50.1169 21.5604 50.0572 21.5265C49.999 21.4909 49.9513 21.4441 49.9142 21.3859C49.877 21.3278 49.8585 21.2535 49.8585 21.163C49.8585 21.0709 49.8827 20.9869 49.9312 20.911C49.9812 20.8334 50.0563 20.7721 50.1565 20.7268C50.2583 20.68 50.3867 20.6566 50.5418 20.6566C50.6435 20.6566 50.7445 20.6695 50.8447 20.6953C50.9448 20.7212 51.032 20.7583 51.1063 20.8068L51.007 21.0515C50.9311 21.0063 50.8527 20.9732 50.772 20.9522C50.6912 20.9296 50.6137 20.9183 50.5393 20.9183C50.4521 20.9183 50.381 20.9288 50.3261 20.9498C50.2728 20.9708 50.2332 20.9982 50.2074 21.0321C50.1832 21.0661 50.171 21.1048 50.171 21.1485C50.171 21.2001 50.1888 21.2421 50.2243 21.2745C50.2615 21.3051 50.3092 21.3294 50.3673 21.3471C50.4271 21.3649 50.4933 21.3827 50.566 21.4005C50.6387 21.4166 50.7106 21.4352 50.7817 21.4562C50.8543 21.4772 50.9198 21.5046 50.9779 21.5386C51.0377 21.5725 51.0853 21.6185 51.1209 21.6767C51.158 21.7348 51.1766 21.8083 51.1766 21.8972C51.1766 21.9876 51.1516 22.0716 51.1015 22.1492C51.053 22.2251 50.9779 22.2865 50.8762 22.3333C50.7744 22.3786 50.646 22.4012 50.4909 22.4012ZM52.2571 22.377V22.1153L52.2401 22.0595V21.6016C52.2401 21.5127 52.2135 21.4441 52.1602 21.3956C52.1069 21.3455 52.0261 21.3205 51.9179 21.3205C51.8452 21.3205 51.7733 21.3318 51.7022 21.3544C51.6327 21.377 51.5738 21.4085 51.5253 21.4489L51.4066 21.2284C51.476 21.1751 51.5584 21.1355 51.6537 21.1097C51.7507 21.0822 51.8508 21.0685 51.9542 21.0685C52.1416 21.0685 52.2862 21.1137 52.3879 21.2042C52.4913 21.293 52.543 21.4311 52.543 21.6185V22.377H52.2571ZM51.85 22.3939C51.7531 22.3939 51.6683 22.3778 51.5956 22.3455C51.5229 22.3115 51.4664 22.2655 51.426 22.2073C51.3872 22.1476 51.3678 22.0805 51.3678 22.0062C51.3678 21.9335 51.3848 21.8681 51.4187 21.81C51.4542 21.7518 51.5116 21.7058 51.5907 21.6718C51.6699 21.6379 51.7749 21.621 51.9057 21.621H52.2813V21.8221H51.9275C51.8242 21.8221 51.7547 21.839 51.7192 21.873C51.6836 21.9053 51.6659 21.9456 51.6659 21.9941C51.6659 22.049 51.6877 22.0926 51.7313 22.125C51.7749 22.1573 51.8355 22.1734 51.913 22.1734C51.9873 22.1734 52.0535 22.1565 52.1117 22.1225C52.1715 22.0886 52.2143 22.0385 52.2401 21.9723L52.291 22.154C52.2619 22.23 52.2094 22.2889 52.1335 22.3309C52.0592 22.3729 51.9647 22.3939 51.85 22.3939Z" fill="#2D713E"/>
        <path d="M15.1194 8.27962C14.505 8.27962 14.0024 7.78389 14.0024 7.17818V1.14636C14.0024 0.540484 14.5052 0.0449219 15.1194 0.0449219C15.7338 0.0449219 16.2363 0.540657 16.2363 1.14636V7.17818C16.2363 7.78406 15.7338 8.27962 15.1194 8.27962Z" fill="#388D4D"/>
        <path d="M43.3428 8.27962C42.7284 8.27962 42.2258 7.78389 42.2258 7.17818V1.14636C42.2258 0.540484 42.7285 0.0449219 43.3428 0.0449219C43.9572 0.0449219 44.4597 0.540657 44.4597 1.14636V7.17818C44.4597 7.78406 43.957 8.27962 43.3428 8.27962Z" fill="#388D4D"/>
        <path d="M45.776 59.8724C55.8334 59.8724 63.9864 51.8324 63.9864 41.9146C63.9864 31.9968 55.8334 23.9568 45.776 23.9568C35.7187 23.9568 27.5657 31.9968 27.5657 41.9146C27.5657 51.8324 35.7187 59.8724 45.776 59.8724Z" fill="#2D713E"/>
        <path d="M45.7753 57.4688C54.4865 57.4688 61.5484 50.5049 61.5484 41.9145C61.5484 33.324 54.4865 26.3601 45.7753 26.3601C37.0641 26.3601 30.0022 33.324 30.0022 41.9145C30.0022 50.5049 37.0641 57.4688 45.7753 57.4688Z" fill="#E6F3F8"/>
        <path d="M45.8692 31.432C46.1343 31.434 46.353 31.2217 46.3551 30.9603L46.3782 28.049C46.3803 27.7875 46.165 27.5719 45.8999 27.5698C45.6348 27.5678 45.4161 27.7801 45.414 28.0415L45.3909 30.9528C45.3888 31.2143 45.6041 31.4299 45.8692 31.432Z" fill="#59AAD2"/>
        <path d="M45.6727 56.2628C45.9378 56.2649 46.1565 56.0525 46.1586 55.7911L46.1817 52.8798C46.1838 52.6183 45.9685 52.4027 45.7034 52.4006C45.4383 52.3986 45.2196 52.6109 45.2175 52.8723L45.1944 55.7836C45.1922 56.0451 45.4076 56.2607 45.6727 56.2628Z" fill="#59AAD2"/>
        <path d="M56.4194 41.9988C56.4173 42.2603 56.6327 42.4759 56.8978 42.4779L59.85 42.5008C60.1151 42.5028 60.3338 42.2905 60.3359 42.0291C60.338 41.7676 60.1227 41.552 59.8576 41.5499L56.9053 41.5271C56.6402 41.5252 56.4216 41.7374 56.4194 41.9988Z" fill="#59AAD2"/>
        <path d="M31.24 41.8037C31.2379 42.0652 31.4532 42.2808 31.7183 42.2829L34.6706 42.3057C34.9357 42.3078 35.1544 42.0954 35.1565 41.834C35.1586 41.5726 34.9432 41.3569 34.6781 41.3549L31.7259 41.332C31.4608 41.3301 31.2421 41.5423 31.24 41.8037Z" fill="#59AAD2"/>
        <path d="M52.3446 31.3906C52.6108 31.3906 52.8266 31.1778 52.8266 30.9153C52.8266 30.6528 52.6108 30.4399 52.3446 30.4399C52.0784 30.4399 51.8625 30.6528 51.8625 30.9153C51.8625 31.1778 52.0784 31.3906 52.3446 31.3906Z" fill="#59AAD2"/>
        <path d="M39.2281 53.3943C39.4943 53.3943 39.7101 53.1815 39.7101 52.9189C39.7101 52.6564 39.4943 52.4436 39.2281 52.4436C38.9619 52.4436 38.7461 52.6564 38.7461 52.9189C38.7461 53.1815 38.9619 53.3943 39.2281 53.3943Z" fill="#59AAD2"/>
        <path d="M57.0384 36.0974C57.3046 36.0974 57.5204 35.8846 57.5204 35.6221C57.5204 35.3595 57.3046 35.1467 57.0384 35.1467C56.7722 35.1467 56.5564 35.3595 56.5564 35.6221C56.5564 35.8846 56.7722 36.0974 57.0384 36.0974Z" fill="#59AAD2"/>
        <path d="M34.524 48.686C34.7902 48.686 35.006 48.4732 35.006 48.2107C35.006 47.9482 34.7902 47.7354 34.524 47.7354C34.2578 47.7354 34.042 47.9482 34.042 48.2107C34.042 48.4732 34.2578 48.686 34.524 48.686Z" fill="#59AAD2"/>
        <path d="M56.9349 48.8611C57.2011 48.8611 57.4169 48.6483 57.4169 48.3857C57.4169 48.1232 57.2011 47.9104 56.9349 47.9104C56.6687 47.9104 56.4529 48.1232 56.4529 48.3857C56.4529 48.6483 56.6687 48.8611 56.9349 48.8611Z" fill="#59AAD2"/>
        <path d="M34.6231 35.9253C34.8893 35.9253 35.1051 35.7125 35.1051 35.4499C35.1051 35.1874 34.8893 34.9746 34.6231 34.9746C34.3569 34.9746 34.1411 35.1874 34.1411 35.4499C34.1411 35.7125 34.3569 35.9253 34.6231 35.9253Z" fill="#59AAD2"/>
        <path d="M52.1678 53.4927C52.434 53.4927 52.6498 53.2798 52.6498 53.0173C52.6498 52.7548 52.434 52.542 52.1678 52.542C51.9016 52.542 51.6858 52.7548 51.6858 53.0173C51.6858 53.2798 51.9016 53.4927 52.1678 53.4927Z" fill="#59AAD2"/>
        <path d="M39.4017 31.2883C39.6679 31.2883 39.8837 31.0755 39.8837 30.813C39.8837 30.5505 39.6679 30.3376 39.4017 30.3376C39.1355 30.3376 38.9197 30.5505 38.9197 30.813C38.9197 31.0755 39.1355 31.2883 39.4017 31.2883Z" fill="#59AAD2"/>
        <path d="M50.6727 38.341C52.1146 37.7863 58.8433 34.9319 58.8433 34.9319L58.868 34.9772L58.9171 35.0671L58.9419 35.1124C58.9419 35.1124 52.8177 39.0755 51.5536 39.956C50.2896 40.8364 45.8075 42.2137 45.8075 42.2137L45.7258 42.0639L45.6767 41.974L45.595 41.8243C45.595 41.8243 49.2309 38.8957 50.6727 38.341Z" fill="#056B9C"/>
        <path d="M41.2042 42.8822C40.1007 42.7135 34.8631 42.1615 34.8631 42.1615L34.8624 42.11L34.8608 42.008L34.8601 41.9565C34.8601 41.9565 40.0786 41.2498 41.1765 41.0485C42.2743 40.8472 45.5897 41.6791 45.5897 41.6791L45.5923 41.8492L45.5939 41.9513L45.5965 42.1214C45.5961 42.1212 42.3076 43.051 41.2042 42.8822Z" fill="#056B9C"/>
        <path d="M45.7779 42.8677C46.3104 42.8677 46.7421 42.442 46.7421 41.9169C46.7421 41.3918 46.3104 40.9661 45.7779 40.9661C45.2454 40.9661 44.8137 41.3918 44.8137 41.9169C44.8137 42.442 45.2454 42.8677 45.7779 42.8677Z" fill="#59AAD2"/>
    </g>
    <defs>
        <clipPath id="clip0_1843_85478">
            <rect width="64" height="60" fill="white"/>
        </clipPath>
    </defs>
</svg>
