<svg width="380" height="128" viewBox="0 0 380 128" fill="none" xmlns="http://www.w3.org/2000/svg">
    <g clip-path="url(#clip0_2210_4463)">
        <rect width="380" height="128" rx="8" fill="url(#paint0_linear_2210_4463)" fill-opacity="0.8"/>
        <path opacity="0.15" d="M293.196 38.0392L291.964 23.496C291.888 22.5974 291.409 21.7818 290.662 21.2772C289.914 20.7727 288.978 20.6333 288.117 20.8986L273.697 25.3354C272.123 25.8196 271.24 27.4877 271.724 29.0613C272.208 30.6349 273.876 31.5181 275.45 31.0339L281.644 29.1277L258.458 59.7901L243.729 59.3439C242.835 59.3194 241.978 59.6918 241.391 60.3654L223.028 81.4404C221.946 82.6819 222.076 84.5647 223.317 85.6464C223.882 86.1387 224.579 86.3798 225.274 86.3798C226.106 86.3798 226.933 86.0335 227.523 85.3572L244.959 65.3462L259.817 65.7967C260.78 65.8216 261.703 65.3854 262.285 64.6147L286.726 32.2934L287.255 38.5423C287.387 40.0971 288.69 41.2717 290.223 41.2717C290.307 41.2717 290.392 41.2683 290.478 41.261C292.118 41.1224 293.335 39.6797 293.196 38.0392Z" fill="#388D4E"/>
        <path opacity="0.15" d="M138.902 25.2725L137.669 10.7292C137.593 9.83068 137.114 9.01507 136.367 8.51049C135.62 8.00591 134.684 7.86652 133.822 8.13187L119.402 12.5686C117.829 13.0528 116.946 14.7209 117.43 16.2946C117.914 17.8682 119.582 18.7514 121.156 18.2672L127.35 16.361L104.164 47.0234L89.4347 46.5772C88.5408 46.5526 87.6837 46.9251 87.097 47.5986L68.7333 68.6737C67.6516 69.9152 67.7814 71.7979 69.0225 72.8796C69.5873 73.3719 70.2847 73.6131 70.9797 73.6131C71.8115 73.6131 72.639 73.2667 73.2284 72.5905L90.6651 52.5795L105.523 53.0299C106.485 53.0549 107.408 52.6186 107.991 51.848L132.432 19.5267L132.961 25.7755C133.093 27.3303 134.396 28.505 135.928 28.505C136.013 28.505 136.098 28.5015 136.183 28.4942C137.823 28.3556 139.041 26.9129 138.902 25.2725Z" fill="#388D4E"/>
        <path opacity="0.15" d="M197.525 93.4983L196.143 77.194C196.084 76.5001 195.85 75.8216 195.414 75.2782C194.516 74.1604 193.068 73.7495 191.768 74.1497L175.513 79.1513C173.79 79.6812 172.686 81.4441 173.104 83.1971C173.561 85.1182 175.534 86.2245 177.392 85.6531L184.423 83.4897L164.685 109.592C163.591 111.039 163.832 113.091 165.233 114.244C166.717 115.467 168.922 115.208 170.082 113.673L190.19 87.0828L190.791 94.1753C190.941 95.9401 192.419 97.2734 194.158 97.2734C194.502 97.2734 194.854 97.2215 195.207 97.1086C196.726 96.6221 197.659 95.088 197.525 93.4983Z" fill="#388D4E"/>
        <path opacity="0.15" d="M40.4113 78.3919L39.0297 62.0877C38.9709 61.3938 38.7371 60.7153 38.3009 60.1719C37.4031 59.0541 35.955 58.6432 34.6548 59.0433L18.3993 64.0449C16.6767 64.5749 15.5727 66.3378 15.9905 68.0907C16.4482 70.0119 18.4208 71.1182 20.2786 70.5468L27.3092 68.3834L7.57125 94.4854C6.47724 95.9323 6.71877 97.9848 8.11922 99.1379C9.60415 100.361 11.8087 100.101 12.9691 98.5669L33.0765 71.9765L33.6775 79.0689C33.8273 80.8338 35.3057 82.167 37.0452 82.167C37.3885 82.167 37.741 82.1152 38.0939 82.0023C39.6126 81.5158 40.5461 79.9817 40.4113 78.3919Z" fill="#388D4E"/>
        <path opacity="0.15" d="M354.536 11.3129L353.462 -1.35223C353.416 -1.89169 353.235 -2.41873 352.896 -2.84047C352.199 -3.70879 351.074 -4.02793 350.064 -3.71689L337.437 0.168406C336.098 0.580426 335.241 1.94933 335.565 3.31121C335.921 4.80323 337.453 5.66291 338.897 5.21903L344.358 3.53854L329.026 23.8145C328.176 24.9387 328.364 26.5328 329.452 27.4287C330.605 28.3785 332.317 28.1771 333.219 26.9848L348.839 6.32927L349.306 11.8389C349.422 13.2099 350.57 14.2457 351.922 14.2457C352.188 14.2457 352.462 14.2057 352.736 14.1177C353.915 13.7391 354.64 12.5474 354.536 11.3129Z" fill="#388D4E"/>
        <path opacity="0.15" d="M373.256 106.935L371.702 88.5937C371.636 87.8131 371.373 87.0493 370.882 86.4384C369.873 85.1805 368.243 84.7182 366.781 85.1684L348.493 90.7952C346.555 91.3913 345.313 93.3746 345.783 95.3467C346.298 97.508 348.517 98.7526 350.607 98.1098L358.517 95.6763L336.772 124.396C335.539 126.023 335.81 128.334 337.386 129.632C339.057 131.007 341.535 130.716 342.841 128.991L365.005 99.7186L365.681 107.698C365.849 109.683 367.512 111.183 369.469 111.183C369.856 111.183 370.252 111.125 370.649 110.998C372.358 110.449 373.408 108.723 373.256 106.935Z" fill="#388D4E"/>
        <path d="M363.78 53.7392L361.295 24.4818C361.141 22.6743 360.176 21.033 358.669 20.0178C357.162 19.0026 355.275 18.7224 353.537 19.2561L324.459 28.1821C321.286 29.1563 319.505 32.5121 320.481 35.6777C321.457 38.8436 324.82 40.6201 327.995 39.6462L340.486 35.812L293.729 97.498L264.027 96.6001C262.224 96.5508 260.496 97.3001 259.312 98.6548L222.281 141.053C220.1 143.55 220.361 147.339 222.864 149.515C224.003 150.505 225.41 150.991 226.811 150.991C228.488 150.991 230.157 150.294 231.345 148.933L266.507 108.676L296.469 109.582C298.41 109.632 300.271 108.754 301.446 107.204L350.732 42.1811L351.8 54.7524C352.065 57.8806 354.692 60.2436 357.783 60.2436C357.953 60.2436 358.124 60.2366 358.297 60.2219C361.606 59.942 364.06 57.0397 363.78 53.7392Z" fill="#92E3A9" stroke="white" stroke-miterlimit="10" stroke-linecap="round" stroke-linejoin="round"/>
    </g>
    <defs>
        <linearGradient id="paint0_linear_2210_4463" x1="380" y1="64.14" x2="-6.80722" y2="37.4794" gradientUnits="userSpaceOnUse">
            <stop offset="0.0437245" stop-color="#8BC9E7"/>
            <stop offset="0.489978" stop-color="#51AAD5"/>
            <stop offset="1" stop-color="#2F8CB8"/>
        </linearGradient>
        <clipPath id="clip0_2210_4463">
            <rect width="380" height="128" rx="8" fill="white"/>
        </clipPath>
    </defs>
</svg>
