<svg width="704" height="80" viewBox="0 0 704 80" fill="none" xmlns="http://www.w3.org/2000/svg">
    <g clip-path="url(#clip0_278_223)">
        <rect width="704" height="80" rx="8" fill="url(#paint0_linear_278_223)" fill-opacity="0.8"/>
        <path opacity="0.15" d="M455.197 0.0391076L453.965 -14.5041C453.889 -15.4027 453.41 -16.2183 452.662 -16.7229C451.915 -17.2275 450.979 -17.3668 450.118 -17.1015L435.698 -12.6648C434.124 -12.1805 433.241 -10.5124 433.725 -8.93881C434.209 -7.36518 435.877 -6.48198 437.451 -6.96621L443.645 -8.87238L420.459 21.79L405.73 21.3438C404.836 21.3192 403.979 21.6917 403.392 22.3653L385.028 43.4403C383.947 44.6818 384.077 46.5645 385.318 47.6463C385.882 48.1386 386.58 48.3797 387.275 48.3797C388.107 48.3797 388.934 48.0333 389.524 47.3571L406.96 27.3461L421.818 27.7965C422.781 27.8215 423.703 27.3853 424.286 26.6146L448.727 -5.70668L449.256 0.542147C449.388 2.09696 450.691 3.27162 452.223 3.27162C452.308 3.27162 452.393 3.26816 452.478 3.26087C454.119 3.12224 455.336 1.67956 455.197 0.0391076Z" fill="#388D4E"/>
        <path opacity="0.15" d="M300.902 -12.7275L299.67 -27.2707C299.594 -28.1693 299.115 -28.9849 298.367 -29.4895C297.62 -29.9941 296.684 -30.1334 295.823 -29.8681L281.403 -25.4314C279.829 -24.9471 278.946 -23.279 279.43 -21.7054C279.914 -20.1318 281.582 -19.2486 283.156 -19.7328L289.35 -21.639L266.164 9.02342L251.435 8.57721C250.541 8.55263 249.684 8.92511 249.097 9.59865L230.734 30.6737C229.652 31.9152 229.782 33.7979 231.023 34.8797C231.588 35.372 232.285 35.6131 232.98 35.6131C233.812 35.6131 234.639 35.2667 235.229 34.5905L252.665 14.5795L267.523 15.0299C268.486 15.0549 269.408 14.6187 269.991 13.848L294.432 -18.4733L294.961 -12.2245C295.093 -10.6696 296.396 -9.49498 297.929 -9.49498C298.013 -9.49498 298.098 -9.49844 298.184 -9.50573C299.824 -9.64436 301.041 -11.087 300.902 -12.7275Z" fill="#388D4E"/>
        <path opacity="0.15" d="M359.525 55.4983L358.143 39.194C358.084 38.5001 357.851 37.8216 357.414 37.2782C356.517 36.1604 355.069 35.7495 353.768 36.1497L337.513 41.1513C335.79 41.6812 334.686 43.4441 335.104 45.1971C335.562 47.1182 337.534 48.2245 339.392 47.6531L346.423 45.4897L326.685 71.5917C325.591 73.0386 325.832 75.0911 327.233 76.2442C328.718 77.4673 330.922 77.2077 332.083 75.6732L352.19 49.0828L352.791 56.1753C352.941 57.9401 354.419 59.2734 356.159 59.2734C356.502 59.2734 356.855 59.2215 357.207 59.1086C358.726 58.6221 359.66 57.088 359.525 55.4983Z" fill="#388D4E"/>
        <path opacity="0.15" d="M202.412 40.3918L201.03 24.0876C200.971 23.3937 200.737 22.7151 200.301 22.1718C199.403 21.054 197.955 20.6431 196.655 21.0432L180.4 26.0448C178.677 26.5747 177.573 28.3377 177.991 30.0906C178.448 32.0118 180.421 33.1181 182.279 32.5467L189.309 30.3832L169.571 56.4853C168.477 57.9322 168.719 59.9846 170.119 61.1378C171.604 62.3608 173.809 62.1013 174.969 60.5668L195.077 33.9763L195.678 41.0688C195.827 42.8337 197.306 44.1669 199.045 44.1669C199.389 44.1669 199.741 44.1151 200.094 44.0022C201.613 43.5157 202.546 41.9816 202.412 40.3918Z" fill="#388D4E"/>
        <path opacity="0.15" d="M535.256 68.9351L533.702 50.5937C533.636 49.8131 533.373 49.0493 532.883 48.4384C531.873 47.1805 530.244 46.7182 528.781 47.1684L510.493 52.7952C508.555 53.3913 507.313 55.3746 507.783 57.3467C508.298 59.508 510.518 60.7526 512.608 60.1098L520.517 57.6763L498.772 86.3957C497.539 88.0235 497.811 90.3338 499.387 91.632C501.057 93.007 503.536 92.7158 504.841 90.9913L527.005 61.7186L527.681 69.6976C527.849 71.6831 529.513 73.183 531.47 73.183C531.856 73.183 532.252 73.1246 532.649 72.9976C534.358 72.449 535.408 70.7232 535.256 68.9351Z" fill="#388D4E"/>
        <path d="M363.779 53.7396L361.294 24.4822C361.14 22.6747 360.175 21.0334 358.668 20.0182C357.161 19.003 355.274 18.7228 353.536 19.2566L324.458 28.1825C321.285 29.1568 319.504 32.5126 320.48 35.6781C321.456 38.844 324.82 40.6206 327.994 39.6467L340.485 35.8124L293.728 97.4985L264.026 96.6005C262.223 96.5512 260.495 97.3005 259.311 98.6553L222.28 141.054C220.099 143.551 220.36 147.339 222.863 149.516C224.002 150.506 225.409 150.991 226.81 150.991C228.487 150.991 230.156 150.295 231.344 148.934L266.506 108.676L296.468 109.582C298.41 109.632 300.27 108.755 301.445 107.204L350.731 42.1815L351.799 54.7528C352.064 57.8811 354.692 60.244 357.782 60.244C357.952 60.244 358.123 60.237 358.296 60.2223C361.605 59.9425 364.059 57.0401 363.779 53.7396Z" fill="#92E3A9" stroke="white" stroke-miterlimit="10" stroke-linecap="round" stroke-linejoin="round"/>
    </g>
    <defs>
        <linearGradient id="paint0_linear_278_223" x1="704" y1="40.0875" x2="12.8348" y2="-101.123" gradientUnits="userSpaceOnUse">
            <stop offset="0.0437245" stop-color="#8BC9E7"/>
            <stop offset="0.489978" stop-color="#51AAD5"/>
            <stop offset="1" stop-color="#2F8CB8"/>
        </linearGradient>
        <clipPath id="clip0_278_223">
            <rect width="704" height="80" rx="8" fill="white"/>
        </clipPath>
    </defs>
</svg>
