<svg width="16" height="17" viewBox="0 0 16 17" fill="none" xmlns="http://www.w3.org/2000/svg">
    <path d="M7.99967 1.8335C4.32634 1.8335 1.33301 4.82683 1.33301 8.50016C1.33301 12.1735 4.32634 15.1668 7.99967 15.1668C11.673 15.1668 14.6663 12.1735 14.6663 8.50016C14.6663 4.82683 11.673 1.8335 7.99967 1.8335ZM11.1863 6.96683L7.40634 10.7468C7.31301 10.8402 7.18634 10.8935 7.05301 10.8935C6.91967 10.8935 6.79301 10.8402 6.69967 10.7468L4.81301 8.86016C4.61967 8.66683 4.61967 8.34683 4.81301 8.1535C5.00634 7.96016 5.32634 7.96016 5.51967 8.1535L7.05301 9.68683L10.4797 6.26016C10.673 6.06683 10.993 6.06683 11.1863 6.26016C11.3797 6.4535 11.3797 6.76683 11.1863 6.96683Z" fill="#BD3D44"/>
</svg>
