<svg width="16" height="17" viewBox="0 0 16 17" fill="none" xmlns="http://www.w3.org/2000/svg">
<path d="M8.13293 8.36681L7.19291 9.30681C6.67291 9.82681 6.67291 10.6735 7.19291 11.1935C7.71291 11.7135 8.55959 11.7135 9.07959 11.1935L10.5596 9.71349C11.5996 8.67349 11.5996 6.98682 10.5596 5.94016C9.51961 4.90016 7.83292 4.90016 6.78625 5.94016L5.17293 7.55348C4.2796 8.44681 4.2796 9.89348 5.17293 10.7868" stroke="#808080" stroke-width="1.05" stroke-linecap="round" stroke-linejoin="round"/>
<path d="M7.99967 15.1663C11.6816 15.1663 14.6663 12.1816 14.6663 8.49967C14.6663 4.81778 11.6816 1.83301 7.99967 1.83301C4.31778 1.83301 1.33301 4.81778 1.33301 8.49967C1.33301 12.1816 4.31778 15.1663 7.99967 15.1663Z" stroke="#808080" stroke-width="1.05" stroke-linecap="round" stroke-linejoin="round"/>
</svg>
