<svg width="40" height="40" viewBox="0 0 40 40" fill="none" xmlns="http://www.w3.org/2000/svg">
<rect width="40" height="40" rx="20" fill="#FDDDDD"/>
<path d="M22.417 11.6665H17.5837C17.017 11.6665 16.217 11.9998 15.817 12.3998L12.4003 15.8165C12.0003 16.2165 11.667 17.0165 11.667 17.5832V22.4165C11.667 22.9832 12.0003 23.7832 12.4003 24.1832L15.817 27.5998C16.217 27.9998 17.017 28.3332 17.5837 28.3332H22.417C22.9837 28.3332 23.7837 27.9998 24.1837 27.5998L27.6003 24.1832C28.0003 23.7832 28.3337 22.9832 28.3337 22.4165V17.5832C28.3337 17.0165 28.0003 16.2165 27.6003 15.8165L24.1837 12.3998C23.7837 11.9998 22.9837 11.6665 22.417 11.6665Z" stroke="#EF5656" stroke-width="1.5" stroke-linecap="round" stroke-linejoin="round"/>
<path d="M17.083 22.9168L22.9163 17.0835" stroke="#EF5656" stroke-width="1.5" stroke-linecap="round" stroke-linejoin="round"/>
<path d="M22.9163 22.9168L17.083 17.0835" stroke="#EF5656" stroke-width="1.5" stroke-linecap="round" stroke-linejoin="round"/>
</svg>
