<svg width="24" height="24" viewBox="0 0 24 24" fill="none" xmlns="http://www.w3.org/2000/svg">
<path d="M14 2H9C4 2 2 4 2 9V15C2 20 4 22 9 22" stroke="#292D32" stroke-width="1.5" stroke-linecap="round" stroke-linejoin="round"/>
<path d="M22 10V13" stroke="#292D32" stroke-width="1.5" stroke-linecap="round" stroke-linejoin="round"/>
<path d="M22 10H18C15 10 14 9 14 6V2L22 10Z" stroke="#292D32" stroke-width="1.5" stroke-linecap="round" stroke-linejoin="round"/>
<path d="M17.618 14.6015L13.1668 19.313C12.9987 19.492 12.836 19.8444 12.8035 20.0884L12.6029 21.845C12.5324 22.4794 12.9878 22.9131 13.6168 22.8047L15.3626 22.5065C15.6066 22.4631 15.9481 22.2842 16.1162 22.0998L20.5675 17.3883C21.3374 16.5751 21.6844 15.6479 20.4862 14.5148C19.2934 13.3925 18.3879 13.7883 17.618 14.6015Z" stroke="#292D32" stroke-width="1.2" stroke-miterlimit="10" stroke-linecap="round" stroke-linejoin="round"/>
<path d="M16.875 15.3877C17.1081 16.8841 18.3226 18.0281 19.8299 18.1799" stroke="#292D32" stroke-width="1.2" stroke-miterlimit="10" stroke-linecap="round" stroke-linejoin="round"/>
</svg>
