<svg width="24" height="25" viewBox="0 0 24 25" fill="none" xmlns="http://www.w3.org/2000/svg">
    <path d="M22.02 17.3198L18.89 9.99978C18.32 8.65978 17.47 7.89978 16.5 7.84978C15.54 7.79978 14.61 8.46978 13.9 9.74978L12 13.1598C11.6 13.8798 11.03 14.3098 10.41 14.3598C9.78 14.4198 9.15 14.0898 8.64 13.4398L8.42 13.1598C7.71 12.2698 6.83 11.8398 5.93 11.9298C5.03 12.0198 4.26 12.6398 3.75 13.6498L2.02 17.0998C1.4 18.3498 1.46 19.7998 2.19 20.9798C2.92 22.1598 4.19 22.8698 5.58 22.8698H18.34C19.68 22.8698 20.93 22.1998 21.67 21.0798C22.43 19.9598 22.55 18.5498 22.02 17.3198Z" fill="#22552F"/>
    <path d="M6.97 8.88012C8.83672 8.88012 10.35 7.36684 10.35 5.50012C10.35 3.63339 8.83672 2.12012 6.97 2.12012C5.10327 2.12012 3.59 3.63339 3.59 5.50012C3.59 7.36684 5.10327 8.88012 6.97 8.88012Z" fill="#22552F"/>
</svg>
