<svg width="16" height="17" viewBox="0 0 16 17" fill="none" xmlns="http://www.w3.org/2000/svg">
    <path d="M7.99967 15.2168C4.29487 15.2168 1.28301 12.205 1.28301 8.50016C1.28301 4.79536 4.29487 1.7835 7.99967 1.7835C11.7045 1.7835 14.7163 4.79536 14.7163 8.50016C14.7163 12.205 11.7045 15.2168 7.99967 15.2168ZM7.99967 1.8835C4.35115 1.8835 1.38301 4.85163 1.38301 8.50016C1.38301 12.1487 4.35115 15.1168 7.99967 15.1168C11.6482 15.1168 14.6163 12.1487 14.6163 8.50016C14.6163 4.85163 11.6482 1.8835 7.99967 1.8835Z" fill="#929292" stroke="#929292" stroke-width="0.9"/>
    <path d="M6.73477 9.99826L7.05297 10.3165L7.37117 9.99826L10.7978 6.5716C10.8051 6.56431 10.8167 6.5584 10.833 6.5584C10.8492 6.5584 10.8608 6.56431 10.8681 6.5716C10.8754 6.57889 10.8813 6.59051 10.8813 6.60673C10.8813 6.62296 10.8754 6.63458 10.8681 6.64187L7.0881 10.4219C7.0782 10.4318 7.0656 10.4367 7.05297 10.4367C7.04034 10.4367 7.02774 10.4318 7.01783 10.4219L5.13117 8.5352L4.81297 8.8534L5.13117 8.5352C5.12388 8.52791 5.11797 8.51629 5.11797 8.50007C5.11797 8.48384 5.12388 8.47222 5.13117 8.46493C5.13846 8.45764 5.15008 8.45173 5.1663 8.45173C5.18253 8.45173 5.19415 8.45764 5.20144 8.46493L6.73477 9.99826Z" fill="#929292" stroke="#929292" stroke-width="0.9"/>
</svg>
