<svg width="21" height="20" viewBox="0 0 21 20" fill="none" xmlns="http://www.w3.org/2000/svg">
<path d="M10.5003 12.917C12.342 12.917 13.8337 11.4253 13.8337 9.58366V5.00033C13.8337 3.15866 12.342 1.66699 10.5003 1.66699C8.65866 1.66699 7.16699 3.15866 7.16699 5.00033V9.58366C7.16699 11.4253 8.65866 12.917 10.5003 12.917Z" stroke="#555555" stroke-width="1.5" stroke-linecap="round" stroke-linejoin="round"/>
<path d="M4.125 8.04199V9.45866C4.125 12.9753 6.98333 15.8337 10.5 15.8337C14.0167 15.8337 16.875 12.9753 16.875 9.45866V8.04199" stroke="#555555" stroke-width="1.5" stroke-linecap="round" stroke-linejoin="round"/>
<path d="M9.3418 5.35859C10.0918 5.08359 10.9085 5.08359 11.6585 5.35859" stroke="#555555" stroke-width="1.5" stroke-linecap="round" stroke-linejoin="round"/>
<path d="M9.83301 7.12461C10.2747 7.00794 10.733 7.00794 11.1747 7.12461" stroke="#555555" stroke-width="1.5" stroke-linecap="round" stroke-linejoin="round"/>
<path d="M10.5 15.833V18.333" stroke="#555555" stroke-width="1.5" stroke-linecap="round" stroke-linejoin="round"/>
</svg>
