<svg width="24" height="24" viewBox="0 0 24 24" fill="none" xmlns="http://www.w3.org/2000/svg">
<path d="M21.7197 6.28025V7.45025C21.7197 8.43025 21.3297 9.27025 20.6397 9.76025C20.2097 10.0803 19.6797 10.2303 19.1297 10.2303C18.7897 10.2303 18.4497 10.1803 18.0997 10.0603L12.7197 8.27025V18.0003C12.7197 20.6203 10.5897 22.7503 7.96973 22.7503C5.34973 22.7503 3.21973 20.6203 3.21973 18.0003C3.21973 15.3803 5.34973 13.2503 7.96973 13.2503C9.22973 13.2503 10.3697 13.7503 11.2197 14.5503V4.00025C11.2197 3.03025 11.6197 2.19025 12.3097 1.69025C12.9997 1.20025 13.9197 1.09025 14.8397 1.39025L19.2597 2.87025C20.6197 3.32025 21.7197 4.85025 21.7197 6.28025Z" fill="#22552F"/>
</svg>
