<svg width="33" height="32" viewBox="0 0 33 32" fill="none" xmlns="http://www.w3.org/2000/svg">
    <path d="M14.2 6.52V25.48C14.2 26.3247 14.0195 26.7851 13.7372 27.051C13.4472 27.3241 12.9373 27.5 12.02 27.5H7.18C6.26274 27.5 5.75276 27.3241 5.46281 27.051C5.18051 26.7851 5 26.3247 5 25.48V6.52C5 5.67531 5.18051 5.21487 5.46281 4.94898C5.75276 4.67589 6.26274 4.5 7.18 4.5H12.02C12.9373 4.5 13.4472 4.67589 13.7372 4.94898C14.0195 5.21487 14.2 5.67531 14.2 6.52Z" fill="#43A95D" stroke="#43A95D"/>
    <path d="M28.5008 25.48V6.52C28.5008 4.72 27.7408 4 25.8208 4H20.9808C19.0741 4 18.3008 4.72 18.3008 6.52V25.48C18.3008 27.28 19.0608 28 20.9808 28H25.8208C27.7408 28 28.5008 27.28 28.5008 25.48Z" fill="#43A95D"/>
</svg>
