<svg width="40" height="41" viewBox="0 0 40 41" fill="none" xmlns="http://www.w3.org/2000/svg">
    <path d="M30 12.4333C29.9 12.4167 29.7833 12.4167 29.6833 12.4333C27.3833 12.35 25.55 10.4666 25.55 8.13332C25.55 5.74998 27.4667 3.83331 29.85 3.83331C32.2333 3.83331 34.15 5.76665 34.15 8.13332C34.1333 10.4666 32.3 12.35 30 12.4333Z" stroke="#555555" stroke-width="1.5" stroke-linecap="round" stroke-linejoin="round"/>
    <path d="M28.2833 24.5667C30.5667 24.95 33.0833 24.55 34.85 23.3667C37.2 21.8 37.2 19.2333 34.85 17.6667C33.0667 16.4833 30.5167 16.0833 28.2333 16.4833" stroke="#555555" stroke-width="1.5" stroke-linecap="round" stroke-linejoin="round"/>
    <path d="M9.94999 12.4333C10.05 12.4167 10.1667 12.4167 10.2667 12.4333C12.5667 12.35 14.4 10.4666 14.4 8.13332C14.4 5.74998 12.4833 3.83331 10.1 3.83331C7.71666 3.83331 5.79999 5.76665 5.79999 8.13332C5.81665 10.4666 7.64999 12.35 9.94999 12.4333Z" stroke="#555555" stroke-width="1.5" stroke-linecap="round" stroke-linejoin="round"/>
    <path d="M11.6667 24.5667C9.38332 24.95 6.86666 24.55 5.09999 23.3667C2.74999 21.8 2.74999 19.2333 5.09999 17.6667C6.88333 16.4833 9.43332 16.0833 11.7167 16.4833" stroke="#555555" stroke-width="1.5" stroke-linecap="round" stroke-linejoin="round"/>
    <path d="M20 24.8833C19.9 24.8667 19.7834 24.8667 19.6834 24.8833C17.3834 24.8 15.55 22.9167 15.55 20.5833C15.55 18.2 17.4667 16.2833 19.85 16.2833C22.2333 16.2833 24.15 18.2167 24.15 20.5833C24.1334 22.9167 22.3 24.8167 20 24.8833Z" stroke="#555555" stroke-width="1.5" stroke-linecap="round" stroke-linejoin="round"/>
    <path d="M15.15 30.1333C12.8 31.7 12.8 34.2667 15.15 35.8333C17.8167 37.6167 22.1833 37.6167 24.85 35.8333C27.2 34.2667 27.2 31.7 24.85 30.1333C22.2 28.3667 17.8167 28.3667 15.15 30.1333Z" stroke="#555555" stroke-width="1.5" stroke-linecap="round" stroke-linejoin="round"/>
</svg>
