<svg width="24" height="24" viewBox="0 0 24 24" fill="none" xmlns="http://www.w3.org/2000/svg">
<path d="M14 2H9C4 2 2 4 2 9V15C2 20 4 22 9 22" stroke="#292D32" stroke-width="1.5" stroke-linecap="round" stroke-linejoin="round"/>
<path d="M22 10V13" stroke="#292D32" stroke-width="1.5" stroke-linecap="round" stroke-linejoin="round"/>
<path d="M22 10H18C15 10 14 9 14 6V2L22 10Z" stroke="#292D32" stroke-width="1.5" stroke-linecap="round" stroke-linejoin="round"/>
<path d="M17.789 17.999C17.789 18.989 16.989 19.789 15.999 19.789C15.009 19.789 14.209 18.989 14.209 17.999C14.209 17.009 15.009 16.209 15.999 16.209C16.989 16.209 17.789 17.009 17.789 17.999Z" stroke="#292D32" stroke-width="1.2" stroke-linecap="round" stroke-linejoin="round"/>
<path d="M15.998 22.1334C17.763 22.1334 19.408 21.0934 20.553 19.2934C21.003 18.5884 21.003 17.4034 20.553 16.6984C19.408 14.8984 17.763 13.8584 15.998 13.8584C14.233 13.8584 12.588 14.8984 11.443 16.6984C10.993 17.4034 10.993 18.5884 11.443 19.2934C12.588 21.0934 14.233 22.1334 15.998 22.1334Z" stroke="#292D32" stroke-width="1.2" stroke-linecap="round" stroke-linejoin="round"/>
</svg>
