<svg width="70" height="240" viewBox="0 0 70 240" fill="none" xmlns="http://www.w3.org/2000/svg">
<path d="M11.3174 16C11.3174 7.16343 18.4808 0 27.3174 0H54C62.8366 0 70 7.16344 70 16V224C70 232.837 62.8366 240 54 240H27.3174C18.4808 240 11.3174 232.837 11.3174 224V208.449C11.3174 204.006 8.67262 199.989 4.59117 198.234L1.89642 197.075C1.21334 196.781 0.656924 196.254 0.326514 195.588L0.311226 195.557C0.106516 195.144 0 194.69 0 194.229V193.897C0 193.47 0.137676 193.054 0.392602 192.712C0.679929 192.326 1.09774 192.057 1.56834 191.956L4.16673 191.397C8.33829 190.5 11.3174 186.812 11.3174 182.545V16Z" fill="#E0F3E5"/>
</svg>
