<svg width="30" height="30" viewBox="0 0 30 30" fill="none" xmlns="http://www.w3.org/2000/svg">
<path d="M13.75 14.7164L0 8.93311V21.8164C0.00724678 22.3537 0.168009 22.8777 0.463319 23.3265C0.758629 23.7754 1.17617 24.1305 1.66667 24.3498L13.65 29.9998H13.75V14.7164Z" fill="#3095C6"/>
<path d="M15.0002 12.4996L29.1836 6.54961C28.9449 6.2844 28.656 6.06915 28.3336 5.91627L16.3336 0.299606C15.9168 0.102328 15.4614 0 15.0002 0C14.5391 0 14.0837 0.102328 13.6669 0.299606L1.66689 5.91627C1.3445 6.06915 1.0556 6.2844 0.816895 6.54961L15.0002 12.4996Z" fill="#3095C6"/>
<path d="M16.25 14.7164V29.9998H16.3333L28.3333 24.3498C28.8213 24.1316 29.2371 23.7792 29.5322 23.3335C29.8274 22.8879 29.9896 22.3675 30 21.8331V8.93311L16.25 14.7164Z" fill="#3095C6"/>
</svg>
