<svg width="30" height="27" viewBox="0 0 30 27" fill="none" xmlns="http://www.w3.org/2000/svg">
<path d="M10.5 12C11.6867 12 12.8467 11.6481 13.8334 10.9888C14.8201 10.3295 15.5892 9.39246 16.0433 8.2961C16.4974 7.19975 16.6162 5.99335 16.3847 4.82946C16.1532 3.66557 15.5818 2.59648 14.7426 1.75736C13.9035 0.918247 12.8344 0.346802 11.6705 0.115291C10.5067 -0.11622 9.30026 0.00259969 8.2039 0.456725C7.10754 0.910851 6.17047 1.67989 5.51118 2.66658C4.85189 3.65328 4.5 4.81331 4.5 6C4.5 7.5913 5.13214 9.11743 6.25736 10.2426C7.38258 11.3679 8.9087 12 10.5 12Z" fill="#43A95D"/>
<path d="M22.5 15C23.39 15 24.26 14.7361 25.0001 14.2416C25.7401 13.7471 26.3169 13.0443 26.6575 12.2221C26.9981 11.3998 27.0872 10.495 26.9135 9.6221C26.7399 8.74918 26.3113 7.94736 25.682 7.31802C25.0526 6.68869 24.2508 6.2601 23.3779 6.08647C22.505 5.91283 21.6002 6.00195 20.7779 6.34254C19.9557 6.68314 19.2529 7.25991 18.7584 7.99994C18.2639 8.73996 18 9.60999 18 10.5C18 11.6935 18.4741 12.8381 19.318 13.682C20.1619 14.5259 21.3065 15 22.5 15Z" fill="#43A95D"/>
<path d="M28.5 25.4995C28.8978 25.4995 29.2794 25.3414 29.5607 25.0601C29.842 24.7788 30 24.3973 30 23.9995C29.9988 22.5976 29.6047 21.2241 28.8624 20.0348C28.1201 18.8455 27.0594 17.8881 25.8005 17.2712C24.5417 16.6542 23.1351 16.4025 21.7404 16.5445C20.3457 16.6865 19.0187 17.2165 17.91 18.0745C16.4408 16.611 14.5711 15.6154 12.5367 15.2131C10.5024 14.8109 8.39448 15.02 6.47884 15.8142C4.5632 16.6083 2.92562 17.952 1.77261 19.6756C0.619604 21.3993 0.00280529 23.4257 0 25.4995C0 25.8973 0.158035 26.2788 0.43934 26.5601C0.720644 26.8414 1.10218 26.9995 1.5 26.9995H19.5C19.8978 26.9995 20.2794 26.8414 20.5607 26.5601C20.842 26.2788 21 25.8973 21 25.4995" fill="#43A95D"/>
</svg>
